{"glyphs":{"0":{"ha":681,"x_min":43,"x_max":640,"o":"m 640 477 q 634 376 640 431 q 614 268 628 322 q 578 163 601 214 q 523 74 556 113 q 444 12 489 35 q 338 -11 398 -11 q 231 12 277 -11 q 153 74 186 35 q 99 163 120 113 q 65 267 77 213 q 47 376 52 321 q 43 477 43 430 q 48 585 43 528 q 66 696 53 642 q 102 802 79 751 q 160 890 125 852 q 243 951 195 928 q 356 974 292 974 q 455 949 412 974 q 529 883 498 924 q 582 790 561 842 q 616 682 604 737 q 634 573 629 627 q 640 477 640 520 m 528 477 q 525 543 528 505 q 515 623 522 581 q 494 706 507 665 q 460 780 481 747 q 412 833 440 812 q 345 853 383 853 q 274 833 304 853 q 223 782 244 814 q 190 709 202 749 q 170 626 177 668 q 160 545 163 585 q 158 477 158 506 q 160 412 158 450 q 170 333 163 374 q 189 253 176 293 q 222 182 201 214 q 272 132 242 151 q 341 113 301 113 q 406 132 378 113 q 455 184 434 152 q 490 256 475 216 q 512 336 504 296 q 525 414 521 377 q 528 477 528 451 z "},"1":{"ha":367,"x_min":30,"x_max":359,"o":"m 359 134 l 353 12 l 39 5 l 35 132 l 136 132 l 134 825 l 30 822 l 37 954 l 255 947 l 251 132 l 359 134 z "},"2":{"ha":631,"x_min":41,"x_max":585,"o":"m 585 690 q 569 583 585 629 q 527 500 553 536 q 467 436 500 464 q 397 382 433 408 q 327 333 361 357 q 262 281 292 309 q 213 220 233 254 q 187 142 193 186 l 456 136 l 463 269 l 570 262 l 563 5 l 57 12 q 74 169 57 103 q 120 284 92 235 q 184 367 148 332 q 257 429 220 401 q 330 480 294 456 q 394 531 366 504 q 440 593 422 559 q 457 675 457 627 q 452 737 457 707 q 434 791 448 767 q 397 830 421 815 q 336 845 374 845 q 259 826 291 845 q 207 778 227 808 q 175 709 186 747 q 163 631 165 670 l 56 627 l 41 972 l 160 975 l 161 863 q 198 912 178 892 q 241 946 218 932 q 292 965 264 959 q 353 971 319 971 q 457 948 413 971 q 529 885 500 924 q 571 795 557 846 q 585 690 585 745 z "},"3":{"ha":639,"x_min":43,"x_max":589,"o":"m 589 258 q 521 58 589 122 q 320 -7 453 -7 q 210 16 259 -7 q 127 77 161 39 q 75 168 94 116 q 57 279 57 220 q 58 304 57 292 q 60 328 58 316 l 174 324 q 182 244 174 283 q 210 173 191 204 q 262 122 230 142 q 340 103 294 103 q 399 113 374 103 q 438 142 423 123 q 461 188 454 161 q 468 247 468 214 q 454 312 468 279 q 418 371 441 345 q 364 414 395 397 q 300 431 334 431 l 239 430 l 239 540 l 298 540 q 364 554 334 540 q 415 593 394 569 q 448 649 437 618 q 460 715 460 681 q 453 769 460 743 q 431 815 446 795 q 393 847 416 835 q 339 859 370 859 q 284 849 308 859 q 243 822 261 839 q 212 782 225 805 q 190 734 199 760 q 175 683 181 709 q 165 631 170 656 l 58 627 l 43 972 l 163 975 l 164 863 q 199 913 182 892 q 236 949 216 935 q 282 971 256 964 q 343 978 307 978 q 446 959 401 978 q 523 906 492 940 q 572 824 555 871 q 589 720 589 777 q 549 577 589 638 q 429 488 509 516 q 493 451 464 474 q 544 397 522 427 q 577 332 565 368 q 589 258 589 296 z "},"4":{"ha":591,"x_min":4,"x_max":563,"o":"m 563 407 l 556 285 l 444 283 l 442 132 l 537 134 l 530 12 l 251 5 l 247 132 l 327 132 l 327 282 l 8 278 l 4 403 l 290 955 l 449 955 l 445 406 l 563 407 m 327 406 l 326 802 l 119 403 l 327 406 z "},"5":{"ha":593,"x_min":42,"x_max":553,"o":"m 553 307 q 540 188 553 245 q 496 88 526 132 q 418 19 467 45 q 301 -7 370 -7 q 188 20 237 -7 q 107 92 140 47 q 58 193 75 136 q 43 309 42 250 l 43 328 l 171 324 q 176 254 171 292 q 194 182 180 216 q 234 126 208 149 q 301 103 259 103 q 366 121 340 103 q 405 167 391 139 q 426 229 420 195 q 431 294 431 262 q 420 371 431 336 q 388 431 410 406 q 334 469 367 456 q 258 483 301 483 q 209 478 233 483 q 163 465 185 473 l 50 526 l 90 956 l 514 960 l 521 700 l 401 700 l 401 837 l 197 838 l 178 582 q 220 589 199 587 q 263 591 241 591 q 378 570 325 591 q 470 512 431 549 q 531 421 509 474 q 553 307 553 369 z "},"6":{"ha":612,"x_min":48,"x_max":577,"o":"m 577 320 q 562 199 577 258 q 513 95 546 140 q 431 21 481 49 q 311 -7 380 -7 q 200 19 245 -7 q 125 86 155 44 q 81 182 96 127 q 58 294 65 236 q 49 408 50 351 q 48 513 48 465 q 52 609 48 557 q 66 712 56 661 q 95 812 77 764 q 143 898 113 861 q 216 957 173 935 q 317 979 258 979 q 410 959 368 979 q 484 905 452 939 q 535 826 515 871 q 559 734 554 782 l 440 720 q 430 770 438 745 q 406 814 421 795 q 369 846 391 834 q 319 859 347 859 q 263 845 287 859 q 222 808 239 831 q 195 756 205 785 q 178 695 184 726 q 170 634 172 665 q 168 581 168 604 q 168 558 168 569 q 169 536 168 547 q 242 588 201 568 q 329 608 283 608 q 432 582 386 608 q 510 516 477 557 q 560 424 543 475 q 577 320 577 372 m 456 308 q 448 376 456 343 q 421 434 439 408 q 376 474 404 459 q 309 490 348 490 q 252 472 277 490 q 210 429 227 455 q 183 371 193 402 q 174 313 174 340 q 182 245 174 282 q 205 177 189 209 q 249 124 222 146 q 314 103 275 103 q 380 123 353 103 q 424 174 407 143 q 449 240 441 204 q 456 308 456 276 z "},"7":{"ha":536,"x_min":18,"x_max":525,"o":"m 525 825 l 293 132 l 389 134 l 381 12 l 102 5 l 98 132 l 178 132 l 401 825 l 125 823 l 121 700 l 18 700 l 30 954 l 31 954 l 31 954 l 515 947 l 525 825 z "},"8":{"ha":654,"x_min":38,"x_max":616,"o":"m 616 259 q 592 150 616 199 q 529 66 568 100 q 437 12 489 31 q 327 -7 385 -7 q 214 11 267 -7 q 122 62 161 28 q 60 145 83 96 q 38 259 38 195 q 48 334 38 296 q 79 404 59 371 q 127 462 99 436 q 191 502 155 488 q 138 535 161 513 q 99 585 115 557 q 75 645 83 613 q 66 707 66 677 q 85 814 66 764 q 138 899 104 863 q 220 955 172 935 q 327 975 268 975 q 433 955 385 975 q 515 898 481 934 q 568 812 549 861 q 587 707 587 763 q 579 646 587 677 q 554 585 570 614 q 515 534 538 557 q 463 502 492 512 q 526 462 498 488 q 575 404 555 436 q 605 334 595 371 q 616 259 616 296 m 460 707 q 451 763 460 736 q 424 811 441 790 q 382 846 407 833 q 327 859 358 859 q 271 846 295 859 q 229 812 246 833 q 203 763 212 791 q 194 707 194 736 q 202 648 194 676 q 228 600 211 621 q 269 566 244 578 q 327 553 294 553 q 385 566 360 553 q 426 600 410 578 q 451 648 443 621 q 460 707 460 676 m 495 259 q 451 386 495 340 q 327 431 408 431 q 258 419 289 431 q 204 384 227 406 q 171 329 182 361 q 159 259 159 297 q 172 195 159 224 q 209 146 186 166 q 263 114 233 125 q 327 103 293 103 q 393 114 362 103 q 446 144 423 124 q 482 194 469 165 q 495 259 495 222 z "},"9":{"ha":612,"x_min":35,"x_max":564,"o":"m 564 460 q 560 363 564 415 q 546 260 556 312 q 517 160 536 208 q 469 75 498 112 q 396 16 439 38 q 295 -7 353 -7 q 201 13 243 -7 q 128 67 159 33 q 77 145 96 101 q 52 239 58 190 l 172 252 q 182 202 174 227 q 207 158 191 177 q 244 126 222 138 q 294 114 266 114 q 350 128 326 114 q 391 164 374 142 q 418 217 408 187 q 434 277 428 246 q 442 338 440 308 q 444 392 444 368 q 444 414 444 404 q 443 435 444 425 q 370 384 411 403 q 283 365 330 365 q 180 390 226 365 q 102 456 134 416 q 52 549 69 497 q 35 652 35 600 q 50 773 35 714 q 98 878 66 832 q 181 951 131 924 q 302 979 232 979 q 413 954 368 979 q 487 887 458 928 q 531 791 515 845 q 554 679 547 736 q 563 564 562 621 q 564 460 564 507 m 437 659 q 430 726 437 690 q 406 794 422 762 q 363 847 390 825 q 299 868 337 868 q 233 848 260 868 q 188 799 205 829 q 163 732 171 768 q 155 665 155 696 q 164 597 155 629 q 190 539 172 564 q 236 498 208 513 q 303 483 264 483 q 359 500 334 483 q 402 544 385 517 q 428 601 419 570 q 437 659 437 631 z "}," ":{"ha":244,"x_min":0,"x_max":0,"o":""},"Ł":{"ha":608,"x_min":45,"x_max":593,"o":"m 340 576 l 374 465 l 248 415 l 245 134 l 472 129 l 479 282 l 593 275 l 586 -1 l 52 5 l 45 137 l 129 134 l 129 369 l 68 343 l 50 468 l 129 498 l 130 829 l 50 829 l 54 954 l 349 954 l 349 833 l 252 829 l 250 543 l 340 576 z "},"ł":{"ha":318,"x_min":1,"x_max":330,"o":"m 296 576 l 330 465 l 211 418 l 205 114 l 279 107 l 275 -5 l 26 5 l 26 123 l 83 127 l 83 368 l 24 343 l 6 468 l 83 496 l 83 857 l 1 857 l 3 977 l 222 977 l 214 545 l 296 576 z "},"Þ":{"ha":660,"x_min":44,"x_max":641,"o":"m 641 488 q 614 347 641 404 q 539 256 587 290 q 426 206 491 221 q 286 190 361 191 l 248 190 l 245 132 l 340 134 l 333 12 l 54 5 l 50 132 l 130 132 l 128 842 l 51 840 l 44 971 l 319 977 l 321 854 l 246 848 l 248 773 l 345 773 q 461 752 407 773 q 555 694 515 732 q 618 604 595 656 q 641 488 641 552 m 516 483 q 504 547 516 517 q 469 599 491 577 q 418 633 448 621 q 353 646 388 646 l 310 646 l 252 646 l 248 305 l 281 305 q 371 311 328 305 q 446 335 413 317 q 497 389 478 353 q 516 483 516 424 z "},"þ":{"ha":526,"x_min":-25,"x_max":490,"o":"m 490 346 q 487 273 490 313 q 476 195 484 234 q 454 118 469 155 q 417 53 439 81 q 362 7 394 24 q 286 -9 330 -9 q 223 10 252 -9 q 180 58 195 30 l 180 -171 l 241 -172 l 241 -279 l -18 -279 l -14 -164 l 56 -167 l 64 856 l -25 853 l -25 964 l 157 971 l 166 621 q 193 652 177 637 q 227 677 208 666 q 265 694 245 688 q 306 700 286 700 q 372 681 344 700 q 421 632 401 663 q 455 564 441 602 q 476 486 469 526 q 487 410 484 447 q 490 346 490 373 m 371 336 q 370 375 371 351 q 367 426 370 399 q 357 480 363 453 q 340 529 351 507 q 313 564 330 551 q 273 578 296 578 q 236 570 252 578 q 210 550 220 563 q 193 519 199 536 q 186 481 187 501 q 184 354 185 418 q 182 227 182 291 q 188 190 182 211 q 205 151 194 170 q 231 120 216 133 q 265 107 246 107 q 308 119 290 107 q 338 151 326 132 q 356 196 349 171 q 366 246 363 220 q 370 296 370 272 q 371 336 371 319 z "},"½":{"ha":965,"x_min":39,"x_max":928,"o":"m 679 977 l 214 -14 l 138 0 l 596 990 l 679 977 m 277 484 l 272 404 l 45 400 l 43 483 l 113 483 l 112 892 l 39 891 l 44 977 l 203 972 l 200 483 l 277 484 m 928 412 q 917 346 928 374 q 887 296 906 318 q 845 256 869 273 q 795 224 821 239 q 748 196 772 210 q 702 164 724 182 q 669 129 682 148 q 650 87 656 111 l 831 83 l 836 163 l 918 159 l 913 -3 l 551 1 q 564 99 551 58 q 596 169 576 140 q 642 220 616 199 q 694 258 667 241 q 743 287 718 272 q 790 319 768 301 q 821 355 810 335 q 832 403 832 374 q 829 439 832 421 q 817 471 826 456 q 792 493 808 485 q 751 502 776 502 q 699 491 720 502 q 663 462 677 480 q 641 420 648 444 q 633 373 634 397 l 551 370 l 541 585 l 631 586 l 631 526 q 687 570 656 557 q 763 583 718 583 q 838 569 806 583 q 889 531 869 555 q 919 476 909 507 q 928 412 928 446 z "},"¼":{"ha":855,"x_min":43,"x_max":822,"o":"m 684 977 l 218 -14 l 142 0 l 601 990 l 684 977 m 282 484 l 277 404 l 50 400 l 47 483 l 118 483 l 117 892 l 43 891 l 49 977 l 208 972 l 205 483 l 282 484 m 822 247 l 817 167 l 738 167 l 736 83 l 804 84 l 799 4 l 597 0 l 594 81 l 650 81 l 650 165 l 426 163 l 423 243 l 625 576 l 742 576 l 739 247 l 822 247 m 648 247 l 648 469 l 514 245 l 648 247 z "},"¹":{"ha":301,"x_min":35,"x_max":274,"o":"m 274 484 l 269 404 l 42 400 l 39 483 l 110 483 l 110 892 l 35 891 l 41 977 l 201 972 l 198 483 l 274 484 z "},"¾":{"ha":977,"x_min":39,"x_max":943,"o":"m 806 977 l 340 -14 l 263 0 l 723 990 l 806 977 m 943 247 l 937 167 l 860 167 l 859 83 l 925 84 l 920 4 l 718 0 l 715 81 l 770 81 l 770 165 l 548 163 l 545 243 l 746 576 l 864 576 l 860 247 l 943 247 m 770 247 l 770 469 l 635 245 l 770 247 m 429 555 q 380 433 429 472 q 236 393 331 393 q 158 407 193 393 q 99 444 123 420 q 62 500 75 468 q 49 568 49 532 q 50 583 49 576 q 52 601 50 591 l 137 598 q 143 549 137 572 q 162 506 149 525 q 197 476 176 488 q 251 465 219 465 q 317 488 298 465 q 336 548 336 510 q 327 586 336 567 q 302 620 318 605 q 266 645 287 635 q 222 655 245 655 l 176 655 l 176 727 l 221 727 q 267 735 246 727 q 301 758 287 744 q 323 791 315 772 q 331 829 331 809 q 326 860 331 845 q 311 887 321 876 q 286 906 301 899 q 251 913 271 913 q 198 900 219 913 q 164 868 178 888 q 144 823 151 848 q 132 776 136 799 l 50 773 l 39 987 l 130 989 l 130 929 q 153 956 142 944 q 179 975 165 967 q 211 986 193 983 q 252 990 229 990 q 326 979 293 990 q 381 946 358 967 q 416 896 404 925 q 429 833 429 867 q 402 747 429 784 q 323 693 375 711 q 366 670 346 684 q 399 638 385 656 q 421 599 413 620 q 429 555 429 578 z "},"³":{"ha":460,"x_min":33,"x_max":422,"o":"m 422 555 q 373 433 422 472 q 231 393 325 393 q 153 407 187 393 q 94 444 118 420 q 56 500 69 468 q 43 568 43 532 q 43 583 43 576 q 45 601 43 591 l 130 598 q 136 549 130 572 q 156 506 142 525 q 191 476 169 488 q 244 465 212 465 q 310 488 291 465 q 330 548 330 510 q 320 586 330 567 q 296 620 311 605 q 260 645 281 635 q 216 655 239 655 l 170 655 l 170 727 l 216 727 q 260 735 240 727 q 295 758 281 744 q 317 791 309 772 q 326 829 326 809 q 321 860 326 845 q 306 887 316 876 q 280 906 296 899 q 244 913 265 913 q 192 900 212 913 q 158 868 171 888 q 137 823 144 848 q 125 776 130 799 l 43 773 l 33 987 l 123 989 l 123 929 q 146 956 135 944 q 172 975 158 967 q 204 986 186 983 q 247 990 222 990 q 320 979 288 990 q 375 946 353 967 q 410 896 397 925 q 422 833 422 867 q 396 747 422 784 q 317 693 370 711 q 359 670 340 684 q 392 638 378 656 q 414 599 406 620 q 422 555 422 578 z "},"²":{"ha":468,"x_min":38,"x_max":426,"o":"m 426 819 q 415 753 426 781 q 385 703 404 725 q 343 663 367 680 q 294 631 319 646 q 245 603 270 616 q 199 571 221 589 q 166 536 180 555 q 148 494 153 517 l 330 490 l 334 570 l 416 566 l 411 404 l 50 408 q 62 506 50 465 q 94 576 75 547 q 139 627 114 606 q 191 665 165 648 q 240 693 215 679 q 288 726 266 708 q 318 762 307 742 q 330 810 330 781 q 327 846 330 828 q 314 878 323 863 q 289 900 305 892 q 248 909 273 909 q 196 898 218 909 q 160 869 174 887 q 139 827 146 850 q 130 780 132 804 l 49 777 l 38 991 l 129 993 l 129 933 q 184 977 153 964 q 260 990 216 990 q 335 976 304 990 q 387 938 366 962 q 416 883 407 914 q 426 819 426 852 z "},"¦":{"ha":262,"x_min":70,"x_max":193,"o":"m 70 566 l 70 1096 l 193 1096 l 191 566 l 70 566 m 70 -140 l 70 404 l 189 404 l 186 -140 l 70 -140 z "},"−":{"ha":542,"x_min":59,"x_max":485,"o":"m 485 568 l 478 446 l 63 439 l 59 566 l 485 568 z "},"×":{"ha":470,"x_min":42,"x_max":431,"o":"m 431 411 l 340 330 l 244 423 l 136 311 l 45 397 l 155 509 l 42 618 l 129 709 l 241 598 l 343 701 l 426 610 l 330 511 l 431 411 z "},"!":{"ha":279,"x_min":52,"x_max":227,"o":"m 223 986 l 189 209 l 101 202 l 52 979 l 223 986 m 227 77 q 220 44 227 60 q 202 17 214 28 q 175 -1 191 5 q 142 -8 159 -8 q 108 -1 124 -8 q 80 17 92 5 q 62 44 68 28 q 55 77 55 60 q 62 111 55 95 q 80 139 68 127 q 108 157 92 151 q 142 164 124 164 q 175 157 159 164 q 202 139 191 151 q 220 111 214 127 q 227 77 227 95 z "},"\"":{"ha":370,"x_min":37,"x_max":334,"o":"m 50 688 l 37 977 l 157 977 l 144 688 l 50 688 m 227 688 l 213 977 l 334 977 l 320 688 l 227 688 z "},"#":{"ha":905,"x_min":34,"x_max":873,"o":"m 873 708 l 848 608 l 647 601 l 608 442 l 815 450 l 789 351 l 583 345 l 513 60 l 419 72 l 484 340 l 317 335 l 248 60 l 155 72 l 218 332 l 34 326 l 53 418 l 241 426 l 281 589 l 92 582 l 111 675 l 304 684 l 359 913 l 461 909 l 406 688 l 570 694 l 623 913 l 724 909 l 671 699 l 873 708 m 545 598 l 381 593 l 342 430 l 507 438 l 545 598 z "},"$":{"ha":525,"x_min":41,"x_max":481,"o":"m 304 132 l 313 -46 l 203 -46 l 216 146 q 173 176 192 157 q 137 224 155 195 l 136 140 l 41 152 l 58 401 l 138 397 q 153 337 143 368 q 180 280 163 306 q 223 238 197 254 q 283 221 248 221 q 363 244 340 221 q 385 320 385 268 q 375 369 385 349 q 349 403 366 389 q 310 426 332 416 q 262 445 287 435 q 177 475 217 460 q 108 512 138 490 q 62 567 79 534 q 45 655 45 601 q 90 785 45 739 q 214 838 134 831 l 203 1021 l 313 1021 l 301 830 q 347 800 329 821 q 385 747 366 780 l 387 837 l 481 836 l 469 559 l 384 562 q 371 625 379 592 q 347 684 363 657 q 307 727 332 710 q 244 745 281 745 q 172 720 195 745 q 148 651 148 696 q 158 601 148 619 q 186 570 169 582 q 228 549 204 557 q 278 532 252 541 q 356 501 319 517 q 420 461 393 484 q 465 404 448 437 q 481 323 481 370 q 438 185 481 236 q 304 132 395 135 z "},"%":{"ha":1023,"x_min":35,"x_max":989,"o":"m 460 689 q 456 628 460 661 q 442 562 452 595 q 417 498 433 529 q 377 444 401 467 q 321 406 353 420 q 245 392 288 392 q 169 406 201 392 q 113 444 136 420 q 74 498 90 468 q 51 562 59 529 q 39 628 42 595 q 35 689 35 661 q 39 753 35 719 q 52 821 43 787 q 77 885 61 854 q 118 939 94 916 q 177 976 143 962 q 258 990 212 990 q 329 975 298 990 q 382 935 359 960 q 419 878 404 909 q 443 812 434 846 q 456 746 452 779 q 460 689 460 714 m 374 689 q 372 728 374 705 q 365 776 370 751 q 351 825 360 801 q 329 868 342 849 q 296 900 315 888 q 251 911 277 911 q 202 900 222 911 q 168 869 182 888 q 144 827 153 850 q 131 778 136 803 q 124 730 125 753 q 122 689 122 707 q 124 649 122 671 q 130 603 125 627 q 144 555 135 578 q 166 514 153 532 q 200 485 180 496 q 248 473 220 473 q 292 485 273 473 q 325 515 311 496 q 348 557 338 534 q 363 605 357 581 q 372 651 369 629 q 374 689 374 673 m 784 977 l 319 -14 l 243 0 l 701 990 l 784 977 m 989 282 q 985 221 989 254 q 971 155 981 188 q 946 91 962 122 q 906 37 930 60 q 850 -1 882 14 q 774 -15 817 -15 q 698 -1 730 -15 q 642 37 665 14 q 603 91 618 60 q 579 155 588 122 q 568 221 571 188 q 564 282 564 254 q 568 346 564 312 q 581 414 572 380 q 606 478 590 448 q 647 532 623 509 q 706 569 672 555 q 787 583 741 583 q 858 568 827 583 q 911 528 888 553 q 948 471 933 503 q 972 405 963 439 q 985 339 981 372 q 989 282 989 307 m 903 282 q 901 321 903 298 q 894 369 899 345 q 880 418 889 394 q 858 461 871 442 q 825 493 844 481 q 780 505 806 505 q 731 493 751 505 q 696 463 711 481 q 673 420 682 444 q 660 371 665 396 q 653 323 654 347 q 651 282 651 300 q 653 242 651 264 q 659 196 654 220 q 673 149 664 172 q 695 107 682 125 q 729 78 709 89 q 777 66 749 66 q 821 78 802 66 q 853 108 840 90 q 877 150 867 127 q 892 198 886 174 q 901 244 898 222 q 903 282 903 266 z "},"&":{"ha":739,"x_min":22,"x_max":730,"o":"m 730 480 q 713 414 724 453 q 689 334 702 375 q 661 257 675 294 q 632 198 646 220 l 709 77 l 601 -7 l 543 84 q 500 45 526 61 q 446 18 475 28 q 386 3 416 8 q 328 -1 355 -1 q 272 4 300 -1 q 218 19 244 9 q 71 130 119 55 q 22 308 22 205 q 37 402 22 357 q 79 486 52 448 q 141 555 105 524 q 220 609 178 587 q 181 690 195 648 q 167 777 167 732 q 182 853 167 817 q 249 952 204 916 q 362 989 294 989 q 445 973 408 989 q 506 930 481 958 q 543 865 530 903 q 556 783 556 827 q 544 711 556 744 q 510 651 532 678 q 460 602 489 624 q 399 564 432 581 l 544 300 q 583 408 568 352 q 605 521 597 463 l 730 480 m 445 787 q 425 850 445 825 q 365 875 406 875 q 330 867 345 875 q 304 846 315 859 q 288 816 294 833 q 282 781 282 799 q 296 714 282 749 q 330 655 309 680 q 371 674 351 662 q 408 704 392 686 q 435 742 425 721 q 445 787 445 763 m 468 194 l 279 521 q 190 435 221 489 q 159 315 159 381 q 204 174 159 224 q 339 125 249 125 q 413 143 377 125 q 468 194 448 162 z "},"'":{"ha":194,"x_min":37,"x_max":157,"o":"m 50 688 l 37 977 l 157 977 l 144 688 l 50 688 z "},"(":{"ha":377,"x_min":19,"x_max":378,"o":"m 378 -39 l 351 -145 q 248 -78 294 -119 q 164 14 201 -37 q 100 124 127 65 q 55 245 73 182 q 28 370 37 307 q 19 492 19 433 q 28 615 19 552 q 56 739 37 677 q 102 859 74 801 q 168 967 130 917 q 253 1056 205 1017 q 358 1120 300 1095 l 378 1021 q 277 917 320 979 q 204 784 233 855 q 161 637 176 713 q 146 491 146 561 q 161 345 146 420 q 204 198 176 269 q 277 65 233 127 q 378 -39 320 3 z "},")":{"ha":377,"x_min":-1,"x_max":358,"o":"m 358 492 q 349 370 358 433 q 322 245 340 307 q 277 124 304 182 q 213 14 250 65 q 129 -78 176 -37 q 26 -145 82 -119 l -1 -39 q 100 65 56 3 q 173 198 144 127 q 217 345 203 269 q 232 491 232 420 q 217 637 232 561 q 173 784 203 713 q 100 917 144 855 q -1 1021 56 979 l 19 1120 q 124 1056 77 1095 q 210 967 172 1017 q 275 859 248 917 q 321 739 303 801 q 349 615 340 677 q 358 492 358 552 z "},"*":{"ha":587,"x_min":37,"x_max":546,"o":"m 298 572 l 163 395 l 66 467 l 201 614 l 37 688 l 78 800 l 243 707 l 235 922 l 355 922 l 347 709 l 505 800 l 546 688 l 391 617 l 530 467 l 431 395 l 298 572 z "},"+":{"ha":504,"x_min":39,"x_max":465,"o":"m 465 568 l 458 446 l 324 444 l 327 289 l 201 285 l 201 442 l 43 439 l 39 566 l 199 566 l 198 711 l 320 704 l 323 567 l 465 568 z "},",":{"ha":241,"x_min":34,"x_max":206,"o":"m 206 77 q 182 -16 206 26 q 115 -85 158 -59 l 80 -57 q 99 -35 88 -49 q 113 -8 111 -20 q 81 1 96 -7 q 57 19 67 8 q 40 45 46 31 q 34 77 34 60 q 41 111 34 95 q 59 139 47 127 q 86 157 71 151 q 119 164 102 164 q 153 157 137 164 q 181 139 169 151 q 199 111 193 127 q 206 77 206 95 z "},"-":{"ha":520,"x_min":48,"x_max":474,"o":"m 474 568 l 467 446 l 52 439 l 48 566 l 474 568 z "},".":{"ha":240,"x_min":34,"x_max":206,"o":"m 206 77 q 199 44 206 60 q 181 17 193 28 q 153 -1 169 5 q 119 -8 137 -8 q 86 -1 102 -8 q 59 17 71 5 q 41 44 47 28 q 34 77 34 60 q 41 111 34 95 q 59 139 47 127 q 86 157 71 151 q 119 164 102 164 q 153 157 137 164 q 181 139 169 151 q 199 111 193 127 q 206 77 206 95 z "},"/":{"ha":588,"x_min":25,"x_max":568,"o":"m 568 977 l 128 -14 l 25 0 l 443 990 l 568 977 z "},":":{"ha":297,"x_min":62,"x_max":235,"o":"m 235 528 q 228 494 235 510 q 209 466 221 478 q 181 448 197 454 q 148 441 165 441 q 115 448 130 441 q 87 466 99 454 q 69 494 76 478 q 62 528 62 510 q 69 561 62 545 q 87 588 76 576 q 115 606 99 600 q 148 613 130 613 q 181 606 165 613 q 209 588 197 600 q 228 561 221 576 q 235 528 235 545 m 235 77 q 228 44 235 60 q 209 17 221 28 q 181 -1 197 5 q 148 -8 165 -8 q 115 -1 130 -8 q 87 17 99 5 q 69 44 76 28 q 62 77 62 60 q 69 111 62 95 q 87 139 76 127 q 115 157 99 151 q 148 164 130 164 q 181 157 165 164 q 209 139 197 151 q 228 111 221 127 q 235 77 235 95 z "},";":{"ha":298,"x_min":62,"x_max":235,"o":"m 235 528 q 228 494 235 510 q 209 466 221 478 q 181 448 197 454 q 148 441 165 441 q 115 448 130 441 q 87 466 99 454 q 69 494 76 478 q 62 528 62 510 q 69 561 62 545 q 87 588 76 576 q 115 606 99 600 q 148 613 130 613 q 181 606 165 613 q 209 588 197 600 q 228 561 221 576 q 235 528 235 545 m 235 77 q 211 -16 235 26 q 144 -85 186 -59 l 109 -57 q 128 -35 117 -49 q 141 -8 139 -20 q 110 1 124 -7 q 85 19 96 8 q 68 45 75 31 q 62 77 62 60 q 69 111 62 95 q 87 139 76 127 q 115 157 99 151 q 148 164 130 164 q 181 157 165 164 q 209 139 197 151 q 228 111 221 127 q 235 77 235 95 z "},"<":{"ha":709,"x_min":31,"x_max":654,"o":"m 654 247 l 592 129 l 43 429 l 31 545 l 592 864 l 654 746 l 176 492 l 654 247 z "},"=":{"ha":551,"x_min":64,"x_max":490,"o":"m 490 433 l 484 311 l 68 304 l 64 430 l 490 433 m 490 704 l 484 582 l 68 575 l 64 701 l 490 704 z "},">":{"ha":709,"x_min":54,"x_max":678,"o":"m 678 545 l 666 429 l 117 129 l 54 247 l 533 492 l 54 746 l 117 864 l 678 545 z "},"?":{"ha":616,"x_min":35,"x_max":581,"o":"m 581 689 q 567 572 581 630 q 524 467 553 515 q 449 384 494 418 q 342 335 404 349 l 322 199 l 243 199 l 223 437 l 290 437 q 359 460 329 437 q 410 519 389 484 q 440 595 430 555 q 451 669 451 635 q 445 730 451 696 q 426 791 439 763 q 388 839 412 820 q 329 859 364 859 q 253 837 283 859 q 203 782 222 815 q 173 708 184 748 q 157 631 163 668 l 50 627 l 35 972 l 154 975 l 155 863 q 190 914 173 892 q 227 950 207 936 q 274 971 248 964 q 336 978 300 978 q 447 955 400 978 q 523 892 493 932 q 567 801 553 853 q 581 689 581 748 m 366 77 q 359 44 366 60 q 340 17 352 28 q 312 -1 328 5 q 279 -8 296 -8 q 245 -1 261 -8 q 218 17 230 5 q 200 44 207 28 q 193 77 193 60 q 200 111 193 95 q 219 139 207 127 q 246 157 231 151 q 279 164 261 164 q 312 157 296 164 q 340 139 328 151 q 359 111 352 127 q 366 77 366 95 z "},"@":{"ha":782,"x_min":49,"x_max":745,"o":"m 745 530 q 726 428 745 476 q 674 342 708 379 q 594 284 641 306 q 492 263 548 263 l 487 309 q 435 276 465 290 q 374 263 404 263 q 328 272 348 263 q 296 295 309 280 q 276 331 283 311 q 270 377 270 352 q 282 430 270 408 q 315 468 295 453 q 362 490 336 483 q 416 498 389 498 q 441 496 429 498 q 467 491 454 494 l 467 515 q 466 537 467 522 q 461 567 465 552 q 450 594 457 583 q 431 606 443 606 q 407 596 418 606 q 386 571 395 585 q 369 542 376 557 q 358 518 361 527 l 278 522 l 275 669 l 354 670 l 354 613 q 367 636 359 625 q 387 655 376 647 q 410 669 397 664 q 437 674 423 674 q 491 667 469 674 q 525 644 512 659 q 543 605 538 629 q 548 549 548 582 q 547 442 548 496 q 540 335 545 388 q 566 339 553 335 q 590 351 578 344 q 629 386 613 366 q 655 429 645 406 q 670 478 665 452 q 674 530 674 505 q 609 739 674 669 q 403 808 544 808 q 277 781 330 808 q 191 708 224 754 q 141 602 157 663 q 125 476 125 542 q 146 346 125 408 q 209 238 168 284 q 307 164 250 191 q 437 137 365 137 q 525 148 481 137 q 606 182 568 159 l 637 121 q 534 77 591 94 q 423 60 477 60 q 269 94 338 60 q 151 187 199 129 q 75 320 102 245 q 49 476 49 395 q 72 629 49 556 q 140 756 95 701 q 251 845 184 812 q 403 878 317 878 q 551 854 487 878 q 657 787 614 831 q 723 678 701 743 q 745 530 745 613 m 469 362 l 469 420 q 449 430 462 428 q 426 433 435 433 q 397 430 411 433 q 372 419 383 427 q 355 401 361 412 q 349 373 349 390 q 362 340 349 351 q 396 330 376 330 q 415 331 403 330 q 439 337 427 333 q 460 347 452 340 q 469 362 469 353 z "},"A":{"ha":651,"x_min":-5,"x_max":660,"o":"m 660 110 l 650 -19 l 375 -12 l 368 119 l 452 117 l 417 315 l 238 307 l 210 130 l 288 123 l 277 1 l 2 1 l -5 133 l 79 130 l 227 854 l 158 852 l 151 967 l 497 974 l 490 865 l 422 863 l 576 117 l 660 110 m 398 420 l 325 837 l 257 420 l 398 420 z "},"B":{"ha":685,"x_min":43,"x_max":661,"o":"m 661 274 q 637 158 661 210 q 574 68 614 106 q 479 10 534 31 q 363 -11 425 -11 q 204 -8 283 -11 q 46 -1 125 -5 l 54 130 l 132 127 l 130 845 l 53 841 l 43 972 q 181 982 112 980 q 320 985 250 985 q 437 965 384 985 q 529 908 491 945 q 589 819 568 871 q 610 700 610 766 q 583 591 610 637 q 502 513 555 545 q 620 419 578 479 q 661 274 661 359 m 486 704 q 445 817 486 777 q 332 857 405 857 q 315 857 327 857 q 290 857 302 857 q 266 856 277 857 q 254 854 256 855 l 251 562 q 273 560 262 560 q 296 560 284 560 l 343 560 q 448 599 410 562 q 486 704 486 636 m 534 277 q 524 346 534 318 q 495 392 513 374 q 452 420 477 410 q 398 434 427 429 q 338 438 369 438 q 275 438 307 439 l 252 438 l 255 118 q 313 117 283 118 q 370 117 342 117 q 434 129 404 117 q 486 162 464 140 q 522 213 509 183 q 534 277 534 242 z "},"C":{"ha":701,"x_min":40,"x_max":667,"o":"m 667 979 l 652 633 l 545 637 q 534 687 541 661 q 518 737 528 713 q 494 784 508 762 q 463 822 481 806 q 421 849 444 839 q 370 859 398 859 q 295 840 327 859 q 241 791 264 822 q 204 722 219 761 q 182 642 190 683 q 171 562 174 602 q 168 491 168 522 q 170 423 168 462 q 181 342 173 384 q 202 261 189 301 q 237 189 216 220 q 288 138 258 157 q 359 118 318 118 q 442 140 408 118 q 496 196 475 161 q 527 272 517 230 q 541 357 537 315 l 648 357 q 630 221 648 287 q 577 104 613 155 q 486 23 541 54 q 355 -8 431 -8 q 250 16 296 -8 q 169 79 204 39 q 110 170 134 119 q 70 276 85 221 q 47 386 54 331 q 40 486 40 440 q 46 594 40 537 q 67 706 53 651 q 106 812 82 762 q 166 900 130 862 q 251 961 202 938 q 363 983 300 983 q 470 954 427 983 q 546 871 513 924 l 547 982 l 667 979 z "},"D":{"ha":698,"x_min":45,"x_max":655,"o":"m 655 477 q 647 354 655 418 q 620 230 640 290 q 565 119 600 170 q 477 33 531 67 q 407 -1 445 11 q 331 -12 370 -12 l 327 -12 l 54 -8 l 50 117 l 130 117 l 129 831 l 52 829 l 45 960 q 163 966 104 964 q 282 967 222 967 l 359 967 q 467 944 421 967 q 546 882 513 921 q 600 793 579 844 q 633 689 621 743 q 650 579 646 634 q 655 477 655 525 m 530 494 l 530 506 q 527 563 530 529 q 517 633 524 596 q 498 707 511 671 q 469 773 486 744 q 426 821 451 803 q 369 840 401 840 l 326 840 q 289 840 307 840 q 252 838 271 840 l 245 110 q 272 108 259 109 q 298 107 285 107 q 369 111 334 107 q 434 140 407 117 q 478 196 460 163 q 507 269 496 229 q 522 349 517 309 q 529 427 528 389 q 530 494 530 465 z "},"E":{"ha":646,"x_min":44,"x_max":612,"o":"m 612 704 l 512 697 l 498 837 l 252 831 l 249 529 l 455 529 l 455 431 l 248 419 l 245 117 l 498 126 l 498 275 l 599 275 l 606 5 l 54 -8 l 50 117 l 130 117 l 128 831 l 44 829 l 51 960 l 606 967 l 612 704 z "},"F":{"ha":617,"x_min":45,"x_max":606,"o":"m 606 677 l 492 670 l 486 823 l 245 818 l 248 509 l 450 509 l 450 411 l 250 399 l 252 125 l 349 119 l 349 -1 l 54 -8 l 50 125 l 130 125 l 129 818 l 45 815 l 52 947 l 600 954 l 606 677 z "},"G":{"ha":697,"x_min":41,"x_max":651,"o":"m 651 359 q 632 228 651 293 q 576 110 614 162 q 484 24 539 57 q 355 -8 429 -8 q 251 16 297 -8 q 170 79 205 39 q 111 170 135 119 q 71 276 86 221 q 48 386 55 331 q 41 486 41 440 q 46 591 41 535 q 65 703 52 648 q 101 809 78 758 q 158 898 123 859 q 239 960 192 937 q 350 983 287 983 q 407 976 382 983 q 451 953 431 968 q 487 918 471 939 q 519 871 503 897 l 521 982 l 640 979 l 625 633 l 518 637 q 502 710 513 671 q 473 782 492 749 q 426 837 455 814 q 355 859 397 859 q 283 840 313 859 q 232 790 253 821 q 199 721 212 760 q 179 641 186 682 q 170 561 172 600 q 168 491 168 522 q 171 423 168 462 q 181 342 174 384 q 203 261 189 301 q 238 189 216 220 q 289 138 259 157 q 359 118 319 118 q 418 131 392 118 q 463 165 444 144 q 495 214 482 186 q 517 272 509 242 q 529 332 525 302 q 532 388 532 362 l 532 401 l 340 407 l 340 500 l 643 507 q 649 433 646 471 q 651 359 651 396 z "},"H":{"ha":810,"x_min":33,"x_max":758,"o":"m 758 836 l 688 838 l 674 117 l 753 117 l 757 -8 l 456 -1 l 456 121 l 552 117 l 556 373 l 247 373 l 247 132 l 327 132 l 330 5 l 35 12 l 35 134 l 132 132 l 125 818 l 33 825 l 35 947 l 319 947 l 319 815 l 247 818 l 247 479 l 555 490 l 557 838 l 467 845 l 469 967 l 758 967 l 758 836 z "},"I":{"ha":376,"x_min":44,"x_max":340,"o":"m 340 134 l 333 12 l 54 5 l 50 132 l 130 132 l 128 825 l 44 822 l 51 954 l 319 954 l 330 831 l 252 825 l 245 132 l 340 134 z "},"J":{"ha":547,"x_min":16,"x_max":528,"o":"m 528 842 l 427 842 l 427 232 q 414 130 427 176 q 374 53 401 85 q 304 3 347 20 q 202 -15 262 -15 q 120 3 155 -15 q 62 52 85 21 q 28 121 39 82 q 16 203 16 161 q 17 286 16 244 q 22 368 18 327 l 148 368 q 142 288 144 328 q 140 209 140 249 q 143 174 140 193 q 156 139 147 155 q 178 112 164 123 q 212 102 192 102 q 259 114 241 102 q 287 145 277 125 q 300 189 297 164 q 304 237 304 213 l 304 842 l 182 834 l 175 964 l 528 972 l 528 842 z "},"K":{"ha":700,"x_min":44,"x_max":705,"o":"m 705 967 l 694 838 l 623 838 l 353 499 l 611 117 l 686 121 l 692 -1 l 413 -15 l 402 110 l 482 110 l 248 467 l 245 132 l 340 134 l 333 12 l 54 5 l 50 132 l 130 132 l 128 825 l 44 822 l 51 954 l 319 954 l 330 831 l 252 825 l 249 533 l 493 845 l 408 856 l 416 974 l 705 967 z "},"L":{"ha":607,"x_min":44,"x_max":592,"o":"m 592 275 l 585 -1 l 51 5 l 44 137 l 128 134 l 130 829 l 50 829 l 54 954 l 348 954 l 348 833 l 252 829 l 245 134 l 471 129 l 478 282 l 592 275 z "},"M":{"ha":951,"x_min":24,"x_max":927,"o":"m 927 964 l 923 834 l 835 838 l 821 121 l 890 121 l 893 -8 l 616 -8 l 619 121 l 702 121 l 705 765 l 534 65 l 401 61 l 268 764 l 258 132 l 338 132 l 341 5 l 26 12 l 26 134 l 136 132 l 143 818 l 24 825 l 26 947 l 357 947 l 470 273 l 633 960 l 927 964 z "},"N":{"ha":791,"x_min":39,"x_max":768,"o":"m 768 845 l 690 838 l 669 -5 l 551 -8 l 246 730 l 253 132 l 345 134 l 345 12 l 55 5 l 51 132 l 131 132 l 123 825 l 39 822 l 45 954 l 273 954 l 561 233 l 561 838 l 475 836 l 482 967 l 759 967 l 768 845 z "},"O":{"ha":681,"x_min":43,"x_max":636,"o":"m 636 528 q 633 410 636 473 q 618 287 629 348 q 586 169 607 226 q 529 70 564 113 q 441 1 493 27 q 316 -24 389 -24 q 217 -4 259 -24 q 145 52 175 17 q 95 132 115 86 q 64 226 75 177 q 48 326 52 275 q 43 419 43 376 q 47 538 43 474 q 64 665 52 602 q 98 786 76 728 q 156 889 120 844 q 245 961 193 934 q 369 987 297 987 q 468 965 426 987 q 540 906 511 943 q 588 822 570 869 q 618 723 607 774 q 632 622 629 672 q 636 528 636 571 m 503 519 q 502 577 503 543 q 496 649 500 611 q 481 724 491 686 q 455 792 472 762 q 414 841 439 823 q 354 860 389 860 q 278 836 309 860 q 227 772 248 812 q 195 684 207 733 q 178 585 184 635 q 172 488 173 534 q 171 408 171 441 q 172 351 171 383 q 179 285 174 319 q 194 219 184 252 q 221 162 204 187 q 262 121 237 137 q 323 106 288 106 q 397 128 367 106 q 448 187 428 151 q 479 269 468 223 q 496 360 490 314 q 502 448 501 406 q 503 519 503 490 z "},"P":{"ha":655,"x_min":45,"x_max":642,"o":"m 642 692 q 614 551 642 608 q 539 459 587 494 q 427 409 492 425 q 286 393 362 394 l 248 393 l 245 132 l 340 134 l 334 12 l 54 5 l 50 132 l 130 132 l 129 842 l 52 840 l 45 971 q 195 976 121 975 q 346 977 270 977 q 462 956 408 977 q 556 898 516 935 q 618 808 595 860 q 642 692 642 755 m 517 686 q 504 751 517 721 q 470 802 492 781 q 418 837 448 824 q 354 849 389 849 l 311 849 l 252 849 l 250 509 l 282 509 q 371 514 329 509 q 446 538 414 520 q 498 592 479 557 q 517 686 517 627 z "},"Q":{"ha":681,"x_min":44,"x_max":635,"o":"m 635 506 q 634 427 635 469 q 627 340 632 385 q 612 251 621 295 q 587 165 602 206 q 549 90 571 125 q 496 30 526 55 q 546 -24 517 2 q 604 -66 574 -50 l 512 -168 q 445 -99 474 -138 q 393 -18 416 -60 q 357 -23 374 -22 q 321 -24 339 -24 q 219 -2 262 -24 q 145 56 176 20 q 95 140 115 93 q 64 239 75 188 q 48 343 53 291 q 44 439 44 395 q 48 555 44 494 q 64 678 52 617 q 97 795 75 739 q 155 894 119 851 q 241 962 190 937 q 364 987 293 987 q 466 964 423 987 q 539 902 509 941 q 588 812 570 863 q 617 709 607 762 q 632 602 628 655 q 635 506 635 549 m 503 492 q 501 553 503 517 q 495 631 500 590 q 480 713 490 672 q 453 786 471 753 q 410 840 436 819 q 347 860 384 860 q 273 837 302 860 q 224 776 243 814 q 194 691 205 739 q 179 596 184 644 q 174 504 174 549 q 173 429 173 460 q 173 395 173 412 q 174 361 173 378 q 259 336 220 355 q 330 291 298 318 q 386 227 361 263 q 427 149 410 191 q 468 221 452 178 q 491 313 483 264 q 500 408 498 361 q 503 492 503 456 m 329 106 q 272 183 309 150 q 193 236 236 216 q 211 187 200 210 q 239 145 222 163 q 277 116 255 127 q 329 106 299 105 z "},"R":{"ha":677,"x_min":43,"x_max":648,"o":"m 648 141 l 642 12 l 396 -8 l 380 117 l 431 117 l 339 434 l 247 434 l 244 117 l 326 121 l 319 -8 l 60 -8 l 49 117 l 129 117 l 127 842 l 50 840 l 43 971 q 195 976 119 975 q 347 977 271 977 q 461 960 408 977 q 554 910 515 943 q 617 827 594 877 q 640 712 640 778 q 628 626 640 669 q 592 547 616 583 q 534 484 568 511 q 454 448 499 458 l 553 138 l 648 141 m 515 707 q 504 768 515 741 q 471 812 492 794 q 421 840 450 831 q 359 849 393 849 l 309 849 l 251 849 l 248 549 l 281 549 q 368 553 326 549 q 443 572 410 557 q 495 620 475 588 q 515 707 515 651 z "},"S":{"ha":646,"x_min":43,"x_max":594,"o":"m 594 258 q 580 154 594 203 q 538 70 566 106 q 466 13 509 34 q 362 -8 422 -8 q 298 -2 326 -8 q 246 19 269 5 q 202 54 222 33 q 164 106 182 76 l 163 1 l 43 18 l 65 328 l 165 324 q 184 249 172 288 q 219 178 197 210 q 272 124 240 145 q 347 103 303 103 q 407 115 382 103 q 446 146 431 126 q 467 195 460 167 q 473 255 473 222 q 461 320 473 292 q 429 371 450 349 q 379 409 408 393 q 319 437 351 425 q 247 464 281 450 q 183 495 213 478 q 129 534 153 513 q 86 583 104 555 q 59 646 68 611 q 49 727 49 682 q 66 831 49 783 q 115 912 83 878 q 192 966 146 947 q 294 985 237 985 q 356 978 330 985 q 403 957 382 971 q 440 921 423 943 q 475 871 457 900 l 476 982 l 594 979 l 579 633 l 473 637 q 463 689 469 663 q 448 741 457 716 q 425 789 438 766 q 394 829 412 812 q 353 856 376 846 q 298 865 329 865 q 244 853 267 865 q 207 822 222 842 q 185 775 192 802 q 178 722 178 749 q 191 654 178 682 q 225 607 203 627 q 277 572 248 587 q 339 547 306 558 q 436 503 390 528 q 517 444 482 478 q 573 363 553 409 q 594 258 594 317 z "},"T":{"ha":624,"x_min":26,"x_max":601,"o":"m 601 680 l 496 666 l 490 849 l 377 845 l 370 132 l 465 134 l 458 12 l 179 5 l 175 132 l 255 132 l 254 838 l 132 830 l 138 659 l 26 659 l 33 954 l 587 974 l 601 680 z "},"U":{"ha":749,"x_min":26,"x_max":725,"o":"m 725 859 l 648 852 l 648 490 q 644 381 647 439 q 631 266 641 323 q 602 156 621 209 q 550 64 583 104 q 471 0 518 24 q 357 -24 424 -24 q 259 -3 300 -24 q 189 55 218 19 q 142 139 160 92 q 115 236 125 186 q 102 337 105 287 q 98 430 98 387 q 103 630 98 530 q 111 831 107 730 l 26 829 l 33 960 l 302 960 l 313 838 l 234 831 q 225 623 231 727 q 220 415 220 519 q 221 358 220 390 q 226 291 222 326 q 239 223 230 256 q 263 164 248 190 q 304 122 279 138 q 364 106 328 106 q 433 126 405 106 q 478 180 460 146 q 505 255 496 213 q 519 340 515 297 q 524 423 523 382 q 524 492 524 463 l 524 852 l 440 849 l 447 981 l 715 981 l 725 859 z "},"V":{"ha":648,"x_min":-7,"x_max":658,"o":"m 658 852 l 574 845 l 399 -12 l 245 -4 l 77 831 l -7 829 l 0 960 l 275 960 l 286 838 l 208 831 l 323 138 l 450 845 l 366 842 l 373 974 l 648 981 l 658 852 z "},"W":{"ha":874,"x_min":6,"x_max":870,"o":"m 870 849 l 786 852 l 686 -4 l 512 -12 l 435 650 l 349 8 l 163 3 l 90 831 l 6 829 l 13 960 l 261 960 l 272 838 l 220 831 l 261 145 l 367 822 l 325 829 l 332 947 l 539 954 l 547 842 l 501 829 l 602 165 l 656 852 l 604 859 l 615 981 l 863 981 l 870 849 z "},"X":{"ha":685,"x_min":12,"x_max":676,"o":"m 676 838 l 592 831 l 405 479 l 580 110 l 676 114 l 668 -8 l 382 -15 l 378 110 l 458 110 l 337 373 l 223 117 l 313 121 l 306 -1 l 18 -8 l 14 117 l 94 117 l 273 475 l 96 831 l 12 829 l 18 960 l 294 960 l 304 838 l 226 831 l 341 575 l 469 831 l 385 829 l 391 960 l 667 967 l 676 838 z "},"Y":{"ha":650,"x_min":-7,"x_max":658,"o":"m 658 838 l 574 831 l 378 355 l 376 132 l 471 134 l 464 12 l 184 5 l 180 132 l 260 132 l 259 358 l 77 831 l -7 829 l 0 960 l 275 960 l 286 838 l 208 831 l 323 465 l 450 831 l 366 829 l 373 960 l 648 967 l 658 838 z "},"Z":{"ha":582,"x_min":37,"x_max":546,"o":"m 546 12 l 45 5 l 41 132 l 409 838 l 150 837 l 157 666 l 37 666 l 44 960 l 538 963 l 539 831 l 170 132 l 433 133 l 433 308 l 539 315 l 546 12 z "},"[":{"ha":411,"x_min":68,"x_max":401,"o":"m 401 -153 l 68 -146 l 68 1118 l 401 1131 l 401 996 l 193 1002 l 193 -33 l 401 -19 l 401 -153 z "},"\\":{"ha":588,"x_min":20,"x_max":563,"o":"m 563 0 l 458 -14 l 20 977 l 144 990 l 563 0 z "},"]":{"ha":411,"x_min":9,"x_max":343,"o":"m 343 -146 l 9 -153 l 9 -19 l 217 -33 l 217 1002 l 9 996 l 9 1131 l 343 1118 l 343 -146 z "},"^":{"ha":509,"x_min":0,"x_max":509,"o":"m 509 560 l 384 540 l 254 879 l 119 533 l 0 553 l 176 954 l 317 967 l 509 560 z "},"_":{"ha":412,"x_min":-7,"x_max":419,"o":"m 419 -56 l 412 -178 l -3 -184 l -7 -58 l 419 -56 z "},"`":{"ha":214,"x_min":0,"x_max":214,"o":"m 214 774 l 152 754 l 0 911 l 126 945 l 214 774 z "},"a":{"ha":519,"x_min":42,"x_max":502,"o":"m 502 115 l 499 7 l 359 -7 l 353 72 q 320 42 338 56 q 280 17 301 28 q 236 0 258 6 q 191 -7 213 -7 q 120 10 149 -7 q 74 54 92 26 q 50 117 57 81 q 42 189 42 152 q 57 273 42 235 q 100 337 73 311 q 166 379 127 364 q 251 393 205 393 q 287 391 269 393 q 323 382 305 389 q 324 404 324 394 q 324 426 324 414 q 323 446 324 432 q 321 477 323 460 q 316 513 319 494 q 307 547 313 532 q 293 572 301 562 q 274 582 286 582 q 249 573 261 582 q 226 550 237 564 q 206 519 215 536 q 189 485 197 502 q 176 453 182 468 q 168 430 171 439 l 53 435 l 49 688 l 161 690 l 161 591 q 180 628 168 609 q 207 662 191 647 q 240 687 222 677 q 281 697 259 697 q 364 682 332 697 q 412 638 395 666 q 434 570 429 610 q 439 483 439 530 q 438 299 439 391 q 429 115 437 208 l 502 115 m 327 161 l 327 260 q 299 278 317 274 q 264 282 280 282 q 185 258 216 282 q 155 182 155 234 q 172 128 155 150 q 222 106 189 106 q 251 109 233 106 q 286 119 269 112 q 315 136 302 125 q 327 161 327 146 z "},"b":{"ha":565,"x_min":6,"x_max":528,"o":"m 528 372 q 526 301 528 341 q 515 219 523 261 q 494 137 507 177 q 459 64 481 96 q 408 13 438 33 q 337 -7 378 -7 q 297 -1 317 -7 q 258 16 277 5 q 225 41 240 27 q 199 72 210 56 l 188 -7 l 6 0 l 7 113 l 97 109 l 100 849 l 7 846 l 6 971 l 229 971 l 222 635 q 248 660 233 648 q 279 683 262 673 q 314 698 296 692 q 349 704 332 704 q 417 687 389 704 q 466 643 446 671 q 498 581 486 616 q 517 509 511 546 q 526 436 524 472 q 528 372 528 400 m 409 373 q 407 433 409 399 q 394 499 404 468 q 363 551 384 530 q 307 572 343 572 q 273 562 289 572 q 247 535 258 551 q 229 501 235 519 q 223 467 223 482 q 221 339 221 403 q 222 212 222 276 q 227 175 222 192 q 243 144 233 157 q 270 123 254 131 q 306 115 286 115 q 349 130 332 115 q 378 167 367 144 q 396 219 390 190 q 405 276 402 248 q 409 330 408 304 q 409 373 409 356 z "},"c":{"ha":500,"x_min":35,"x_max":466,"o":"m 466 693 l 459 415 l 349 418 q 344 466 349 437 q 330 522 340 494 q 302 569 319 549 q 257 589 284 589 q 220 574 235 589 q 195 538 205 560 q 178 488 184 515 q 169 433 172 460 q 165 382 166 406 q 165 345 165 359 q 165 306 165 329 q 168 256 165 282 q 175 204 170 230 q 191 157 180 178 q 217 123 201 136 q 257 110 233 110 q 303 129 285 110 q 333 175 321 148 q 348 231 344 201 q 353 281 353 260 l 462 281 q 450 184 461 235 q 413 92 438 134 q 350 22 389 50 q 257 -5 311 -5 q 175 10 210 -5 q 115 53 140 26 q 75 115 90 79 q 50 190 59 151 q 38 269 41 229 q 35 347 35 310 q 39 419 35 380 q 53 497 43 458 q 79 574 62 536 q 119 640 95 611 q 175 685 143 668 q 250 703 208 703 q 315 685 284 703 q 367 642 345 667 l 380 700 l 466 693 z "},"d":{"ha":564,"x_min":35,"x_max":557,"o":"m 557 -1 l 375 -7 l 366 72 q 306 14 343 35 q 226 -7 269 -7 q 154 11 184 -7 q 102 58 123 28 q 67 124 81 87 q 47 201 54 161 q 37 278 40 240 q 35 347 35 316 q 39 417 35 378 q 53 496 43 456 q 78 574 62 536 q 118 642 94 612 q 173 690 141 672 q 246 708 205 708 q 307 691 278 708 q 352 648 336 675 l 352 869 l 230 869 l 230 986 l 478 982 l 467 109 l 557 111 l 557 -1 m 348 499 q 336 526 344 511 q 318 554 329 541 q 295 577 308 568 q 267 586 281 586 q 228 573 244 586 q 199 540 211 560 q 180 494 188 519 q 168 443 172 469 q 162 395 164 418 q 161 357 161 372 q 161 319 161 342 q 163 270 161 296 q 170 215 165 243 q 184 165 175 188 q 209 129 194 143 q 246 115 224 115 q 279 125 263 115 q 307 150 294 135 q 330 180 320 164 q 345 210 340 197 l 348 499 z "},"e":{"ha":487,"x_min":36,"x_max":452,"o":"m 452 411 q 448 302 452 355 l 157 297 q 158 263 157 283 q 162 221 159 243 q 171 177 165 199 q 186 139 177 156 q 210 111 196 121 q 243 100 224 100 q 280 112 264 100 q 305 139 295 123 q 320 176 315 156 q 328 213 326 195 l 446 213 q 425 135 439 174 q 387 64 411 96 q 330 12 363 32 q 250 -8 296 -8 q 169 10 203 -8 q 111 58 134 28 q 72 126 87 87 q 49 207 57 165 q 39 291 41 249 q 36 369 36 333 q 40 439 36 401 q 52 515 43 477 q 76 587 61 552 q 115 647 92 621 q 170 689 138 673 q 243 705 201 705 q 357 683 315 705 q 419 620 398 660 q 447 527 441 581 q 452 411 452 473 m 334 450 q 332 496 334 471 q 321 545 330 522 q 296 584 313 568 q 253 600 280 600 q 213 589 229 600 q 186 562 197 578 q 169 523 175 545 q 160 478 163 500 q 156 433 157 455 q 155 395 155 412 l 330 395 q 334 450 334 423 z "},"f":{"ha":358,"x_min":26,"x_max":458,"o":"m 458 1006 l 455 887 q 358 882 397 888 q 295 854 319 875 q 259 794 271 833 q 246 694 248 756 l 337 694 l 330 566 l 248 571 l 248 113 l 326 115 l 322 3 l 36 3 l 36 122 l 125 125 l 125 575 l 26 575 l 29 694 l 124 694 q 138 826 125 768 q 183 925 151 884 q 268 987 214 966 q 402 1009 321 1009 q 430 1008 416 1009 q 458 1006 444 1008 z "},"g":{"ha":489,"x_min":31,"x_max":515,"o":"m 515 718 l 410 624 q 428 545 423 588 q 433 464 433 502 q 421 371 433 414 q 384 297 409 329 q 321 244 359 264 q 231 218 283 224 q 219 210 225 215 q 207 200 212 205 q 198 187 201 194 q 194 174 194 180 q 198 159 194 168 q 208 142 202 151 q 219 127 213 134 q 228 115 224 119 q 318 106 273 115 q 397 76 362 98 q 453 20 432 55 q 475 -69 475 -16 q 453 -152 475 -115 q 398 -217 432 -190 q 321 -260 363 -245 q 236 -275 278 -275 q 154 -262 192 -275 q 89 -224 117 -249 q 46 -164 62 -199 q 31 -83 31 -128 q 52 11 31 -33 q 115 83 73 55 q 94 124 103 102 q 84 168 84 146 q 96 214 84 192 q 129 248 109 237 q 89 292 106 265 q 61 348 73 318 q 45 410 50 378 q 39 469 39 441 q 52 569 39 524 q 90 646 64 614 q 156 697 115 679 q 252 715 196 715 q 279 713 267 715 q 302 709 291 712 q 323 702 313 706 q 347 690 334 697 l 433 799 l 515 718 m 320 472 q 316 514 320 491 q 301 556 311 536 q 275 588 291 575 q 235 601 258 601 q 191 590 207 601 q 166 561 174 578 q 155 520 157 543 q 152 476 152 498 q 156 433 152 458 q 169 385 159 408 q 194 346 178 361 q 235 330 210 330 q 275 345 258 330 q 301 382 291 360 q 316 429 311 404 q 320 472 320 453 m 366 -66 q 353 -26 366 -43 q 321 0 340 -10 q 279 15 302 10 q 237 19 256 19 q 170 -9 193 19 q 148 -80 148 -37 q 159 -117 148 -102 q 186 -141 170 -132 q 222 -154 202 -150 q 260 -159 242 -159 q 298 -152 279 -159 q 333 -134 317 -146 q 357 -104 348 -121 q 366 -66 366 -87 z "},"h":{"ha":567,"x_min":-18,"x_max":551,"o":"m 551 92 l 537 -18 l 309 -7 l 307 102 l 366 109 q 370 296 368 203 q 372 483 372 389 q 369 517 372 500 q 358 550 366 535 q 337 574 351 564 q 304 583 324 583 q 268 573 283 583 q 240 548 252 564 q 219 512 228 532 q 205 471 211 492 q 197 430 200 450 q 194 395 195 410 q 190 252 191 323 q 187 109 189 180 l 247 109 l 254 -1 l 19 -4 l 19 122 l 85 125 l 81 873 l -18 880 l -15 996 l 195 1002 l 199 617 q 228 654 211 637 q 265 683 245 671 q 309 702 286 695 q 355 709 332 709 q 408 699 386 709 q 444 671 429 688 q 468 630 459 654 q 481 582 476 607 q 487 530 486 556 q 488 480 488 504 q 486 289 488 384 q 481 98 484 194 l 551 92 z "},"i":{"ha":310,"x_min":16,"x_max":294,"o":"m 237 853 q 230 820 237 836 q 212 793 223 804 q 184 774 200 781 q 151 768 169 768 q 118 774 134 768 q 91 793 102 781 q 73 820 79 804 q 66 853 66 836 q 73 886 66 871 q 91 913 79 902 q 118 932 102 925 q 151 939 134 939 q 184 932 169 939 q 212 913 200 925 q 230 886 223 902 q 237 853 237 871 m 294 95 l 290 -18 l 41 -7 l 41 111 l 98 115 l 98 572 l 16 572 l 18 690 l 237 690 l 220 102 l 294 95 z "},"j":{"ha":272,"x_min":-124,"x_max":223,"o":"m 223 853 q 216 820 223 836 q 198 793 210 804 q 170 774 186 781 q 136 768 154 768 q 103 774 119 768 q 76 793 87 781 q 58 820 64 804 q 51 853 51 836 q 58 887 51 871 q 76 915 64 903 q 103 933 87 926 q 136 940 119 940 q 170 933 154 940 q 198 915 186 926 q 216 887 210 903 q 223 853 223 871 m 214 693 l 210 35 q 196 -96 209 -37 q 150 -195 182 -154 q 64 -257 118 -235 q -70 -279 11 -279 q -97 -279 -83 -279 q -124 -277 -111 -278 l -121 -157 q -24 -152 -64 -159 q 40 -125 16 -146 q 75 -66 64 -104 q 86 35 86 -27 l 86 583 l 7 579 l 12 692 l 214 693 z "},"k":{"ha":564,"x_min":-2,"x_max":553,"o":"m 553 111 l 550 0 l 321 0 l 321 109 l 368 109 l 234 286 l 199 239 l 196 114 l 276 107 l 272 -5 l 24 5 l 24 123 l 81 127 l 81 864 l -2 864 l 1 983 l 205 983 l 201 397 l 348 591 l 292 591 l 283 693 l 543 704 l 547 591 l 467 589 l 299 368 l 496 115 l 553 111 z "},"l":{"ha":291,"x_min":-2,"x_max":276,"o":"m 276 107 l 272 -5 l 24 5 l 24 123 l 81 127 l 81 857 l -2 857 l 1 977 l 219 977 l 203 114 l 276 107 z "},"m":{"ha":842,"x_min":16,"x_max":817,"o":"m 817 110 l 810 1 l 596 -9 l 593 107 l 646 114 q 650 293 648 204 q 652 472 652 382 q 649 504 652 487 q 640 535 646 521 q 621 559 633 549 q 591 568 609 568 q 555 558 571 568 q 527 533 538 548 q 508 498 515 517 q 501 463 501 479 q 498 283 500 372 q 494 103 496 193 l 550 96 l 536 -12 l 329 -3 l 333 107 l 379 114 q 383 300 381 207 q 385 486 385 393 q 382 517 385 500 q 372 549 379 534 q 354 572 366 563 q 323 582 342 582 q 275 565 294 582 q 246 523 256 548 q 232 470 236 498 q 227 419 228 441 q 223 267 224 342 q 220 114 222 191 l 273 114 l 273 4 l 52 1 l 52 126 l 119 130 l 115 571 l 16 578 l 18 693 l 214 700 l 218 604 q 245 644 229 625 q 282 676 262 663 q 326 699 302 690 q 374 707 349 707 q 419 699 400 707 q 453 677 439 692 q 476 644 467 663 q 490 600 485 624 q 519 636 503 619 q 554 666 535 654 q 595 686 573 679 q 641 693 616 693 q 712 671 686 693 q 750 615 737 648 q 765 542 762 581 q 768 468 768 502 q 766 289 768 378 q 762 110 764 200 l 817 110 z "},"n":{"ha":601,"x_min":16,"x_max":584,"o":"m 584 96 l 570 -12 l 342 -3 l 340 107 l 399 114 q 403 298 401 206 q 405 481 405 389 q 402 515 405 498 q 391 548 399 533 q 371 572 384 563 q 337 582 357 582 q 287 565 307 582 q 253 524 266 549 q 234 471 240 500 q 227 419 228 443 q 223 267 224 342 q 220 114 222 191 l 280 114 l 287 4 l 52 1 l 52 126 l 119 130 l 115 571 l 16 578 l 18 693 l 214 700 l 218 604 q 250 643 231 624 q 291 675 269 661 q 338 698 313 690 q 389 707 363 707 q 441 696 419 707 q 477 669 463 686 q 501 628 492 651 q 514 580 509 606 q 520 529 519 555 q 522 479 522 503 q 519 291 522 385 q 515 103 517 197 l 584 96 z "},"o":{"ha":500,"x_min":34,"x_max":467,"o":"m 467 369 q 463 294 467 335 q 448 210 458 252 q 421 127 438 168 q 380 56 405 87 q 321 5 355 24 q 243 -14 288 -14 q 169 2 201 -14 q 114 44 137 18 q 75 105 91 71 q 51 177 60 140 q 38 252 41 214 q 34 323 34 290 q 38 399 34 357 q 52 484 42 441 q 78 568 62 527 q 120 640 95 608 q 178 690 144 671 q 258 709 212 709 q 331 693 299 709 q 386 650 362 677 q 424 587 409 623 q 449 514 439 552 q 463 439 458 477 q 467 369 467 401 m 359 373 q 358 410 359 387 q 353 457 357 432 q 342 507 349 482 q 325 553 336 532 q 298 586 314 573 q 260 598 282 598 q 215 582 234 598 q 183 541 197 566 q 162 485 170 516 q 150 424 154 454 q 144 366 145 393 q 142 321 142 338 q 144 285 142 307 q 149 238 145 263 q 160 188 153 213 q 178 143 168 163 q 205 110 189 123 q 241 98 220 98 q 286 113 267 98 q 318 154 304 129 q 339 209 331 178 q 352 270 347 239 q 358 328 356 301 q 359 373 359 355 z "},"p":{"ha":558,"x_min":7,"x_max":523,"o":"m 523 346 q 520 273 523 313 q 509 195 517 234 q 487 118 501 155 q 449 53 472 81 q 394 7 427 24 q 318 -9 362 -9 q 256 10 284 -9 q 212 58 228 30 l 212 -171 l 273 -172 l 273 -279 l 14 -279 l 18 -164 l 89 -167 l 97 585 l 7 582 l 7 693 l 189 700 l 199 621 q 225 652 210 637 q 259 677 241 666 q 298 694 277 688 q 338 700 318 700 q 405 681 376 700 q 454 632 433 663 q 488 564 474 602 q 509 486 501 526 q 520 410 517 447 q 523 346 523 373 m 404 336 q 403 375 404 351 q 399 426 402 399 q 390 480 396 453 q 373 529 384 507 q 346 564 362 551 q 306 578 329 578 q 269 570 285 578 q 242 550 253 563 q 225 519 231 536 q 219 481 220 501 q 216 354 218 418 q 215 227 215 291 q 221 190 215 211 q 237 151 227 170 q 263 120 248 133 q 298 107 279 107 q 341 119 323 107 q 370 151 359 132 q 389 196 382 171 q 399 246 395 220 q 403 296 402 272 q 404 336 404 319 z "},"q":{"ha":565,"x_min":35,"x_max":558,"o":"m 558 693 l 555 582 l 466 585 l 462 -167 l 531 -164 l 534 -279 l 275 -279 l 276 -172 l 337 -171 l 341 58 q 322 32 334 44 q 297 10 311 19 q 267 -4 283 1 q 235 -9 252 -9 q 161 6 193 -9 q 107 49 130 22 q 71 110 85 75 q 49 182 57 144 q 38 257 41 219 q 36 327 35 294 l 36 346 q 40 411 36 374 q 52 487 43 448 q 75 565 60 526 q 110 633 89 603 q 160 681 131 663 q 227 700 189 700 q 268 694 248 700 q 306 677 288 688 q 338 652 323 667 q 364 621 353 638 l 376 700 l 558 693 m 342 481 q 337 518 342 500 q 320 549 331 536 q 293 570 309 562 q 257 578 277 578 q 216 563 233 578 q 188 525 199 548 q 170 472 176 501 q 159 415 163 444 q 155 361 156 386 q 154 320 154 336 q 155 281 154 303 q 159 235 156 259 q 170 189 163 212 q 188 148 176 165 q 216 118 199 130 q 257 107 233 107 q 291 120 276 107 q 318 151 307 133 q 335 190 329 170 q 341 227 341 211 q 342 354 342 291 q 342 481 342 418 z "},"r":{"ha":406,"x_min":16,"x_max":386,"o":"m 386 543 q 336 524 360 537 q 292 493 311 511 q 262 450 273 474 q 250 397 250 426 q 250 263 250 330 q 248 129 249 197 l 347 125 l 347 3 l 16 -4 l 25 125 l 115 129 l 124 566 l 52 563 l 48 688 l 230 705 l 230 612 q 263 637 244 623 q 303 663 282 650 q 346 685 324 675 q 386 699 367 694 l 386 543 z "},"s":{"ha":471,"x_min":40,"x_max":432,"o":"m 432 157 q 417 88 432 119 q 378 33 403 56 q 320 -3 353 9 q 250 -16 287 -16 q 189 2 216 -16 q 140 45 161 20 l 125 -14 l 40 -7 l 47 218 l 177 217 q 175 200 176 209 q 174 183 174 191 q 178 152 174 167 q 191 124 182 136 q 212 105 199 112 q 243 98 225 98 q 268 104 256 98 q 287 121 279 111 q 299 143 294 131 q 303 167 303 155 q 290 219 303 196 q 256 260 277 241 q 212 293 236 278 q 165 319 187 307 q 104 359 128 338 q 66 405 80 380 q 46 462 52 431 q 40 533 40 493 q 55 602 40 570 q 94 657 69 634 q 152 694 119 681 q 222 707 185 707 q 283 688 256 707 q 332 646 311 670 l 347 704 l 432 697 l 425 472 l 295 473 q 297 490 296 481 q 298 507 298 499 q 294 539 298 524 q 281 566 290 554 q 260 586 273 578 q 229 593 247 593 q 205 586 216 593 q 186 570 194 580 q 173 547 178 559 q 169 524 169 535 q 181 471 169 494 q 213 429 194 448 q 257 396 233 411 q 304 370 281 382 q 364 331 340 352 q 403 284 388 310 q 425 227 418 258 q 432 157 432 196 z "},"t":{"ha":414,"x_min":27,"x_max":384,"o":"m 384 690 l 381 568 l 262 568 q 258 387 260 477 q 256 203 256 296 q 265 165 256 182 q 288 138 273 149 q 320 121 302 127 q 358 115 338 115 q 370 115 364 115 q 381 117 375 115 l 381 -4 q 315 -12 349 -12 q 235 4 271 -12 q 176 47 200 20 q 138 111 151 75 q 125 190 125 148 q 126 379 125 285 q 130 568 128 473 l 27 568 l 27 690 l 133 690 l 141 926 l 270 926 l 264 690 l 384 690 z "},"u":{"ha":585,"x_min":16,"x_max":585,"o":"m 585 109 l 582 -7 l 387 -14 l 382 96 q 350 57 369 76 q 310 24 332 39 q 263 2 288 10 q 213 -7 238 -7 q 160 3 182 -7 q 123 31 138 14 q 100 72 109 49 q 86 120 91 94 q 80 171 81 145 q 79 221 79 197 q 81 405 79 313 q 85 590 83 497 l 16 597 l 30 705 l 205 696 q 198 454 201 574 q 195 213 195 335 q 199 180 195 197 q 210 150 202 163 q 231 127 218 136 q 263 118 243 118 q 314 135 293 118 q 347 176 334 151 q 366 229 360 200 q 373 281 372 257 q 378 430 377 355 q 380 579 378 505 l 320 579 l 313 689 l 496 692 l 486 115 l 585 109 z "},"v":{"ha":538,"x_min":-2,"x_max":536,"o":"m 536 575 l 471 571 l 342 -1 l 189 -5 l 60 591 l -2 591 l 5 707 l 233 704 l 235 594 l 176 589 l 269 130 l 368 582 l 309 589 l 302 697 l 536 700 l 536 575 z "},"w":{"ha":713,"x_min":2,"x_max":709,"o":"m 709 589 l 657 585 l 569 -8 l 416 -12 l 361 460 l 306 -1 l 153 -5 l 64 585 l 2 585 l 9 700 l 223 697 l 226 587 l 180 582 l 233 130 l 296 589 l 269 589 l 276 697 l 450 697 l 458 589 l 429 589 l 496 130 l 554 589 l 501 589 l 508 697 l 702 700 l 709 589 z "},"x":{"ha":566,"x_min":18,"x_max":550,"o":"m 550 88 l 547 -18 l 306 -15 l 306 98 l 361 102 l 283 237 l 207 109 l 262 104 l 262 -7 l 21 -11 l 18 95 l 83 102 l 222 342 l 83 582 l 18 589 l 21 700 l 262 697 l 262 586 l 207 582 l 284 448 l 361 582 l 306 586 l 306 697 l 547 700 l 550 589 l 486 582 l 344 342 l 486 95 l 550 88 z "},"y":{"ha":536,"x_min":-5,"x_max":534,"o":"m 534 575 l 469 571 l 307 -161 l 363 -164 l 363 -277 l 130 -279 l 125 -174 l 191 -167 l 229 -4 l 58 591 l -5 591 l 2 707 l 230 704 l 233 594 l 173 589 l 280 179 l 359 582 l 306 589 l 299 697 l 534 700 l 534 575 z "},"z":{"ha":479,"x_min":35,"x_max":440,"o":"m 440 195 l 437 3 l 41 0 l 41 111 l 307 582 l 146 579 l 146 498 l 39 498 l 35 700 l 437 697 l 437 586 l 172 109 l 333 111 l 334 201 l 440 195 z "},"{":{"ha":382,"x_min":-9,"x_max":393,"o":"m 393 1009 q 318 980 347 1001 q 273 930 290 960 q 251 865 257 901 q 245 789 245 829 q 244 736 245 766 q 237 677 242 707 q 224 617 233 647 q 201 561 215 587 q 168 515 187 535 q 121 486 148 495 q 181 441 157 468 q 220 380 205 414 q 242 309 235 347 q 252 232 249 271 q 255 155 255 193 q 256 81 255 116 q 266 35 257 56 q 290 -1 275 14 q 327 -26 306 -17 q 373 -37 348 -36 l 346 -159 q 264 -131 302 -151 q 198 -79 227 -110 q 153 -9 170 -49 q 134 75 136 30 q 134 147 133 110 q 134 220 135 184 q 126 289 132 256 q 104 351 119 323 q 61 400 88 378 q -9 433 34 421 l -9 540 q 46 553 23 541 q 84 587 68 566 q 108 634 99 608 q 121 690 117 661 q 126 746 125 718 q 127 798 127 774 q 143 911 127 857 q 191 1009 159 965 q 268 1085 222 1053 q 373 1131 313 1116 l 393 1009 z "},"|":{"ha":254,"x_min":67,"x_max":191,"o":"m 67 -140 l 67 1096 l 191 1096 l 184 -140 l 67 -140 z "},"}":{"ha":382,"x_min":-11,"x_max":392,"o":"m 392 433 q 321 400 349 421 q 279 351 294 378 q 257 289 263 323 q 249 220 250 256 q 248 147 248 184 q 248 75 249 110 q 230 -9 247 30 q 184 -79 212 -49 q 118 -131 155 -110 q 37 -159 80 -151 l 9 -37 q 69 -21 46 -35 q 105 14 92 -7 q 123 64 118 36 q 130 121 128 92 q 130 181 131 151 q 132 235 130 210 q 140 311 134 274 q 160 381 146 349 q 198 440 174 414 q 262 486 222 467 q 196 536 221 500 q 158 617 172 572 q 141 707 145 661 q 137 789 137 753 q 131 865 137 829 q 109 930 125 901 q 63 980 92 960 q -11 1009 35 1001 l 9 1131 q 126 1078 79 1114 q 202 993 174 1042 q 243 885 231 944 q 255 760 255 825 q 257 713 255 738 q 266 665 260 689 q 282 618 272 640 q 308 579 292 596 q 343 551 323 562 q 392 540 364 541 l 392 433 z "},"~":{"ha":637,"x_min":30,"x_max":614,"o":"m 614 517 q 579 483 600 500 q 534 450 558 465 q 485 425 511 435 q 437 415 460 415 q 375 428 405 415 q 318 457 346 441 q 264 486 291 473 q 210 499 237 499 q 177 488 196 499 q 138 463 157 477 q 102 433 119 448 q 77 410 86 418 l 30 524 q 67 557 45 539 q 113 590 89 575 q 163 615 138 606 q 213 625 189 625 q 271 612 244 625 q 323 583 297 599 q 376 554 349 568 q 437 541 403 541 q 472 547 454 541 q 508 561 490 552 q 540 581 525 570 q 567 604 555 592 l 614 517 z "},"†":{"ha":490,"x_min":35,"x_max":460,"o":"m 460 826 l 454 704 l 299 701 l 295 -140 l 178 -140 l 178 700 l 39 697 l 35 823 l 178 823 l 178 1096 l 302 1096 l 300 825 l 460 826 z "},"°":{"ha":363,"x_min":20,"x_max":343,"o":"m 186 639 q 122 651 152 639 q 70 684 92 663 q 34 734 47 705 q 20 798 20 764 q 33 861 20 831 q 66 913 45 891 q 117 949 87 936 q 180 962 146 962 q 245 949 215 962 q 296 916 275 937 q 331 865 318 895 q 343 800 343 836 q 331 737 343 766 q 298 686 319 708 q 248 651 277 664 q 186 639 219 639 m 179 886 q 145 878 160 886 q 120 858 130 871 q 104 829 110 846 q 99 795 99 812 q 123 737 99 758 q 183 716 147 716 q 218 723 203 716 q 243 743 233 730 q 259 771 254 755 q 264 806 264 787 q 240 865 264 844 q 179 886 216 886 z "},"¢":{"ha":579,"x_min":38,"x_max":538,"o":"m 328 145 l 338 -33 l 228 -33 l 240 148 q 146 195 184 159 q 84 277 108 230 q 49 379 60 325 q 38 484 38 434 q 47 594 38 539 q 80 696 57 650 q 142 777 103 743 q 239 822 180 810 l 228 1008 l 338 1008 l 327 825 q 393 796 366 819 q 444 736 421 773 l 444 826 l 538 825 l 526 548 l 442 551 q 427 610 437 579 q 401 668 418 642 q 360 711 385 694 q 301 728 336 728 q 241 718 267 728 q 199 688 216 707 q 170 646 181 670 q 152 595 159 622 q 143 541 146 568 q 141 488 141 513 q 143 437 141 465 q 152 383 146 410 q 168 331 157 356 q 196 287 179 306 q 236 256 212 267 q 293 244 260 244 q 360 259 333 244 q 404 300 387 275 q 429 357 420 326 q 439 423 437 389 l 524 423 q 512 326 524 372 q 477 241 500 279 q 416 178 453 203 q 328 145 379 153 z "},"£":{"ha":545,"x_min":54,"x_max":492,"o":"m 317 473 l 310 392 l 219 389 q 210 338 218 366 q 193 288 202 311 q 170 235 183 261 l 395 231 l 401 354 l 492 349 l 486 126 l 59 132 l 54 237 l 78 235 q 98 287 89 260 q 113 336 105 309 q 123 387 120 363 l 58 385 l 54 471 l 109 471 q 92 504 102 488 q 74 536 82 519 q 59 571 65 553 q 54 613 54 590 q 65 703 54 661 q 100 776 76 745 q 160 826 123 808 q 249 845 197 845 q 299 839 278 845 q 336 822 320 833 q 366 793 353 811 q 394 753 380 776 l 395 842 l 490 840 l 478 564 l 393 567 q 380 629 388 596 q 356 688 372 661 q 317 732 341 715 q 256 750 292 750 q 208 735 227 750 q 178 696 189 720 q 161 647 166 673 q 157 597 157 620 q 162 561 157 576 q 174 530 167 545 q 189 502 181 516 q 204 472 197 488 l 317 473 z "},"§":{"ha":637,"x_min":41,"x_max":591,"o":"m 591 142 q 577 38 591 87 q 535 -46 564 -10 q 463 -104 507 -83 q 359 -125 419 -125 q 295 -118 323 -125 q 243 -97 267 -111 q 200 -61 220 -83 q 161 -9 180 -39 l 160 -114 l 41 -99 l 62 213 l 163 209 q 182 133 169 172 q 216 62 195 94 q 269 8 237 29 q 345 -12 300 -12 q 404 -1 380 -12 q 443 31 428 11 q 464 79 458 52 q 471 138 471 106 q 459 204 471 176 q 426 256 447 233 q 377 294 405 278 q 316 321 349 310 q 276 335 296 329 q 236 350 256 342 q 176 384 201 365 q 134 429 151 404 q 108 486 117 454 q 95 555 98 517 l 95 572 q 99 620 95 596 q 110 666 102 644 q 60 748 74 705 q 46 844 46 791 q 63 946 46 899 q 112 1028 80 994 q 189 1081 144 1062 q 292 1100 235 1100 q 354 1093 328 1100 q 400 1072 380 1086 q 437 1037 420 1058 q 472 986 454 1015 l 473 1097 l 591 1095 l 576 750 l 471 754 q 460 806 466 779 q 445 858 454 833 q 423 906 436 883 q 392 945 410 928 q 350 972 374 962 q 296 982 326 982 q 242 970 264 982 q 204 937 219 958 q 182 891 189 917 q 175 837 175 865 q 188 770 175 798 q 223 722 201 742 q 274 688 245 702 q 336 662 303 673 q 429 621 388 644 q 498 565 470 597 q 542 490 527 533 q 557 388 557 446 q 553 343 557 366 q 541 298 549 320 q 579 225 567 264 q 591 142 591 185 m 437 392 q 429 455 437 429 q 407 498 421 481 q 373 528 393 516 q 329 548 353 539 q 279 566 305 557 q 225 587 252 575 q 224 573 224 580 q 224 559 224 566 q 233 512 224 532 q 257 476 242 492 q 293 450 273 461 q 336 430 313 439 q 388 410 363 420 q 437 387 413 400 l 437 392 z "},"•":{"ha":342,"x_min":34,"x_max":308,"o":"m 308 488 q 297 435 308 460 q 268 392 286 410 q 224 362 250 373 q 171 351 199 351 q 117 362 142 351 q 74 392 92 373 q 45 435 56 410 q 34 488 34 460 q 45 542 34 517 q 74 586 56 567 q 117 616 92 605 q 171 627 142 627 q 224 616 199 627 q 268 586 250 605 q 297 542 286 567 q 308 488 308 517 z "},"¶":{"ha":826,"x_min":33,"x_max":772,"o":"m 772 127 l 764 5 l 519 5 l 516 132 l 568 132 l 568 838 q 444 842 505 842 l 443 132 l 489 132 l 485 5 l 239 5 l 239 127 l 328 132 l 325 396 q 202 422 256 402 q 111 479 149 443 q 53 568 73 515 q 33 692 33 621 q 57 809 33 756 q 122 899 81 861 q 217 956 163 936 q 334 977 272 977 q 478 974 407 977 q 622 971 549 971 q 690 972 656 971 q 758 974 724 974 l 768 845 l 690 838 l 683 132 l 772 127 m 323 510 l 321 849 q 257 837 287 849 q 206 802 228 824 q 172 751 184 781 q 159 686 159 721 q 170 616 159 648 q 202 561 181 585 q 254 524 223 538 q 323 510 284 511 z "},"ß":{"ha":727,"x_min":26,"x_max":717,"o":"m 526 795 q 516 828 526 812 q 491 858 507 845 q 455 879 475 871 q 414 887 435 887 q 329 876 361 887 q 279 841 297 864 q 254 781 261 817 q 246 694 248 744 q 244 579 243 637 q 245 464 246 522 l 245 3 l 36 3 l 36 122 l 125 125 l 125 575 l 26 575 l 29 694 l 124 694 q 138 827 125 768 q 183 926 151 886 q 268 988 215 966 q 402 1009 321 1009 q 493 995 450 1009 q 569 955 536 981 q 622 888 602 928 q 641 798 641 849 q 627 713 641 745 q 592 662 613 682 q 547 631 572 643 q 502 607 523 619 q 468 575 481 594 q 454 524 454 557 q 466 471 454 494 q 498 429 479 448 q 542 397 518 411 q 589 370 566 382 q 648 330 624 351 q 687 284 672 309 q 710 228 703 259 q 717 157 717 197 q 702 88 717 119 q 663 33 688 56 q 605 -3 637 9 q 535 -16 572 -16 q 473 2 501 -16 q 425 45 446 20 l 410 -14 l 325 -7 l 332 218 l 462 217 q 460 200 460 209 q 459 183 459 191 q 463 152 459 167 q 475 124 467 136 q 497 105 484 112 q 528 98 510 98 q 552 104 541 98 q 571 121 564 111 q 584 143 579 131 q 588 167 588 155 q 574 219 588 196 q 541 260 561 242 q 496 292 520 278 q 450 319 471 307 q 390 359 414 338 q 351 405 366 380 q 331 461 337 430 q 325 533 325 492 q 340 604 325 576 q 377 650 355 631 q 425 682 399 669 q 473 710 451 695 q 511 744 496 725 q 526 795 526 764 z "},"®":{"ha":801,"x_min":43,"x_max":758,"o":"m 758 477 q 751 396 758 439 q 728 309 745 353 q 685 225 712 265 q 618 154 659 184 q 524 104 578 123 q 399 85 470 85 q 270 104 325 85 q 175 154 215 123 q 110 224 136 184 q 70 308 85 264 q 49 396 55 352 q 43 477 43 439 q 50 563 43 517 q 72 652 56 608 q 115 737 87 696 q 183 808 142 777 q 283 857 225 838 q 419 875 342 875 q 538 855 486 875 q 627 802 589 835 q 690 727 665 769 q 730 641 715 685 q 752 554 745 597 q 758 477 758 511 m 692 475 q 687 532 692 498 q 671 602 683 566 q 639 675 659 639 q 587 740 618 711 q 511 786 555 768 q 407 804 467 804 q 296 787 342 804 q 216 742 249 770 q 164 678 184 713 q 133 606 144 642 q 118 534 121 569 q 114 475 114 500 q 118 417 114 450 q 132 348 121 384 q 163 278 143 313 q 214 216 182 243 q 292 172 246 189 q 400 155 338 155 q 501 172 457 155 q 577 217 545 189 q 631 280 610 245 q 667 351 653 315 q 686 419 680 387 q 692 475 692 452 m 575 309 l 572 247 l 434 237 l 425 297 l 454 297 l 403 450 l 351 450 l 349 298 l 395 300 l 391 237 l 245 237 l 240 298 l 285 298 l 283 646 l 240 644 l 237 708 q 322 710 279 709 q 407 711 364 711 q 471 703 441 711 q 523 679 500 694 q 558 638 545 663 q 571 583 571 614 q 564 542 571 562 q 544 504 557 521 q 511 474 531 486 q 467 457 492 462 l 522 308 l 575 309 m 500 581 q 475 632 500 614 q 414 650 450 650 l 387 650 q 370 650 378 650 q 353 648 361 650 l 351 506 q 361 505 357 505 q 370 505 365 505 q 419 507 395 505 q 460 516 442 509 q 490 539 479 524 q 500 581 500 554 z "},"©":{"ha":801,"x_min":43,"x_max":758,"o":"m 758 477 q 751 396 758 439 q 728 309 745 353 q 685 225 712 265 q 618 154 659 184 q 524 104 578 123 q 399 85 470 85 q 270 104 325 85 q 175 154 215 123 q 110 224 136 184 q 70 308 85 264 q 49 396 55 352 q 43 477 43 439 q 50 563 43 517 q 72 652 56 608 q 115 737 87 696 q 183 808 142 777 q 283 857 225 838 q 419 875 342 875 q 538 855 486 875 q 627 802 589 835 q 690 727 665 769 q 730 641 715 685 q 752 554 745 597 q 758 477 758 511 m 692 475 q 687 532 692 498 q 671 602 683 566 q 639 675 659 639 q 587 740 618 711 q 511 786 555 768 q 407 804 467 804 q 296 787 342 804 q 216 742 249 770 q 164 678 184 713 q 133 606 144 642 q 118 534 121 569 q 114 475 114 500 q 118 417 114 450 q 132 348 121 384 q 163 278 143 313 q 214 216 182 243 q 292 172 246 189 q 400 155 338 155 q 501 172 457 155 q 577 217 545 189 q 631 280 610 245 q 667 351 653 315 q 686 419 680 387 q 692 475 692 452 m 560 709 l 552 543 l 492 545 q 483 581 489 562 q 464 615 476 600 q 435 641 452 631 q 393 651 418 651 q 336 632 357 651 q 302 585 314 612 q 286 527 290 557 q 282 475 282 497 q 286 422 282 453 q 301 364 290 392 q 333 316 312 336 q 388 296 354 296 q 435 306 416 296 q 465 333 454 317 q 483 370 477 349 q 490 410 488 390 l 549 410 q 540 345 549 376 q 510 289 530 313 q 459 250 490 264 q 387 235 429 235 q 303 259 337 235 q 249 320 270 284 q 219 398 229 357 q 210 472 210 439 q 218 551 210 509 q 247 628 227 593 q 302 687 267 664 q 391 711 337 711 q 451 696 427 711 q 494 656 475 682 l 494 709 l 560 709 z "},"™":{"ha":685,"x_min":41,"x_max":643,"o":"m 642 894 l 609 895 l 604 667 l 629 667 l 631 618 l 522 618 l 524 667 l 553 667 l 555 852 l 496 655 l 442 654 l 399 848 l 395 670 l 425 670 l 426 623 l 304 624 l 304 671 l 343 670 l 346 888 l 302 891 l 304 937 l 419 937 l 472 727 l 541 943 l 643 943 l 642 894 m 240 838 l 237 899 l 190 898 l 187 670 l 222 671 l 220 624 l 110 623 l 109 670 l 138 670 l 138 895 l 87 892 l 88 837 l 41 837 l 43 940 l 279 947 l 285 844 l 240 838 z "},"´":{"ha":214,"x_min":0,"x_max":214,"o":"m 214 911 l 64 754 l 0 774 l 88 945 l 214 911 z "},"¨":{"ha":327,"x_min":0,"x_max":327,"o":"m 327 842 q 309 798 327 816 q 264 780 291 780 q 221 798 238 780 q 203 842 203 817 q 221 887 203 869 q 266 906 239 906 q 310 887 292 906 q 327 842 327 869 m 137 842 q 117 792 137 812 q 68 772 98 772 q 41 778 54 772 q 19 793 28 783 q 5 816 10 803 q 0 842 0 829 q 20 892 0 872 q 71 913 41 913 q 98 907 85 913 q 119 892 110 901 q 132 869 127 882 q 137 842 137 857 z "},"≠":{"ha":519,"x_min":47,"x_max":473,"o":"m 433 817 l 392 704 l 473 704 l 467 582 l 346 579 l 292 431 l 473 433 l 467 311 l 245 307 l 195 170 l 92 183 l 133 305 l 52 304 l 47 430 l 175 430 l 224 578 l 52 575 l 47 701 l 266 703 l 309 830 l 433 817 z "},"Æ":{"ha":960,"x_min":-26,"x_max":926,"o":"m 444 315 l 263 307 l 205 130 l 281 123 l 277 1 l -26 1 l -23 133 l 75 130 l 347 854 l 279 852 l 279 967 l 920 967 l 926 704 l 826 697 l 812 837 l 566 831 l 563 529 l 769 529 l 769 431 l 562 419 l 559 117 l 812 126 l 812 275 l 913 275 l 920 5 l 368 -8 l 363 117 l 444 117 l 444 315 m 442 831 l 441 831 l 302 420 l 444 420 q 444 563 444 508 q 444 652 444 618 q 444 705 444 686 q 443 741 444 725 q 443 777 443 758 q 442 831 442 797 z "},"Ø":{"ha":681,"x_min":43,"x_max":636,"o":"m 183 266 l 423 834 q 392 853 409 846 q 354 860 376 860 q 278 836 309 860 q 227 772 248 812 q 195 684 207 733 q 178 585 184 635 q 172 488 173 534 q 171 408 171 441 q 173 342 171 380 q 183 266 176 304 m 488 696 l 241 138 q 277 114 257 123 q 323 106 297 106 q 397 128 367 106 q 448 187 428 151 q 479 269 468 223 q 496 360 490 314 q 502 448 501 406 q 503 519 503 490 q 503 555 503 534 q 501 598 503 575 q 496 646 499 621 q 488 696 493 671 m 613 977 l 566 869 q 601 788 587 832 q 622 700 614 745 q 633 610 630 654 q 636 528 636 566 q 633 410 636 473 q 618 287 629 348 q 586 169 607 226 q 529 70 564 113 q 441 1 493 27 q 316 -24 389 -24 q 245 -14 277 -24 q 186 14 212 -4 l 174 -14 l 71 0 l 111 98 q 78 174 92 133 q 57 256 65 214 q 46 340 50 298 q 43 419 43 382 q 47 538 43 474 q 64 665 52 602 q 98 786 76 728 q 156 889 120 844 q 245 961 193 934 q 369 987 297 987 q 427 981 401 987 q 476 962 454 974 l 488 990 l 613 977 z "},"±":{"ha":528,"x_min":49,"x_max":480,"o":"m 480 568 l 473 446 l 339 444 l 342 289 l 216 285 l 216 442 l 58 439 l 54 566 l 214 566 l 213 711 l 335 704 l 338 567 l 480 568 m 475 202 l 468 80 l 53 73 l 49 199 l 475 202 z "},"¥":{"ha":604,"x_min":36,"x_max":568,"o":"m 474 528 l 469 441 l 363 439 l 344 396 l 474 397 l 469 311 l 342 309 l 341 243 l 418 245 l 413 148 l 189 142 l 185 243 l 249 243 l 249 307 l 136 305 l 134 395 l 249 396 l 233 437 l 136 435 l 134 525 l 192 526 l 104 718 l 36 715 l 41 821 l 262 821 l 271 723 l 207 718 l 299 490 l 401 718 l 334 715 l 340 821 l 559 826 l 568 723 l 500 718 l 406 526 l 474 528 z "},"µ":{"ha":649,"x_min":37,"x_max":601,"o":"m 195 -12 l 152 -338 l 37 -343 q 97 120 67 -110 q 161 583 127 350 l 92 587 l 119 697 l 294 693 q 257 451 276 571 q 224 209 238 331 q 222 199 222 203 q 222 189 222 194 q 225 161 222 174 q 235 138 228 148 q 252 121 241 127 q 279 115 263 115 q 331 133 309 115 q 370 175 354 150 q 396 230 387 201 q 411 283 406 260 q 434 433 425 358 q 454 583 444 509 l 395 582 l 401 690 l 585 701 l 502 122 l 601 118 l 583 3 l 387 -12 l 397 98 q 357 55 380 76 q 308 18 334 34 q 253 -6 281 3 q 195 -12 224 -15 z "},"∂":{"ha":519,"x_min":39,"x_max":472,"o":"m 365 373 q 363 410 365 387 q 358 457 362 432 q 348 507 355 482 q 330 553 341 532 q 303 586 319 573 q 266 598 288 598 q 221 582 239 598 q 189 541 202 566 q 168 485 176 516 q 155 424 159 454 q 149 366 151 393 q 148 321 148 338 q 149 285 148 307 q 155 238 151 263 q 166 188 159 213 q 184 143 173 163 q 210 110 195 123 q 247 98 226 98 q 291 113 273 98 q 323 154 310 129 q 345 209 336 178 q 357 270 353 239 q 363 328 361 301 q 365 373 365 355 m 182 956 l 289 1000 q 380 836 340 930 q 414 746 397 795 q 444 637 431 696 q 464 512 456 579 q 472 369 472 444 q 468 294 472 335 q 454 210 464 252 q 427 127 444 168 q 385 56 410 87 q 326 5 360 24 q 248 -14 292 -14 q 174 2 206 -14 q 119 44 142 18 q 81 105 96 71 q 56 177 65 140 q 43 252 47 214 q 39 323 39 290 q 43 399 39 357 q 57 484 47 441 q 84 568 67 527 q 125 640 100 608 q 184 690 150 671 q 263 709 218 709 q 303 701 283 709 q 340 680 323 693 q 308 750 326 711 q 268 827 289 789 q 225 900 248 866 q 182 956 203 935 z "},"ª":{"ha":415,"x_min":58,"x_max":362,"o":"m 359 549 l 259 540 l 255 579 q 210 552 235 564 q 159 541 184 541 q 111 552 130 541 q 80 579 92 562 q 63 618 68 597 q 58 661 58 639 q 68 712 58 689 q 97 752 79 736 q 141 778 115 768 q 197 787 166 787 q 236 783 216 787 l 236 799 q 236 817 236 804 q 233 845 235 831 q 226 871 231 860 q 212 883 221 883 q 190 872 200 883 q 172 848 180 862 q 159 819 164 833 q 151 795 153 804 l 65 799 l 62 958 l 148 959 l 148 922 q 176 951 159 939 q 216 963 193 963 q 272 953 251 963 q 304 925 293 943 q 319 884 315 908 q 323 833 323 860 q 322 728 323 781 q 316 625 321 676 l 362 625 l 359 549 m 237 701 q 224 707 233 705 q 206 709 214 709 q 160 697 176 709 q 144 656 144 684 q 153 629 144 640 q 179 618 161 618 q 195 620 185 618 q 214 624 205 621 q 231 633 224 627 q 237 646 237 638 l 237 701 m 362 460 l 355 365 l 62 358 l 58 457 l 362 460 z "},"º":{"ha":395,"x_min":56,"x_max":342,"o":"m 194 537 q 124 558 151 537 q 82 611 97 580 q 61 677 66 642 q 56 741 56 713 q 58 784 56 760 q 67 835 61 809 q 84 885 73 861 q 112 928 95 909 q 151 959 128 947 q 203 971 173 971 q 252 961 231 971 q 289 934 273 951 q 314 896 304 918 q 331 852 325 875 q 339 807 337 829 q 342 766 342 785 q 339 723 342 747 q 330 673 336 699 q 313 623 323 648 q 286 580 302 599 q 247 549 269 561 q 194 537 224 537 m 205 894 q 178 885 189 894 q 160 862 168 876 q 148 831 153 848 q 142 796 144 813 q 139 764 140 779 q 138 739 138 749 q 140 707 138 728 q 147 666 142 686 q 163 631 153 646 q 193 616 174 616 q 229 634 216 616 q 249 677 243 652 q 257 728 256 703 q 259 769 259 754 q 258 802 259 781 q 251 844 256 823 q 235 879 246 864 q 205 894 224 894 m 342 460 l 335 365 l 60 358 l 56 457 l 342 460 z "},"æ":{"ha":778,"x_min":42,"x_max":743,"o":"m 743 411 q 739 302 743 355 l 448 297 q 449 263 448 283 q 453 221 450 243 q 462 177 456 199 q 477 139 468 156 q 501 111 487 121 q 534 100 515 100 q 571 112 555 100 q 596 139 586 123 q 611 176 606 156 q 618 213 616 195 l 736 213 q 716 135 730 174 q 678 64 702 96 q 621 12 654 32 q 541 -8 587 -8 q 450 14 487 -8 q 389 73 414 37 q 354 46 374 60 q 309 20 334 32 q 254 1 283 8 q 191 -7 224 -7 q 120 10 149 -7 q 74 54 92 26 q 50 117 57 81 q 42 189 42 152 q 57 273 42 235 q 100 337 73 311 q 166 379 127 364 q 251 393 205 393 q 287 391 269 393 q 323 382 305 389 q 324 404 324 394 q 324 426 324 414 q 323 446 324 432 q 321 477 323 460 q 316 513 319 494 q 307 547 313 532 q 293 572 301 562 q 274 582 286 582 q 249 573 261 582 q 226 550 237 564 q 206 519 215 536 q 189 485 197 502 q 176 453 182 468 q 168 430 171 439 l 53 435 l 49 688 l 161 690 l 161 591 q 180 628 168 609 q 207 662 191 647 q 240 687 222 677 q 281 697 259 697 q 357 685 328 697 q 406 648 387 672 q 460 690 428 675 q 534 705 492 705 q 648 683 606 705 q 710 620 689 660 q 738 527 732 581 q 743 411 743 473 m 625 450 q 623 496 625 471 q 612 545 621 522 q 587 584 604 568 q 544 600 571 600 q 504 589 520 600 q 477 562 488 578 q 460 523 466 545 q 451 478 454 500 q 447 433 448 455 q 446 395 446 412 l 621 395 q 625 450 625 423 m 327 161 l 327 260 q 299 278 317 274 q 264 282 280 282 q 185 258 216 282 q 155 182 155 234 q 172 128 155 150 q 222 106 189 106 q 251 109 233 106 q 286 119 269 112 q 315 136 302 125 q 327 161 327 146 z "},"ø":{"ha":506,"x_min":37,"x_max":469,"o":"m 151 248 l 290 591 q 263 598 277 598 q 218 582 237 598 q 186 541 199 566 q 165 485 173 516 q 152 424 157 454 q 146 366 148 393 q 145 321 145 338 q 146 290 145 309 q 151 248 147 270 m 357 453 l 208 110 q 224 101 216 104 q 244 98 233 98 q 289 113 270 98 q 320 154 307 129 q 342 209 334 178 q 354 270 350 239 q 360 328 359 301 q 362 373 362 355 q 361 408 362 387 q 357 453 360 429 m 461 694 l 420 601 q 444 544 434 574 q 459 484 453 514 q 467 424 465 453 q 469 369 469 394 q 465 294 469 335 q 451 210 461 252 q 424 127 441 168 q 382 56 408 87 q 323 5 357 24 q 245 -14 290 -14 q 163 7 197 -14 l 153 -14 l 50 0 l 87 88 q 63 145 73 115 q 47 205 54 175 q 39 266 41 236 q 37 323 37 296 q 41 399 37 357 q 55 484 45 441 q 81 568 64 527 q 122 640 98 608 q 181 690 147 671 q 260 709 216 709 q 331 693 300 709 l 338 708 l 461 694 z "},"¿":{"ha":616,"x_min":37,"x_max":583,"o":"m 37 172 q 51 289 37 231 q 94 394 64 346 q 168 477 123 442 q 275 526 213 512 l 296 662 l 374 662 l 395 423 l 328 423 q 258 399 288 423 q 207 341 227 376 q 176 266 186 306 q 165 193 165 226 q 171 131 165 165 q 191 69 177 98 q 229 21 205 40 q 289 1 253 1 q 365 23 334 1 q 415 78 395 45 q 445 152 434 112 q 461 229 455 193 l 568 233 l 583 -111 l 464 -114 l 463 -3 q 427 -54 444 -33 q 390 -89 410 -75 q 343 -110 370 -103 q 281 -117 317 -117 q 170 -94 216 -117 q 95 -32 124 -71 q 51 60 65 7 q 37 172 37 113 m 252 783 q 259 816 252 800 q 277 844 266 832 q 304 863 289 856 q 338 869 320 869 q 371 863 355 869 q 399 844 387 856 q 418 816 411 832 q 425 783 425 800 q 418 749 425 765 q 399 722 411 734 q 371 704 387 711 q 338 697 355 697 q 304 704 320 697 q 277 722 289 711 q 259 749 266 734 q 252 783 252 765 z "},"¡":{"ha":280,"x_min":53,"x_max":228,"o":"m 57 -117 l 91 661 l 179 667 l 228 -110 l 57 -117 m 53 791 q 60 824 53 808 q 78 852 66 840 q 105 871 90 864 q 138 878 121 878 q 172 871 156 878 q 200 852 188 864 q 218 824 212 840 q 225 791 225 808 q 218 758 225 773 q 200 730 212 742 q 172 712 188 719 q 138 705 156 705 q 105 712 121 705 q 78 730 90 719 q 60 758 66 742 q 53 791 53 773 z "},"¬":{"ha":535,"x_min":45,"x_max":471,"o":"m 361 445 l 49 439 l 45 566 l 471 568 l 471 285 l 355 285 l 361 445 z "},"≈":{"ha":673,"x_min":47,"x_max":631,"o":"m 631 625 q 596 591 616 609 q 551 558 575 573 q 502 533 528 543 q 454 524 477 524 q 392 537 422 524 q 335 566 363 550 q 281 594 308 581 q 227 608 254 608 q 194 597 213 608 q 155 571 174 586 q 119 542 136 557 q 94 518 103 527 l 47 632 q 84 666 62 648 q 130 699 106 684 q 180 724 155 714 q 230 734 206 734 q 288 721 261 734 q 340 692 314 707 q 393 663 366 676 q 454 650 420 650 q 489 655 471 650 q 525 669 507 661 q 557 689 542 678 q 584 712 572 701 l 631 625 m 631 408 q 596 374 616 392 q 551 341 575 356 q 502 316 528 326 q 454 307 477 307 q 392 320 422 307 q 335 349 363 333 q 281 377 308 364 q 227 391 254 391 q 194 380 213 391 q 155 354 174 369 q 119 325 136 340 q 94 301 103 310 l 47 415 q 84 449 62 431 q 130 482 106 467 q 180 507 155 497 q 230 517 206 517 q 288 504 261 517 q 340 475 314 490 q 393 446 366 459 q 454 433 420 433 q 489 438 471 433 q 525 452 507 444 q 557 472 542 461 q 584 495 572 484 l 631 408 z "},"«":{"ha":844,"x_min":8,"x_max":807,"o":"m 441 178 l 395 69 l 16 285 l 8 372 l 395 600 l 441 491 l 133 331 l 441 178 m 807 178 l 761 69 l 382 285 l 374 372 l 761 600 l 807 491 l 499 331 l 807 178 z "},"»":{"ha":830,"x_min":37,"x_max":822,"o":"m 469 372 l 461 285 l 83 69 l 37 178 l 345 331 l 37 491 l 83 600 l 469 372 m 822 372 l 814 285 l 435 69 l 389 178 l 697 331 l 389 491 l 435 600 l 822 372 z "},"Œ":{"ha":1025,"x_min":43,"x_max":991,"o":"m 991 704 l 891 697 l 878 837 l 631 831 l 628 529 l 834 529 l 834 431 l 627 419 l 624 117 l 878 126 l 878 275 l 978 275 l 985 5 l 446 4 q 386 -17 418 -9 q 316 -24 354 -24 q 217 -4 259 -24 q 145 52 175 17 q 95 132 115 86 q 64 226 75 177 q 48 326 52 275 q 43 419 43 376 q 47 538 43 474 q 64 665 52 602 q 98 786 76 728 q 156 889 120 844 q 245 961 193 934 q 369 987 297 987 q 427 981 401 987 q 476 962 454 974 l 985 967 l 991 704 m 503 519 q 502 577 503 543 q 496 649 500 611 q 481 724 491 686 q 455 792 472 762 q 414 841 439 823 q 354 860 389 860 q 278 836 309 860 q 227 772 248 812 q 195 684 207 733 q 178 585 184 635 q 172 488 173 534 q 171 408 171 441 q 172 351 171 383 q 179 285 174 319 q 194 219 184 252 q 221 162 204 187 q 262 121 237 137 q 323 106 288 106 q 397 128 367 106 q 448 187 428 151 q 479 269 468 223 q 496 360 490 314 q 502 448 501 406 q 503 519 503 490 z "},"œ":{"ha":810,"x_min":34,"x_max":776,"o":"m 359 373 q 358 410 359 387 q 353 457 357 432 q 342 507 349 482 q 325 553 336 532 q 298 586 314 573 q 260 598 282 598 q 215 582 234 598 q 183 541 197 566 q 162 485 170 516 q 150 424 154 454 q 144 366 145 393 q 142 321 142 338 q 144 285 142 307 q 149 238 145 263 q 160 188 153 213 q 178 143 168 163 q 205 110 189 123 q 241 98 220 98 q 286 113 267 98 q 318 154 304 129 q 339 209 331 178 q 352 270 347 239 q 358 328 356 301 q 359 373 359 355 m 776 411 q 772 302 776 355 l 479 297 q 481 263 479 283 q 485 221 482 243 q 494 177 488 199 q 510 139 500 156 q 533 111 519 121 q 567 100 547 100 q 603 112 588 100 q 628 139 618 123 q 643 176 637 156 q 650 213 648 195 l 769 213 q 749 135 763 174 q 711 64 734 96 q 653 12 687 32 q 574 -8 619 -8 q 517 0 543 -8 q 471 21 492 7 q 435 55 451 35 q 407 98 419 74 q 378 54 394 74 q 341 18 361 33 q 296 -5 321 3 q 243 -14 272 -14 q 169 2 201 -14 q 114 44 137 18 q 75 105 91 71 q 51 177 60 140 q 38 252 41 214 q 34 323 34 290 q 38 399 34 357 q 52 484 42 441 q 78 568 62 527 q 120 640 95 608 q 178 690 144 671 q 258 709 212 709 q 350 682 312 709 q 412 612 388 654 q 473 680 436 654 q 567 705 511 705 q 680 683 638 705 q 742 620 721 660 q 770 527 764 581 q 776 411 776 473 m 656 450 q 654 496 656 471 q 644 545 652 522 q 620 584 635 568 q 576 600 604 600 q 536 589 552 600 q 509 562 519 578 q 492 523 498 545 q 483 478 486 500 q 479 433 480 455 q 479 395 479 412 l 654 395 q 656 422 656 409 q 656 450 656 436 z "},"–":{"ha":637,"x_min":48,"x_max":591,"o":"m 591 568 l 584 446 l 52 439 l 48 566 l 591 568 z "},"—":{"ha":1179,"x_min":48,"x_max":1133,"o":"m 1133 568 l 1126 446 l 52 439 l 48 566 l 1133 568 z "},"“":{"ha":418,"x_min":23,"x_max":399,"o":"m 399 800 q 392 767 399 783 q 373 740 385 751 q 346 722 361 728 q 312 715 330 715 q 279 722 294 715 q 252 740 263 728 q 233 767 240 751 q 227 800 227 783 q 250 894 227 851 q 316 964 273 937 l 353 936 q 333 913 343 928 q 320 886 322 898 q 351 877 336 884 q 376 858 365 869 q 393 832 387 847 q 399 800 399 817 m 195 800 q 189 767 195 783 q 170 740 182 751 q 142 722 158 728 q 109 715 126 715 q 75 722 91 715 q 48 740 60 728 q 30 767 37 751 q 23 800 23 783 q 46 894 23 851 q 113 964 70 937 l 149 936 q 129 913 140 928 q 117 886 119 898 q 147 877 133 884 q 172 858 161 869 q 189 832 183 847 q 195 800 195 817 z "},"”":{"ha":412,"x_min":16,"x_max":392,"o":"m 189 878 q 164 784 189 827 q 98 715 140 741 l 62 743 q 82 766 71 751 q 95 792 93 780 q 64 801 78 793 q 39 820 50 808 q 22 846 28 831 q 16 878 16 861 q 23 911 16 895 q 41 939 30 927 q 68 958 53 951 q 102 964 84 964 q 135 958 119 964 q 163 939 151 951 q 182 911 175 927 q 189 878 189 895 m 392 878 q 368 784 392 827 q 301 715 344 741 l 266 743 q 285 766 274 751 q 298 792 296 780 q 267 801 281 793 q 242 820 253 808 q 226 846 232 831 q 220 878 220 861 q 227 911 220 895 q 245 939 233 927 q 272 958 256 951 q 305 964 288 964 q 339 958 323 964 q 367 939 355 951 q 385 911 378 927 q 392 878 392 895 z "},"‘":{"ha":214,"x_min":23,"x_max":195,"o":"m 195 800 q 189 767 195 783 q 170 740 182 751 q 142 722 158 728 q 109 715 126 715 q 75 722 91 715 q 48 740 60 728 q 30 767 37 751 q 23 800 23 783 q 46 894 23 851 q 113 964 70 937 l 149 936 q 129 913 140 928 q 117 886 119 898 q 147 877 133 884 q 172 858 161 869 q 189 832 183 847 q 195 800 195 817 z "},"’":{"ha":209,"x_min":16,"x_max":189,"o":"m 189 878 q 164 784 189 827 q 98 715 140 741 l 62 743 q 82 766 71 751 q 95 792 93 780 q 64 801 78 793 q 39 820 50 808 q 22 846 28 831 q 16 878 16 861 q 23 911 16 895 q 41 939 30 927 q 68 958 53 951 q 102 964 84 964 q 135 958 119 964 q 163 939 151 951 q 182 911 175 927 q 189 878 189 895 z "},"÷":{"ha":507,"x_min":41,"x_max":467,"o":"m 467 568 l 460 446 l 45 439 l 41 566 l 467 568 m 332 335 q 326 308 332 321 q 311 287 321 296 q 289 272 302 277 q 262 267 277 267 q 236 272 248 267 q 214 287 223 277 q 200 308 205 296 q 195 335 195 321 q 200 362 195 349 q 214 384 205 374 q 236 399 223 393 q 262 404 248 404 q 289 399 277 404 q 311 384 302 393 q 326 362 321 374 q 332 335 332 349 m 332 674 q 326 647 332 660 q 311 626 321 635 q 289 611 302 616 q 262 606 277 606 q 236 611 248 606 q 214 626 223 616 q 200 647 205 635 q 195 674 195 660 q 200 701 195 688 q 214 723 205 713 q 236 738 223 732 q 262 743 248 743 q 289 738 277 743 q 311 723 302 732 q 326 701 321 713 q 332 674 332 688 z "},"⁄":{"ha":471,"x_min":-34,"x_max":509,"o":"m 509 977 l 42 -14 l -34 0 l 425 990 l 509 977 z "},"€":{"ha":694,"x_min":34,"x_max":635,"o":"m 391 463 l 368 376 l 250 374 q 267 325 256 349 q 295 283 278 301 q 335 255 312 265 q 389 244 358 244 q 456 259 429 244 q 499 300 483 275 q 524 357 516 326 q 534 423 532 389 l 620 423 q 606 317 620 368 q 564 227 592 266 q 491 165 535 189 q 385 142 446 142 q 292 162 332 142 q 222 213 252 181 q 175 286 193 245 q 146 372 156 328 l 34 370 l 50 460 l 134 461 l 134 484 l 134 502 l 61 500 l 77 590 l 142 591 q 169 682 151 639 q 216 757 186 724 q 290 808 246 789 q 393 827 333 827 q 478 803 444 827 q 538 736 513 779 l 540 826 l 635 825 l 623 548 l 537 551 q 523 610 532 579 q 497 668 513 642 q 456 711 481 694 q 397 728 432 728 q 337 717 363 728 q 294 687 312 706 q 265 644 276 669 q 247 591 254 618 l 419 593 l 395 506 l 237 503 q 236 495 236 499 q 236 488 236 492 q 237 475 236 482 q 237 461 237 469 l 391 463 z "},"‹":{"ha":477,"x_min":8,"x_max":441,"o":"m 441 178 l 395 69 l 16 285 l 8 372 l 395 600 l 441 491 l 133 331 l 441 178 z "},"›":{"ha":477,"x_min":37,"x_max":469,"o":"m 469 372 l 461 285 l 83 69 l 37 178 l 345 331 l 37 491 l 83 600 l 469 372 z "},"‡":{"ha":503,"x_min":39,"x_max":465,"o":"m 465 256 l 458 134 l 301 132 l 300 -140 l 183 -140 l 183 130 l 43 127 l 39 254 l 183 254 l 183 700 l 43 697 l 39 823 l 183 823 l 183 1096 l 307 1096 l 305 825 l 465 826 l 458 704 l 304 701 l 301 255 l 465 256 z "},"·":{"ha":251,"x_min":39,"x_max":212,"o":"m 212 484 q 205 451 212 467 q 186 424 198 435 q 158 406 174 412 q 125 399 142 399 q 92 406 107 399 q 64 424 76 412 q 46 451 53 435 q 39 484 39 467 q 46 518 39 502 q 64 546 53 534 q 92 564 76 557 q 125 571 107 571 q 158 564 142 571 q 186 546 174 557 q 205 518 198 534 q 212 484 212 502 z "},"‚":{"ha":241,"x_min":34,"x_max":206,"o":"m 206 77 q 182 -16 206 26 q 115 -85 158 -59 l 80 -57 q 99 -35 88 -49 q 113 -8 111 -20 q 81 1 96 -7 q 57 19 67 8 q 40 45 46 31 q 34 77 34 60 q 41 111 34 95 q 59 139 47 127 q 86 157 71 151 q 119 164 102 164 q 153 157 137 164 q 181 139 169 151 q 199 111 193 127 q 206 77 206 95 z "},"„":{"ha":445,"x_min":34,"x_max":410,"o":"m 206 77 q 182 -16 206 26 q 115 -85 158 -59 l 80 -57 q 99 -35 88 -49 q 113 -8 111 -20 q 81 1 96 -7 q 57 19 67 8 q 40 45 46 31 q 34 77 34 60 q 41 111 34 95 q 59 139 47 127 q 86 157 71 151 q 119 164 102 164 q 153 157 137 164 q 181 139 169 151 q 199 111 193 127 q 206 77 206 95 m 410 77 q 386 -16 410 26 q 319 -85 361 -59 l 283 -57 q 303 -35 292 -49 q 316 -8 314 -20 q 285 1 299 -7 q 260 19 271 8 q 243 45 250 31 q 237 77 237 60 q 244 111 237 95 q 262 139 251 127 q 290 157 274 151 q 323 164 305 164 q 356 157 340 164 q 384 139 372 151 q 403 111 396 127 q 410 77 410 95 z "},"‰":{"ha":1498,"x_min":36,"x_max":1464,"o":"m 460 689 q 456 628 460 661 q 443 562 452 595 q 417 498 433 529 q 378 444 401 467 q 321 406 354 420 q 246 392 289 392 q 170 406 202 392 q 114 444 137 420 q 75 498 90 468 q 51 562 60 529 q 39 628 43 595 q 36 689 36 661 q 40 753 36 719 q 53 821 43 787 q 78 885 62 854 q 119 939 94 916 q 178 976 144 962 q 258 990 212 990 q 329 975 298 990 q 382 935 360 960 q 420 878 405 909 q 444 812 435 846 q 457 746 453 779 q 460 689 460 714 m 375 689 q 373 728 375 705 q 366 776 371 751 q 352 825 361 801 q 330 868 343 849 q 297 900 316 888 q 252 911 277 911 q 203 900 223 911 q 168 869 182 888 q 145 827 154 850 q 131 778 136 803 q 124 730 126 753 q 123 689 123 707 q 124 649 123 671 q 131 603 126 627 q 144 555 136 578 q 167 514 153 532 q 201 485 181 496 q 249 473 221 473 q 292 485 273 473 q 325 515 311 496 q 349 557 339 534 q 364 605 358 581 q 372 651 370 629 q 375 689 375 673 m 785 977 l 319 -14 l 243 0 l 702 990 l 785 977 m 989 282 q 985 221 989 254 q 972 155 981 188 q 946 91 962 122 q 907 37 930 60 q 850 -1 883 14 q 775 -15 818 -15 q 699 -1 731 -15 q 643 37 666 14 q 604 91 619 60 q 580 155 589 122 q 568 221 572 188 q 565 282 565 254 q 569 346 565 312 q 582 414 572 380 q 607 478 591 448 q 648 532 623 509 q 707 569 673 555 q 787 583 741 583 q 858 568 827 583 q 911 528 889 553 q 949 471 934 503 q 973 405 964 439 q 986 339 982 372 q 989 282 989 307 m 904 282 q 902 321 904 298 q 895 369 900 345 q 881 418 890 394 q 859 461 872 442 q 826 493 845 481 q 781 505 806 505 q 732 493 752 505 q 697 463 711 481 q 674 420 683 444 q 660 371 665 396 q 653 323 655 347 q 652 282 652 300 q 653 242 652 264 q 660 196 655 220 q 673 149 665 172 q 696 107 682 125 q 730 78 710 89 q 778 66 750 66 q 821 78 802 66 q 854 108 840 90 q 878 150 868 127 q 893 198 887 174 q 901 244 899 222 q 904 282 904 266 m 1464 282 q 1460 221 1464 254 q 1447 155 1456 188 q 1421 91 1437 122 q 1381 37 1405 60 q 1325 -1 1358 14 q 1250 -15 1293 -15 q 1173 -1 1206 -15 q 1117 37 1141 14 q 1079 91 1094 60 q 1055 155 1063 122 q 1043 221 1046 188 q 1040 282 1040 254 q 1043 346 1040 312 q 1056 414 1047 380 q 1082 478 1065 448 q 1123 532 1098 509 q 1182 569 1147 555 q 1262 583 1216 583 q 1333 568 1302 583 q 1386 528 1364 553 q 1423 471 1409 503 q 1448 405 1438 439 q 1460 339 1457 372 q 1464 282 1464 307 m 1379 282 q 1377 321 1379 298 q 1370 369 1375 345 q 1356 418 1364 394 q 1333 461 1347 442 q 1300 493 1320 481 q 1255 505 1281 505 q 1206 493 1227 505 q 1172 463 1186 481 q 1149 420 1158 444 q 1135 371 1140 396 q 1128 323 1130 347 q 1126 282 1126 300 q 1128 242 1126 264 q 1135 196 1130 220 q 1148 149 1139 172 q 1171 107 1157 125 q 1205 78 1185 89 q 1253 66 1225 66 q 1296 78 1277 66 q 1329 108 1315 90 q 1352 150 1343 127 q 1368 198 1362 174 q 1376 244 1373 222 q 1379 282 1379 266 z "},"ı":{"ha":310,"x_min":16,"x_max":294,"o":"m 294 95 l 290 -18 l 41 -7 l 41 111 l 98 115 l 98 572 l 16 572 l 18 690 l 237 690 l 220 102 l 294 95 z "},"ˆ":{"ha":313,"x_min":0,"x_max":313,"o":"m 313 788 l 217 768 l 155 886 l 95 768 l 0 788 l 110 952 l 202 959 l 313 788 z "},"˜":{"ha":330,"x_min":0,"x_max":330,"o":"m 330 850 q 308 834 320 842 q 283 819 296 826 q 256 808 270 812 q 229 804 242 804 q 195 813 212 804 q 163 832 178 822 q 132 851 147 842 q 102 860 117 860 q 83 853 94 860 q 61 836 72 846 q 41 816 50 826 q 27 800 32 806 l 0 882 q 20 903 8 891 q 46 924 32 914 q 75 940 60 934 q 103 947 90 947 q 136 938 121 947 q 165 920 151 930 q 195 901 180 909 q 229 892 210 892 q 270 906 250 892 q 302 933 290 919 l 330 850 z "},"¯":{"ha":279,"x_min":0,"x_max":279,"o":"m 279 852 l 0 859 l 7 943 l 273 943 l 279 852 z "},"˘":{"ha":308,"x_min":0,"x_max":308,"o":"m 308 943 q 291 885 303 913 q 258 836 278 857 q 212 801 238 814 q 153 788 185 788 q 94 800 121 788 q 47 831 67 811 q 15 878 27 851 q 0 936 3 905 l 72 951 q 100 895 77 913 q 160 878 123 878 q 189 885 176 878 q 211 903 201 892 q 227 929 221 915 q 236 958 233 943 l 308 943 z "},"˙":{"ha":137,"x_min":0,"x_max":137,"o":"m 137 842 q 117 792 137 812 q 68 772 98 772 q 41 778 54 772 q 19 793 28 783 q 5 816 10 803 q 0 842 0 829 q 20 892 0 872 q 71 913 41 913 q 98 907 85 913 q 119 892 110 901 q 132 869 127 882 q 137 842 137 857 z "},"˚":{"ha":247,"x_min":0,"x_max":247,"o":"m 247 909 q 238 861 247 883 q 212 822 229 838 q 174 795 196 805 q 126 785 152 785 q 78 795 100 785 q 38 821 55 804 q 10 859 20 837 q 0 907 0 882 q 9 956 0 933 q 35 996 19 979 q 74 1022 52 1013 q 122 1032 96 1032 q 171 1023 149 1032 q 211 998 194 1014 q 237 959 228 981 q 247 909 247 936 m 183 914 q 166 957 183 941 q 122 972 149 972 q 97 967 108 972 q 79 952 86 961 q 67 931 71 943 q 64 906 64 919 q 81 864 64 880 q 125 848 98 848 q 168 867 153 848 q 183 914 183 886 z "},"¸":{"ha":202,"x_min":0,"x_max":202,"o":"m 202 -141 q 193 -183 202 -165 q 169 -215 184 -202 q 133 -235 153 -228 q 91 -241 113 -241 q 68 -240 81 -241 q 43 -236 56 -239 q 19 -228 31 -233 q 0 -216 7 -223 l 33 -156 q 55 -169 41 -162 q 81 -175 70 -175 q 113 -168 101 -175 q 125 -140 125 -160 q 119 -118 125 -127 q 103 -103 113 -109 q 82 -94 94 -97 q 61 -92 71 -92 l 56 -92 l 80 31 l 155 18 l 121 -49 q 155 -57 140 -49 q 180 -77 170 -64 q 196 -107 191 -90 q 202 -141 202 -123 z "},"˝":{"ha":350,"x_min":0,"x_max":350,"o":"m 208 959 l 64 754 l 0 774 l 88 986 l 208 959 m 350 911 l 199 754 l 136 774 l 224 945 l 350 911 z "},"˛":{"ha":175,"x_min":0,"x_max":175,"o":"m 175 -209 q 146 -216 161 -213 q 117 -218 132 -218 q 69 -211 91 -218 q 32 -188 47 -203 q 8 -152 17 -173 q 0 -104 0 -131 q 7 -62 0 -83 q 25 -20 14 -40 q 51 17 36 0 q 81 47 66 35 l 138 34 q 118 8 129 23 q 99 -23 108 -7 q 85 -57 91 -40 q 80 -90 80 -75 q 90 -125 80 -113 q 123 -137 100 -137 q 159 -129 142 -137 l 175 -209 z "},"ˇ":{"ha":313,"x_min":0,"x_max":313,"o":"m 313 939 l 203 774 l 113 768 l 0 939 l 96 959 l 159 841 l 218 959 l 313 939 z "},"Š":{"ha":646,"x_min":43,"x_max":594,"o":"m 594 258 q 580 154 594 203 q 538 70 566 106 q 466 13 509 34 q 362 -8 422 -8 q 298 -2 326 -8 q 246 19 269 5 q 202 54 222 33 q 164 106 182 76 l 163 1 l 43 18 l 65 328 l 165 324 q 184 249 172 288 q 219 178 197 210 q 272 124 240 145 q 347 103 303 103 q 407 115 382 103 q 446 146 431 126 q 467 195 460 167 q 473 255 473 222 q 461 320 473 292 q 429 371 450 349 q 379 409 408 393 q 319 437 351 425 q 247 464 281 450 q 183 495 213 478 q 129 534 153 513 q 86 583 104 555 q 59 646 68 611 q 49 727 49 682 q 66 831 49 783 q 115 912 83 878 q 192 966 146 947 q 294 985 237 985 q 356 978 330 985 q 403 957 382 971 q 440 921 423 943 q 475 871 457 900 l 476 982 l 594 979 l 579 633 l 473 637 q 463 689 469 663 q 448 741 457 716 q 425 789 438 766 q 394 829 412 812 q 353 856 376 846 q 298 865 329 865 q 244 853 267 865 q 207 822 222 842 q 185 775 192 802 q 178 722 178 749 q 191 654 178 682 q 225 607 203 627 q 277 572 248 587 q 339 547 306 558 q 436 503 390 528 q 517 444 482 478 q 573 363 553 409 q 594 258 594 317 m 475 1198 l 365 1034 l 274 1027 l 161 1198 l 258 1218 l 320 1100 l 380 1218 l 475 1198 z "},"š":{"ha":471,"x_min":40,"x_max":432,"o":"m 432 157 q 417 88 432 119 q 378 33 403 56 q 320 -3 353 9 q 250 -16 287 -16 q 189 2 216 -16 q 140 45 161 20 l 125 -14 l 40 -7 l 47 218 l 177 217 q 175 200 176 209 q 174 183 174 191 q 178 152 174 167 q 191 124 182 136 q 212 105 199 112 q 243 98 225 98 q 268 104 256 98 q 287 121 279 111 q 299 143 294 131 q 303 167 303 155 q 290 219 303 196 q 256 260 277 241 q 212 293 236 278 q 165 319 187 307 q 104 359 128 338 q 66 405 80 380 q 46 462 52 431 q 40 533 40 493 q 55 602 40 570 q 94 657 69 634 q 152 694 119 681 q 222 707 185 707 q 283 688 256 707 q 332 646 311 670 l 347 704 l 432 697 l 425 472 l 295 473 q 297 490 296 481 q 298 507 298 499 q 294 539 298 524 q 281 566 290 554 q 260 586 273 578 q 229 593 247 593 q 205 586 216 593 q 186 570 194 580 q 173 547 178 559 q 169 524 169 535 q 181 471 169 494 q 213 429 194 448 q 257 396 233 411 q 304 370 281 382 q 364 331 340 352 q 403 284 388 310 q 425 227 418 258 q 432 157 432 196 m 393 924 l 283 760 l 192 753 l 79 924 l 176 945 l 238 827 l 298 945 l 393 924 z "},"Ý":{"ha":650,"x_min":-7,"x_max":658,"o":"m 658 838 l 574 831 l 378 355 l 376 132 l 471 134 l 464 12 l 184 5 l 180 132 l 260 132 l 259 358 l 77 831 l -7 829 l 0 960 l 275 960 l 286 838 l 208 831 l 323 465 l 450 831 l 366 829 l 373 960 l 648 967 l 658 838 m 500 1162 l 350 1005 l 286 1025 l 374 1196 l 500 1162 z "},"ý":{"ha":536,"x_min":-5,"x_max":534,"o":"m 534 575 l 469 571 l 307 -161 l 363 -164 l 363 -277 l 130 -279 l 125 -174 l 191 -167 l 229 -4 l 58 591 l -5 591 l 2 707 l 230 704 l 233 594 l 173 589 l 280 179 l 359 582 l 306 589 l 299 697 l 534 700 l 534 575 m 452 911 l 302 754 l 238 774 l 326 945 l 452 911 z "},"Ž":{"ha":582,"x_min":37,"x_max":546,"o":"m 546 12 l 45 5 l 41 132 l 409 838 l 150 837 l 157 666 l 37 666 l 44 960 l 538 963 l 539 831 l 170 132 l 433 133 l 433 308 l 539 315 l 546 12 m 448 1176 l 338 1012 l 248 1005 l 135 1176 l 231 1196 l 294 1078 l 353 1196 l 448 1176 z "},"ž":{"ha":479,"x_min":35,"x_max":440,"o":"m 440 195 l 437 3 l 41 0 l 41 111 l 307 582 l 146 579 l 146 498 l 39 498 l 35 700 l 437 697 l 437 586 l 172 109 l 333 111 l 334 201 l 440 195 m 394 915 l 284 751 l 193 744 l 81 915 l 177 935 l 239 817 l 299 935 l 394 915 z "},"À":{"ha":651,"x_min":-5,"x_max":660,"o":"m 660 110 l 650 -19 l 375 -12 l 368 119 l 452 117 l 417 315 l 238 307 l 210 130 l 288 123 l 277 1 l 2 1 l -5 133 l 79 130 l 227 854 l 158 852 l 151 967 l 497 974 l 490 865 l 422 863 l 576 117 l 660 110 m 398 420 l 325 837 l 257 420 l 398 420 m 367 1025 l 304 1005 l 153 1162 l 279 1196 l 367 1025 z "},"Ã":{"ha":651,"x_min":-5,"x_max":660,"o":"m 660 110 l 650 -19 l 375 -12 l 368 119 l 452 117 l 417 315 l 238 307 l 210 130 l 288 123 l 277 1 l 2 1 l -5 133 l 79 130 l 227 854 l 158 852 l 151 967 l 497 974 l 490 865 l 422 863 l 576 117 l 660 110 m 398 420 l 325 837 l 257 420 l 398 420 m 492 1061 q 470 1044 482 1053 q 445 1029 458 1036 q 418 1019 432 1023 q 391 1015 404 1015 q 357 1023 374 1015 q 325 1042 340 1032 q 294 1061 309 1053 q 264 1070 279 1070 q 245 1063 256 1070 q 223 1046 234 1056 q 203 1026 212 1036 q 189 1010 194 1016 l 162 1092 q 182 1113 170 1101 q 208 1134 194 1124 q 237 1151 222 1144 q 265 1157 252 1157 q 298 1148 283 1157 q 327 1130 313 1140 q 357 1111 342 1120 q 391 1103 372 1103 q 432 1116 412 1103 q 465 1143 452 1129 l 492 1061 z "},"Õ":{"ha":681,"x_min":43,"x_max":636,"o":"m 636 528 q 633 410 636 473 q 618 287 629 348 q 586 169 607 226 q 529 70 564 113 q 441 1 493 27 q 316 -24 389 -24 q 217 -4 259 -24 q 145 52 175 17 q 95 132 115 86 q 64 226 75 177 q 48 326 52 275 q 43 419 43 376 q 47 538 43 474 q 64 665 52 602 q 98 786 76 728 q 156 889 120 844 q 245 961 193 934 q 369 987 297 987 q 468 965 426 987 q 540 906 511 943 q 588 822 570 869 q 618 723 607 774 q 632 622 629 672 q 636 528 636 571 m 503 519 q 502 577 503 543 q 496 649 500 611 q 481 724 491 686 q 455 792 472 762 q 414 841 439 823 q 354 860 389 860 q 278 836 309 860 q 227 772 248 812 q 195 684 207 733 q 178 585 184 635 q 172 488 173 534 q 171 408 171 441 q 172 351 171 383 q 179 285 174 319 q 194 219 184 252 q 221 162 204 187 q 262 121 237 137 q 323 106 288 106 q 397 128 367 106 q 448 187 428 151 q 479 269 468 223 q 496 360 490 314 q 502 448 501 406 q 503 519 503 490 m 505 1074 q 483 1058 495 1066 q 458 1043 471 1050 q 431 1032 445 1036 q 404 1028 417 1028 q 370 1037 387 1028 q 338 1056 353 1046 q 307 1075 322 1066 q 277 1084 292 1084 q 258 1077 269 1084 q 236 1060 247 1069 q 216 1040 225 1050 q 202 1024 207 1029 l 175 1105 q 195 1126 183 1115 q 221 1148 207 1138 q 250 1164 235 1158 q 278 1171 264 1171 q 311 1162 296 1171 q 340 1143 326 1154 q 370 1125 355 1133 q 404 1116 385 1116 q 445 1129 425 1116 q 477 1157 465 1143 l 505 1074 z "},"Â":{"ha":651,"x_min":-5,"x_max":660,"o":"m 660 110 l 650 -19 l 375 -12 l 368 119 l 452 117 l 417 315 l 238 307 l 210 130 l 288 123 l 277 1 l 2 1 l -5 133 l 79 130 l 227 854 l 158 852 l 151 967 l 497 974 l 490 865 l 422 863 l 576 117 l 660 110 m 398 420 l 325 837 l 257 420 l 398 420 m 484 1039 l 387 1019 l 325 1137 l 265 1019 l 170 1039 l 280 1203 l 372 1210 l 484 1039 z "},"Ê":{"ha":646,"x_min":44,"x_max":612,"o":"m 612 704 l 512 697 l 498 837 l 252 831 l 249 529 l 455 529 l 455 431 l 248 419 l 245 117 l 498 126 l 498 275 l 599 275 l 606 5 l 54 -8 l 50 117 l 130 117 l 128 831 l 44 829 l 51 960 l 606 967 l 612 704 m 485 1039 l 389 1019 l 326 1137 l 267 1019 l 172 1039 l 281 1203 l 374 1210 l 485 1039 z "},"Á":{"ha":651,"x_min":-5,"x_max":660,"o":"m 660 110 l 650 -19 l 375 -12 l 368 119 l 452 117 l 417 315 l 238 307 l 210 130 l 288 123 l 277 1 l 2 1 l -5 133 l 79 130 l 227 854 l 158 852 l 151 967 l 497 974 l 490 865 l 422 863 l 576 117 l 660 110 m 398 420 l 325 837 l 257 420 l 398 420 m 516 1162 l 366 1005 l 302 1025 l 390 1196 l 516 1162 z "},"Ë":{"ha":646,"x_min":44,"x_max":612,"o":"m 612 704 l 512 697 l 498 837 l 252 831 l 249 529 l 455 529 l 455 431 l 248 419 l 245 117 l 498 126 l 498 275 l 599 275 l 606 5 l 54 -8 l 50 117 l 130 117 l 128 831 l 44 829 l 51 960 l 606 967 l 612 704 m 492 1080 q 474 1035 492 1053 q 429 1017 456 1017 q 386 1036 403 1017 q 368 1080 368 1054 q 386 1125 368 1106 q 431 1143 404 1143 q 474 1125 457 1143 q 492 1080 492 1106 m 302 1080 q 282 1029 302 1050 q 233 1009 262 1009 q 206 1015 218 1009 q 184 1030 193 1021 q 170 1053 175 1040 q 165 1080 165 1066 q 185 1130 165 1109 q 235 1150 205 1150 q 262 1144 250 1150 q 283 1129 275 1139 q 297 1107 292 1120 q 302 1080 302 1094 z "},"È":{"ha":646,"x_min":44,"x_max":612,"o":"m 612 704 l 512 697 l 498 837 l 252 831 l 249 529 l 455 529 l 455 431 l 248 419 l 245 117 l 498 126 l 498 275 l 599 275 l 606 5 l 54 -8 l 50 117 l 130 117 l 128 831 l 44 829 l 51 960 l 606 967 l 612 704 m 367 1025 l 304 1005 l 153 1162 l 279 1196 l 367 1025 z "},"Í":{"ha":376,"x_min":44,"x_max":380,"o":"m 340 134 l 333 12 l 54 5 l 50 132 l 130 132 l 128 825 l 44 822 l 51 954 l 319 954 l 330 831 l 252 825 l 245 132 l 340 134 m 380 1149 l 230 991 l 166 1012 l 254 1183 l 380 1149 z "},"Î":{"ha":376,"x_min":36,"x_max":349,"o":"m 340 134 l 333 12 l 54 5 l 50 132 l 130 132 l 128 825 l 44 822 l 51 954 l 319 954 l 330 831 l 252 825 l 245 132 l 340 134 m 349 1012 l 253 991 l 191 1109 l 131 991 l 36 1012 l 146 1176 l 238 1183 l 349 1012 z "},"Ï":{"ha":376,"x_min":29,"x_max":356,"o":"m 340 134 l 333 12 l 54 5 l 50 132 l 130 132 l 128 825 l 44 822 l 51 954 l 319 954 l 330 831 l 252 825 l 245 132 l 340 134 m 356 1066 q 338 1022 356 1040 q 294 1004 320 1004 q 250 1022 267 1004 q 233 1066 233 1040 q 251 1111 233 1093 q 295 1130 269 1130 q 339 1111 321 1130 q 356 1066 356 1093 m 166 1066 q 146 1016 166 1036 q 97 996 127 996 q 70 1001 83 996 q 48 1017 58 1007 q 34 1040 39 1027 q 29 1066 29 1053 q 50 1116 29 1096 q 100 1137 70 1137 q 127 1131 115 1137 q 148 1116 139 1125 q 161 1093 157 1106 q 166 1066 166 1080 z "},"Ì":{"ha":376,"x_min":3,"x_max":340,"o":"m 340 134 l 333 12 l 54 5 l 50 132 l 130 132 l 128 825 l 44 822 l 51 954 l 319 954 l 330 831 l 252 825 l 245 132 l 340 134 m 218 1012 l 155 991 l 3 1149 l 130 1183 l 218 1012 z "},"Ó":{"ha":681,"x_min":43,"x_max":636,"o":"m 636 528 q 633 410 636 473 q 618 287 629 348 q 586 169 607 226 q 529 70 564 113 q 441 1 493 27 q 316 -24 389 -24 q 217 -4 259 -24 q 145 52 175 17 q 95 132 115 86 q 64 226 75 177 q 48 326 52 275 q 43 419 43 376 q 47 538 43 474 q 64 665 52 602 q 98 786 76 728 q 156 889 120 844 q 245 961 193 934 q 369 987 297 987 q 468 965 426 987 q 540 906 511 943 q 588 822 570 869 q 618 723 607 774 q 632 622 629 672 q 636 528 636 571 m 503 519 q 502 577 503 543 q 496 649 500 611 q 481 724 491 686 q 455 792 472 762 q 414 841 439 823 q 354 860 389 860 q 278 836 309 860 q 227 772 248 812 q 195 684 207 733 q 178 585 184 635 q 172 488 173 534 q 171 408 171 441 q 172 351 171 383 q 179 285 174 319 q 194 219 184 252 q 221 162 204 187 q 262 121 237 137 q 323 106 288 106 q 397 128 367 106 q 448 187 428 151 q 479 269 468 223 q 496 360 490 314 q 502 448 501 406 q 503 519 503 490 m 555 1190 l 404 1032 l 340 1053 l 429 1223 l 555 1190 z "},"Ô":{"ha":681,"x_min":43,"x_max":636,"o":"m 636 528 q 633 410 636 473 q 618 287 629 348 q 586 169 607 226 q 529 70 564 113 q 441 1 493 27 q 316 -24 389 -24 q 217 -4 259 -24 q 145 52 175 17 q 95 132 115 86 q 64 226 75 177 q 48 326 52 275 q 43 419 43 376 q 47 538 43 474 q 64 665 52 602 q 98 786 76 728 q 156 889 120 844 q 245 961 193 934 q 369 987 297 987 q 468 965 426 987 q 540 906 511 943 q 588 822 570 869 q 618 723 607 774 q 632 622 629 672 q 636 528 636 571 m 503 519 q 502 577 503 543 q 496 649 500 611 q 481 724 491 686 q 455 792 472 762 q 414 841 439 823 q 354 860 389 860 q 278 836 309 860 q 227 772 248 812 q 195 684 207 733 q 178 585 184 635 q 172 488 173 534 q 171 408 171 441 q 172 351 171 383 q 179 285 174 319 q 194 219 184 252 q 221 162 204 187 q 262 121 237 137 q 323 106 288 106 q 397 128 367 106 q 448 187 428 151 q 479 269 468 223 q 496 360 490 314 q 502 448 501 406 q 503 519 503 490 m 510 1039 l 414 1019 l 351 1137 l 292 1019 l 197 1039 l 307 1203 l 399 1210 l 510 1039 z "},"Ò":{"ha":681,"x_min":43,"x_max":636,"o":"m 636 528 q 633 410 636 473 q 618 287 629 348 q 586 169 607 226 q 529 70 564 113 q 441 1 493 27 q 316 -24 389 -24 q 217 -4 259 -24 q 145 52 175 17 q 95 132 115 86 q 64 226 75 177 q 48 326 52 275 q 43 419 43 376 q 47 538 43 474 q 64 665 52 602 q 98 786 76 728 q 156 889 120 844 q 245 961 193 934 q 369 987 297 987 q 468 965 426 987 q 540 906 511 943 q 588 822 570 869 q 618 723 607 774 q 632 622 629 672 q 636 528 636 571 m 503 519 q 502 577 503 543 q 496 649 500 611 q 481 724 491 686 q 455 792 472 762 q 414 841 439 823 q 354 860 389 860 q 278 836 309 860 q 227 772 248 812 q 195 684 207 733 q 178 585 184 635 q 172 488 173 534 q 171 408 171 441 q 172 351 171 383 q 179 285 174 319 q 194 219 184 252 q 221 162 204 187 q 262 121 237 137 q 323 106 288 106 q 397 128 367 106 q 448 187 428 151 q 479 269 468 223 q 496 360 490 314 q 502 448 501 406 q 503 519 503 490 m 378 1053 l 316 1032 l 164 1190 l 290 1223 l 378 1053 z "},"Ú":{"ha":749,"x_min":26,"x_max":725,"o":"m 725 859 l 648 852 l 648 490 q 644 381 647 439 q 631 266 641 323 q 602 156 621 209 q 550 64 583 104 q 471 0 518 24 q 357 -24 424 -24 q 259 -3 300 -24 q 189 55 218 19 q 142 139 160 92 q 115 236 125 186 q 102 337 105 287 q 98 430 98 387 q 103 630 98 530 q 111 831 107 730 l 26 829 l 33 960 l 302 960 l 313 838 l 234 831 q 225 623 231 727 q 220 415 220 519 q 221 358 220 390 q 226 291 222 326 q 239 223 230 256 q 263 164 248 190 q 304 122 279 138 q 364 106 328 106 q 433 126 405 106 q 478 180 460 146 q 505 255 496 213 q 519 340 515 297 q 524 423 523 382 q 524 492 524 463 l 524 852 l 440 849 l 447 981 l 715 981 l 725 859 m 550 1149 l 399 991 l 336 1012 l 424 1183 l 550 1149 z "},"Û":{"ha":749,"x_min":26,"x_max":725,"o":"m 725 859 l 648 852 l 648 490 q 644 381 647 439 q 631 266 641 323 q 602 156 621 209 q 550 64 583 104 q 471 0 518 24 q 357 -24 424 -24 q 259 -3 300 -24 q 189 55 218 19 q 142 139 160 92 q 115 236 125 186 q 102 337 105 287 q 98 430 98 387 q 103 630 98 530 q 111 831 107 730 l 26 829 l 33 960 l 302 960 l 313 838 l 234 831 q 225 623 231 727 q 220 415 220 519 q 221 358 220 390 q 226 291 222 326 q 239 223 230 256 q 263 164 248 190 q 304 122 279 138 q 364 106 328 106 q 433 126 405 106 q 478 180 460 146 q 505 255 496 213 q 519 340 515 297 q 524 423 523 382 q 524 492 524 463 l 524 852 l 440 849 l 447 981 l 715 981 l 725 859 m 532 1039 l 436 1019 l 374 1137 l 314 1019 l 219 1039 l 329 1203 l 421 1210 l 532 1039 z "},"Ù":{"ha":749,"x_min":26,"x_max":725,"o":"m 725 859 l 648 852 l 648 490 q 644 381 647 439 q 631 266 641 323 q 602 156 621 209 q 550 64 583 104 q 471 0 518 24 q 357 -24 424 -24 q 259 -3 300 -24 q 189 55 218 19 q 142 139 160 92 q 115 236 125 186 q 102 337 105 287 q 98 430 98 387 q 103 630 98 530 q 111 831 107 730 l 26 829 l 33 960 l 302 960 l 313 838 l 234 831 q 225 623 231 727 q 220 415 220 519 q 221 358 220 390 q 226 291 222 326 q 239 223 230 256 q 263 164 248 190 q 304 122 279 138 q 364 106 328 106 q 433 126 405 106 q 478 180 460 146 q 505 255 496 213 q 519 340 515 297 q 524 423 523 382 q 524 492 524 463 l 524 852 l 440 849 l 447 981 l 715 981 l 725 859 m 414 1025 l 352 1005 l 200 1162 l 326 1196 l 414 1025 z "},"Ä":{"ha":651,"x_min":-5,"x_max":660,"o":"m 660 110 l 650 -19 l 375 -12 l 368 119 l 452 117 l 417 315 l 238 307 l 210 130 l 288 123 l 277 1 l 2 1 l -5 133 l 79 130 l 227 854 l 158 852 l 151 967 l 497 974 l 490 865 l 422 863 l 576 117 l 660 110 m 398 420 l 325 837 l 257 420 l 398 420 m 490 1080 q 472 1035 490 1053 q 428 1017 454 1017 q 384 1036 401 1017 q 367 1080 367 1054 q 385 1125 367 1106 q 429 1143 403 1143 q 473 1125 456 1143 q 490 1080 490 1106 m 300 1080 q 281 1029 300 1050 q 231 1009 261 1009 q 204 1015 217 1009 q 183 1030 192 1021 q 169 1053 174 1040 q 163 1080 163 1066 q 184 1130 163 1109 q 234 1150 204 1150 q 261 1144 249 1150 q 282 1129 273 1139 q 296 1107 291 1120 q 300 1080 300 1094 z "},"Å":{"ha":651,"x_min":-5,"x_max":660,"o":"m 660 110 l 650 -19 l 375 -12 l 368 119 l 452 117 l 417 315 l 238 307 l 210 130 l 288 123 l 277 1 l 2 1 l -5 133 l 79 130 l 227 854 l 158 852 l 151 967 l 497 974 l 490 865 l 422 863 l 576 117 l 660 110 m 398 420 l 325 837 l 257 420 l 398 420 m 451 1119 q 442 1071 451 1093 q 416 1032 433 1048 q 378 1005 400 1015 q 330 996 356 996 q 282 1005 304 996 q 242 1031 259 1015 q 214 1069 224 1047 q 204 1118 204 1092 q 214 1166 204 1143 q 239 1206 223 1189 q 278 1233 256 1223 q 326 1242 300 1242 q 375 1233 353 1242 q 415 1208 398 1224 q 441 1169 432 1192 q 451 1119 451 1146 m 387 1124 q 370 1167 387 1151 q 326 1183 353 1183 q 301 1177 312 1183 q 283 1162 290 1171 q 272 1141 275 1153 q 268 1116 268 1129 q 285 1074 268 1090 q 329 1058 302 1058 q 372 1077 357 1058 q 387 1124 387 1097 z "},"Ç":{"ha":701,"x_min":40,"x_max":667,"o":"m 454 -141 q 445 -183 454 -165 q 420 -215 435 -202 q 385 -235 405 -228 q 342 -241 365 -241 q 320 -240 332 -241 q 295 -236 307 -239 q 271 -228 282 -233 q 252 -216 259 -223 l 284 -156 q 307 -169 292 -162 q 333 -175 321 -175 q 365 -168 353 -175 q 376 -140 376 -160 q 370 -118 376 -127 q 355 -103 364 -109 q 334 -94 345 -97 q 313 -92 323 -92 l 307 -92 l 323 -5 q 230 27 271 1 q 157 94 189 54 q 103 183 125 134 q 67 286 81 233 q 46 390 53 338 q 40 486 40 442 q 46 594 40 537 q 67 706 53 651 q 106 812 82 762 q 166 900 130 862 q 251 961 202 938 q 363 983 300 983 q 470 954 427 983 q 546 871 513 924 l 547 982 l 667 979 l 652 633 l 545 637 q 534 687 541 661 q 518 737 528 713 q 494 784 508 762 q 463 822 481 806 q 421 849 444 839 q 370 859 398 859 q 295 840 327 859 q 241 791 264 822 q 204 722 219 761 q 182 642 190 683 q 171 562 174 602 q 168 491 168 522 q 170 423 168 462 q 181 342 173 384 q 202 261 189 301 q 237 189 216 220 q 288 138 258 157 q 359 118 318 118 q 442 140 408 118 q 496 196 475 161 q 527 272 517 230 q 541 357 537 315 l 648 357 q 632 230 648 292 q 586 118 617 168 q 507 35 555 68 q 394 -5 459 2 l 372 -49 q 406 -57 391 -49 q 432 -77 421 -64 q 448 -107 442 -90 q 454 -141 454 -123 z "},"É":{"ha":646,"x_min":44,"x_max":612,"o":"m 612 704 l 512 697 l 498 837 l 252 831 l 249 529 l 455 529 l 455 431 l 248 419 l 245 117 l 498 126 l 498 275 l 599 275 l 606 5 l 54 -8 l 50 117 l 130 117 l 128 831 l 44 829 l 51 960 l 606 967 l 612 704 m 503 1162 l 352 1005 l 288 1025 l 376 1196 l 503 1162 z "},"Ñ":{"ha":791,"x_min":39,"x_max":768,"o":"m 768 845 l 690 838 l 669 -5 l 551 -8 l 246 730 l 253 132 l 345 134 l 345 12 l 55 5 l 51 132 l 131 132 l 123 825 l 39 822 l 45 954 l 273 954 l 561 233 l 561 838 l 475 836 l 482 967 l 759 967 l 768 845 m 568 1061 q 546 1044 558 1053 q 521 1029 534 1036 q 494 1019 508 1023 q 467 1015 480 1015 q 433 1023 450 1015 q 401 1042 416 1032 q 370 1061 385 1053 q 340 1070 355 1070 q 321 1063 332 1070 q 299 1046 310 1056 q 279 1026 288 1036 q 265 1010 270 1016 l 238 1092 q 258 1113 246 1101 q 284 1134 270 1124 q 313 1151 298 1144 q 341 1157 328 1157 q 374 1148 359 1157 q 403 1130 389 1140 q 433 1111 418 1120 q 467 1103 448 1103 q 508 1116 488 1103 q 541 1143 528 1129 l 568 1061 z "},"Ö":{"ha":681,"x_min":43,"x_max":636,"o":"m 636 528 q 633 410 636 473 q 618 287 629 348 q 586 169 607 226 q 529 70 564 113 q 441 1 493 27 q 316 -24 389 -24 q 217 -4 259 -24 q 145 52 175 17 q 95 132 115 86 q 64 226 75 177 q 48 326 52 275 q 43 419 43 376 q 47 538 43 474 q 64 665 52 602 q 98 786 76 728 q 156 889 120 844 q 245 961 193 934 q 369 987 297 987 q 468 965 426 987 q 540 906 511 943 q 588 822 570 869 q 618 723 607 774 q 632 622 629 672 q 636 528 636 571 m 503 519 q 502 577 503 543 q 496 649 500 611 q 481 724 491 686 q 455 792 472 762 q 414 841 439 823 q 354 860 389 860 q 278 836 309 860 q 227 772 248 812 q 195 684 207 733 q 178 585 184 635 q 172 488 173 534 q 171 408 171 441 q 172 351 171 383 q 179 285 174 319 q 194 219 184 252 q 221 162 204 187 q 262 121 237 137 q 323 106 288 106 q 397 128 367 106 q 448 187 428 151 q 479 269 468 223 q 496 360 490 314 q 502 448 501 406 q 503 519 503 490 m 503 1080 q 485 1035 503 1053 q 441 1017 467 1017 q 397 1036 414 1017 q 380 1080 380 1054 q 398 1125 380 1106 q 442 1143 416 1143 q 486 1125 469 1143 q 503 1080 503 1106 m 313 1080 q 294 1029 313 1050 q 244 1009 274 1009 q 217 1015 230 1009 q 196 1030 205 1021 q 181 1053 186 1040 q 176 1080 176 1066 q 197 1130 176 1109 q 247 1150 217 1150 q 274 1144 262 1150 q 295 1129 286 1139 q 309 1107 304 1120 q 313 1080 313 1094 z "},"Ü":{"ha":749,"x_min":26,"x_max":725,"o":"m 725 859 l 648 852 l 648 490 q 644 381 647 439 q 631 266 641 323 q 602 156 621 209 q 550 64 583 104 q 471 0 518 24 q 357 -24 424 -24 q 259 -3 300 -24 q 189 55 218 19 q 142 139 160 92 q 115 236 125 186 q 102 337 105 287 q 98 430 98 387 q 103 630 98 530 q 111 831 107 730 l 26 829 l 33 960 l 302 960 l 313 838 l 234 831 q 225 623 231 727 q 220 415 220 519 q 221 358 220 390 q 226 291 222 326 q 239 223 230 256 q 263 164 248 190 q 304 122 279 138 q 364 106 328 106 q 433 126 405 106 q 478 180 460 146 q 505 255 496 213 q 519 340 515 297 q 524 423 523 382 q 524 492 524 463 l 524 852 l 440 849 l 447 981 l 715 981 l 725 859 m 539 1080 q 521 1035 539 1053 q 477 1017 503 1017 q 433 1036 450 1017 q 416 1080 416 1054 q 434 1125 416 1106 q 478 1143 452 1143 q 522 1125 505 1143 q 539 1080 539 1106 m 349 1080 q 330 1029 349 1050 q 280 1009 310 1009 q 253 1015 266 1009 q 232 1030 241 1021 q 217 1053 222 1040 q 212 1080 212 1066 q 233 1130 212 1109 q 283 1150 253 1150 q 310 1144 298 1150 q 331 1129 322 1139 q 345 1107 340 1120 q 349 1080 349 1094 z "},"á":{"ha":519,"x_min":42,"x_max":502,"o":"m 502 115 l 499 7 l 359 -7 l 353 72 q 320 42 338 56 q 280 17 301 28 q 236 0 258 6 q 191 -7 213 -7 q 120 10 149 -7 q 74 54 92 26 q 50 117 57 81 q 42 189 42 152 q 57 273 42 235 q 100 337 73 311 q 166 379 127 364 q 251 393 205 393 q 287 391 269 393 q 323 382 305 389 q 324 404 324 394 q 324 426 324 414 q 323 446 324 432 q 321 477 323 460 q 316 513 319 494 q 307 547 313 532 q 293 572 301 562 q 274 582 286 582 q 249 573 261 582 q 226 550 237 564 q 206 519 215 536 q 189 485 197 502 q 176 453 182 468 q 168 430 171 439 l 53 435 l 49 688 l 161 690 l 161 591 q 180 628 168 609 q 207 662 191 647 q 240 687 222 677 q 281 697 259 697 q 364 682 332 697 q 412 638 395 666 q 434 570 429 610 q 439 483 439 530 q 438 299 439 391 q 429 115 437 208 l 502 115 m 327 161 l 327 260 q 299 278 317 274 q 264 282 280 282 q 185 258 216 282 q 155 182 155 234 q 172 128 155 150 q 222 106 189 106 q 251 109 233 106 q 286 119 269 112 q 315 136 302 125 q 327 161 327 146 m 446 911 l 296 754 l 232 774 l 320 945 l 446 911 z "},"à":{"ha":519,"x_min":42,"x_max":502,"o":"m 502 115 l 499 7 l 359 -7 l 353 72 q 320 42 338 56 q 280 17 301 28 q 236 0 258 6 q 191 -7 213 -7 q 120 10 149 -7 q 74 54 92 26 q 50 117 57 81 q 42 189 42 152 q 57 273 42 235 q 100 337 73 311 q 166 379 127 364 q 251 393 205 393 q 287 391 269 393 q 323 382 305 389 q 324 404 324 394 q 324 426 324 414 q 323 446 324 432 q 321 477 323 460 q 316 513 319 494 q 307 547 313 532 q 293 572 301 562 q 274 582 286 582 q 249 573 261 582 q 226 550 237 564 q 206 519 215 536 q 189 485 197 502 q 176 453 182 468 q 168 430 171 439 l 53 435 l 49 688 l 161 690 l 161 591 q 180 628 168 609 q 207 662 191 647 q 240 687 222 677 q 281 697 259 697 q 364 682 332 697 q 412 638 395 666 q 434 570 429 610 q 439 483 439 530 q 438 299 439 391 q 429 115 437 208 l 502 115 m 327 161 l 327 260 q 299 278 317 274 q 264 282 280 282 q 185 258 216 282 q 155 182 155 234 q 172 128 155 150 q 222 106 189 106 q 251 109 233 106 q 286 119 269 112 q 315 136 302 125 q 327 161 327 146 m 311 774 l 248 754 l 96 911 l 222 945 l 311 774 z "},"â":{"ha":519,"x_min":42,"x_max":502,"o":"m 502 115 l 499 7 l 359 -7 l 353 72 q 320 42 338 56 q 280 17 301 28 q 236 0 258 6 q 191 -7 213 -7 q 120 10 149 -7 q 74 54 92 26 q 50 117 57 81 q 42 189 42 152 q 57 273 42 235 q 100 337 73 311 q 166 379 127 364 q 251 393 205 393 q 287 391 269 393 q 323 382 305 389 q 324 404 324 394 q 324 426 324 414 q 323 446 324 432 q 321 477 323 460 q 316 513 319 494 q 307 547 313 532 q 293 572 301 562 q 274 582 286 582 q 249 573 261 582 q 226 550 237 564 q 206 519 215 536 q 189 485 197 502 q 176 453 182 468 q 168 430 171 439 l 53 435 l 49 688 l 161 690 l 161 591 q 180 628 168 609 q 207 662 191 647 q 240 687 222 677 q 281 697 259 697 q 364 682 332 697 q 412 638 395 666 q 434 570 429 610 q 439 483 439 530 q 438 299 439 391 q 429 115 437 208 l 502 115 m 327 161 l 327 260 q 299 278 317 274 q 264 282 280 282 q 185 258 216 282 q 155 182 155 234 q 172 128 155 150 q 222 106 189 106 q 251 109 233 106 q 286 119 269 112 q 315 136 302 125 q 327 161 327 146 m 429 762 l 332 741 l 270 859 l 210 741 l 115 762 l 225 926 l 317 932 l 429 762 z "},"ä":{"ha":519,"x_min":42,"x_max":502,"o":"m 502 115 l 499 7 l 359 -7 l 353 72 q 320 42 338 56 q 280 17 301 28 q 236 0 258 6 q 191 -7 213 -7 q 120 10 149 -7 q 74 54 92 26 q 50 117 57 81 q 42 189 42 152 q 57 273 42 235 q 100 337 73 311 q 166 379 127 364 q 251 393 205 393 q 287 391 269 393 q 323 382 305 389 q 324 404 324 394 q 324 426 324 414 q 323 446 324 432 q 321 477 323 460 q 316 513 319 494 q 307 547 313 532 q 293 572 301 562 q 274 582 286 582 q 249 573 261 582 q 226 550 237 564 q 206 519 215 536 q 189 485 197 502 q 176 453 182 468 q 168 430 171 439 l 53 435 l 49 688 l 161 690 l 161 591 q 180 628 168 609 q 207 662 191 647 q 240 687 222 677 q 281 697 259 697 q 364 682 332 697 q 412 638 395 666 q 434 570 429 610 q 439 483 439 530 q 438 299 439 391 q 429 115 437 208 l 502 115 m 327 161 l 327 260 q 299 278 317 274 q 264 282 280 282 q 185 258 216 282 q 155 182 155 234 q 172 128 155 150 q 222 106 189 106 q 251 109 233 106 q 286 119 269 112 q 315 136 302 125 q 327 161 327 146 m 422 816 q 404 771 422 789 q 359 753 386 753 q 316 772 333 753 q 298 816 298 790 q 316 861 298 842 q 361 880 334 880 q 405 861 387 880 q 422 816 422 842 m 232 816 q 212 766 232 786 q 163 745 193 745 q 136 751 149 745 q 114 767 123 757 q 100 789 105 777 q 95 816 95 802 q 115 866 95 846 q 165 886 136 886 q 193 881 180 886 q 214 865 205 875 q 227 843 222 856 q 232 816 232 830 z "},"ã":{"ha":519,"x_min":42,"x_max":502,"o":"m 502 115 l 499 7 l 359 -7 l 353 72 q 320 42 338 56 q 280 17 301 28 q 236 0 258 6 q 191 -7 213 -7 q 120 10 149 -7 q 74 54 92 26 q 50 117 57 81 q 42 189 42 152 q 57 273 42 235 q 100 337 73 311 q 166 379 127 364 q 251 393 205 393 q 287 391 269 393 q 323 382 305 389 q 324 404 324 394 q 324 426 324 414 q 323 446 324 432 q 321 477 323 460 q 316 513 319 494 q 307 547 313 532 q 293 572 301 562 q 274 582 286 582 q 249 573 261 582 q 226 550 237 564 q 206 519 215 536 q 189 485 197 502 q 176 453 182 468 q 168 430 171 439 l 53 435 l 49 688 l 161 690 l 161 591 q 180 628 168 609 q 207 662 191 647 q 240 687 222 677 q 281 697 259 697 q 364 682 332 697 q 412 638 395 666 q 434 570 429 610 q 439 483 439 530 q 438 299 439 391 q 429 115 437 208 l 502 115 m 327 161 l 327 260 q 299 278 317 274 q 264 282 280 282 q 185 258 216 282 q 155 182 155 234 q 172 128 155 150 q 222 106 189 106 q 251 109 233 106 q 286 119 269 112 q 315 136 302 125 q 327 161 327 146 m 437 797 q 415 781 427 789 q 390 766 404 772 q 363 755 377 759 q 336 751 349 751 q 302 760 319 751 q 270 779 286 768 q 239 798 254 789 q 209 806 224 806 q 190 799 201 806 q 168 782 179 792 q 148 762 157 772 q 134 747 139 752 l 107 828 q 127 849 115 838 q 153 870 139 861 q 182 887 167 880 q 210 893 197 893 q 243 885 228 893 q 272 866 258 876 q 302 847 287 856 q 336 839 317 839 q 377 852 357 839 q 410 880 397 865 l 437 797 z "},"å":{"ha":519,"x_min":42,"x_max":502,"o":"m 502 115 l 499 7 l 359 -7 l 353 72 q 320 42 338 56 q 280 17 301 28 q 236 0 258 6 q 191 -7 213 -7 q 120 10 149 -7 q 74 54 92 26 q 50 117 57 81 q 42 189 42 152 q 57 273 42 235 q 100 337 73 311 q 166 379 127 364 q 251 393 205 393 q 287 391 269 393 q 323 382 305 389 q 324 404 324 394 q 324 426 324 414 q 323 446 324 432 q 321 477 323 460 q 316 513 319 494 q 307 547 313 532 q 293 572 301 562 q 274 582 286 582 q 249 573 261 582 q 226 550 237 564 q 206 519 215 536 q 189 485 197 502 q 176 453 182 468 q 168 430 171 439 l 53 435 l 49 688 l 161 690 l 161 591 q 180 628 168 609 q 207 662 191 647 q 240 687 222 677 q 281 697 259 697 q 364 682 332 697 q 412 638 395 666 q 434 570 429 610 q 439 483 439 530 q 438 299 439 391 q 429 115 437 208 l 502 115 m 327 161 l 327 260 q 299 278 317 274 q 264 282 280 282 q 185 258 216 282 q 155 182 155 234 q 172 128 155 150 q 222 106 189 106 q 251 109 233 106 q 286 119 269 112 q 315 136 302 125 q 327 161 327 146 m 395 855 q 386 807 395 829 q 360 768 376 785 q 322 742 344 751 q 274 732 300 732 q 225 741 248 732 q 185 767 203 751 q 158 806 168 783 q 148 854 148 828 q 157 902 148 880 q 183 942 167 925 q 222 969 199 959 q 270 979 244 979 q 319 969 296 979 q 359 944 342 960 q 385 905 376 928 q 395 855 395 882 m 331 861 q 314 903 331 887 q 270 919 296 919 q 245 913 256 919 q 227 898 234 907 q 215 877 219 889 q 212 852 212 865 q 229 810 212 826 q 273 794 246 794 q 316 813 301 794 q 331 861 331 833 z "},"ç":{"ha":500,"x_min":35,"x_max":466,"o":"m 347 -134 q 337 -177 347 -158 q 313 -208 328 -195 q 278 -228 298 -221 q 235 -235 258 -235 q 213 -233 225 -235 q 188 -229 200 -232 q 163 -221 175 -226 q 144 -209 152 -216 l 177 -149 q 200 -162 185 -155 q 226 -168 214 -168 q 257 -161 245 -168 q 269 -133 269 -153 q 263 -111 269 -120 q 248 -96 257 -102 q 227 -87 238 -90 q 205 -85 216 -85 l 200 -85 l 216 -1 q 149 24 178 5 q 100 70 121 43 q 67 131 80 97 q 47 201 55 165 q 37 275 40 237 q 35 347 35 313 q 39 419 35 380 q 53 497 43 458 q 79 574 62 536 q 119 640 95 611 q 175 685 143 668 q 250 703 208 703 q 315 685 284 703 q 367 642 345 667 l 380 700 l 466 693 l 459 415 l 349 418 q 344 466 349 437 q 330 522 340 494 q 302 569 319 549 q 257 589 284 589 q 220 574 235 589 q 195 538 205 560 q 178 488 184 515 q 169 433 172 460 q 165 382 166 406 q 165 345 165 359 q 165 306 165 329 q 168 256 165 282 q 175 204 170 230 q 191 157 180 178 q 217 123 201 136 q 257 110 233 110 q 303 129 285 110 q 333 175 321 148 q 348 231 344 201 q 353 281 353 260 l 462 281 q 457 221 461 252 q 443 161 452 191 q 419 103 433 131 q 385 54 405 76 q 340 17 366 32 q 284 -3 315 2 l 265 -42 q 299 -50 284 -42 q 325 -71 314 -58 q 341 -100 335 -83 q 347 -134 347 -117 z "},"é":{"ha":487,"x_min":36,"x_max":452,"o":"m 452 411 q 448 302 452 355 l 157 297 q 158 263 157 283 q 162 221 159 243 q 171 177 165 199 q 186 139 177 156 q 210 111 196 121 q 243 100 224 100 q 280 112 264 100 q 305 139 295 123 q 320 176 315 156 q 328 213 326 195 l 446 213 q 425 135 439 174 q 387 64 411 96 q 330 12 363 32 q 250 -8 296 -8 q 169 10 203 -8 q 111 58 134 28 q 72 126 87 87 q 49 207 57 165 q 39 291 41 249 q 36 369 36 333 q 40 439 36 401 q 52 515 43 477 q 76 587 61 552 q 115 647 92 621 q 170 689 138 673 q 243 705 201 705 q 357 683 315 705 q 419 620 398 660 q 447 527 441 581 q 452 411 452 473 m 334 450 q 332 496 334 471 q 321 545 330 522 q 296 584 313 568 q 253 600 280 600 q 213 589 229 600 q 186 562 197 578 q 169 523 175 545 q 160 478 163 500 q 156 433 157 455 q 155 395 155 412 l 330 395 q 334 450 334 423 m 446 911 l 295 754 l 231 774 l 319 945 l 446 911 z "},"è":{"ha":487,"x_min":36,"x_max":452,"o":"m 452 411 q 448 302 452 355 l 157 297 q 158 263 157 283 q 162 221 159 243 q 171 177 165 199 q 186 139 177 156 q 210 111 196 121 q 243 100 224 100 q 280 112 264 100 q 305 139 295 123 q 320 176 315 156 q 328 213 326 195 l 446 213 q 425 135 439 174 q 387 64 411 96 q 330 12 363 32 q 250 -8 296 -8 q 169 10 203 -8 q 111 58 134 28 q 72 126 87 87 q 49 207 57 165 q 39 291 41 249 q 36 369 36 333 q 40 439 36 401 q 52 515 43 477 q 76 587 61 552 q 115 647 92 621 q 170 689 138 673 q 243 705 201 705 q 357 683 315 705 q 419 620 398 660 q 447 527 441 581 q 452 411 452 473 m 334 450 q 332 496 334 471 q 321 545 330 522 q 296 584 313 568 q 253 600 280 600 q 213 589 229 600 q 186 562 197 578 q 169 523 175 545 q 160 478 163 500 q 156 433 157 455 q 155 395 155 412 l 330 395 q 334 450 334 423 m 283 774 l 220 754 l 68 911 l 195 945 l 283 774 z "},"ê":{"ha":487,"x_min":36,"x_max":452,"o":"m 452 411 q 448 302 452 355 l 157 297 q 158 263 157 283 q 162 221 159 243 q 171 177 165 199 q 186 139 177 156 q 210 111 196 121 q 243 100 224 100 q 280 112 264 100 q 305 139 295 123 q 320 176 315 156 q 328 213 326 195 l 446 213 q 425 135 439 174 q 387 64 411 96 q 330 12 363 32 q 250 -8 296 -8 q 169 10 203 -8 q 111 58 134 28 q 72 126 87 87 q 49 207 57 165 q 39 291 41 249 q 36 369 36 333 q 40 439 36 401 q 52 515 43 477 q 76 587 61 552 q 115 647 92 621 q 170 689 138 673 q 243 705 201 705 q 357 683 315 705 q 419 620 398 660 q 447 527 441 581 q 452 411 452 473 m 334 450 q 332 496 334 471 q 321 545 330 522 q 296 584 313 568 q 253 600 280 600 q 213 589 229 600 q 186 562 197 578 q 169 523 175 545 q 160 478 163 500 q 156 433 157 455 q 155 395 155 412 l 330 395 q 334 450 334 423 m 401 762 l 304 741 l 242 859 l 182 741 l 87 762 l 197 926 l 290 932 l 401 762 z "},"ë":{"ha":487,"x_min":36,"x_max":452,"o":"m 452 411 q 448 302 452 355 l 157 297 q 158 263 157 283 q 162 221 159 243 q 171 177 165 199 q 186 139 177 156 q 210 111 196 121 q 243 100 224 100 q 280 112 264 100 q 305 139 295 123 q 320 176 315 156 q 328 213 326 195 l 446 213 q 425 135 439 174 q 387 64 411 96 q 330 12 363 32 q 250 -8 296 -8 q 169 10 203 -8 q 111 58 134 28 q 72 126 87 87 q 49 207 57 165 q 39 291 41 249 q 36 369 36 333 q 40 439 36 401 q 52 515 43 477 q 76 587 61 552 q 115 647 92 621 q 170 689 138 673 q 243 705 201 705 q 357 683 315 705 q 419 620 398 660 q 447 527 441 581 q 452 411 452 473 m 334 450 q 332 496 334 471 q 321 545 330 522 q 296 584 313 568 q 253 600 280 600 q 213 589 229 600 q 186 562 197 578 q 169 523 175 545 q 160 478 163 500 q 156 433 157 455 q 155 395 155 412 l 330 395 q 334 450 334 423 m 408 816 q 390 771 408 789 q 345 753 372 753 q 301 772 319 753 q 284 816 284 790 q 302 861 284 842 q 347 880 320 880 q 390 861 373 880 q 408 816 408 842 m 218 816 q 198 766 218 786 q 149 745 178 745 q 122 751 134 745 q 100 767 109 757 q 86 789 91 777 q 81 816 81 802 q 101 866 81 846 q 151 886 121 886 q 178 881 166 886 q 199 865 191 875 q 213 843 208 856 q 218 816 218 830 z "},"í":{"ha":311,"x_min":16,"x_max":342,"o":"m 294 95 l 290 -18 l 41 -7 l 41 111 l 98 115 l 98 572 l 16 572 l 18 690 l 237 690 l 220 102 l 294 95 m 342 899 l 192 741 l 128 762 l 216 932 l 342 899 z "},"ì":{"ha":310,"x_min":-20,"x_max":294,"o":"m 294 95 l 290 -18 l 41 -7 l 41 111 l 98 115 l 98 572 l 16 572 l 18 690 l 237 690 l 220 102 l 294 95 m 194 762 l 132 741 l -20 899 l 106 932 l 194 762 z "},"î":{"ha":310,"x_min":-1,"x_max":312,"o":"m 294 95 l 290 -18 l 41 -7 l 41 111 l 98 115 l 98 572 l 16 572 l 18 690 l 237 690 l 220 102 l 294 95 m 312 762 l 216 741 l 153 859 l 94 741 l -1 762 l 109 926 l 201 932 l 312 762 z "},"ï":{"ha":310,"x_min":-8,"x_max":319,"o":"m 294 95 l 290 -18 l 41 -7 l 41 111 l 98 115 l 98 572 l 16 572 l 18 690 l 237 690 l 220 102 l 294 95 m 319 816 q 301 771 319 789 q 256 753 283 753 q 213 772 230 753 q 195 816 195 790 q 213 861 195 842 q 258 880 231 880 q 301 861 284 880 q 319 816 319 842 m 129 816 q 109 766 129 786 q 60 745 90 745 q 33 751 45 745 q 11 767 20 757 q -3 789 2 777 q -8 816 -8 802 q 12 866 -8 846 q 62 886 33 886 q 90 881 77 886 q 111 865 102 875 q 124 843 119 856 q 129 816 129 830 z "},"ñ":{"ha":601,"x_min":16,"x_max":584,"o":"m 584 96 l 570 -12 l 342 -3 l 340 107 l 399 114 q 403 298 401 206 q 405 481 405 389 q 402 515 405 498 q 391 548 399 533 q 371 572 384 563 q 337 582 357 582 q 287 565 307 582 q 253 524 266 549 q 234 471 240 500 q 227 419 228 443 q 223 267 224 342 q 220 114 222 191 l 280 114 l 287 4 l 52 1 l 52 126 l 119 130 l 115 571 l 16 578 l 18 693 l 214 700 l 218 604 q 250 643 231 624 q 291 675 269 661 q 338 698 313 690 q 389 707 363 707 q 441 696 419 707 q 477 669 463 686 q 501 628 492 651 q 514 580 509 606 q 520 529 519 555 q 522 479 522 503 q 519 291 522 385 q 515 103 517 197 l 584 96 m 465 797 q 443 781 455 789 q 418 766 431 772 q 391 755 405 759 q 364 751 377 751 q 330 760 347 751 q 298 779 313 768 q 267 798 282 789 q 237 806 252 806 q 218 799 229 806 q 196 782 207 792 q 176 762 185 772 q 162 747 167 752 l 135 828 q 155 849 143 838 q 181 870 167 861 q 210 887 195 880 q 238 893 224 893 q 271 885 256 893 q 300 866 286 876 q 330 847 315 856 q 364 839 345 839 q 405 852 385 839 q 437 880 425 865 l 465 797 z "},"ó":{"ha":500,"x_min":34,"x_max":467,"o":"m 467 369 q 463 294 467 335 q 448 210 458 252 q 421 127 438 168 q 380 56 405 87 q 321 5 355 24 q 243 -14 288 -14 q 169 2 201 -14 q 114 44 137 18 q 75 105 91 71 q 51 177 60 140 q 38 252 41 214 q 34 323 34 290 q 38 399 34 357 q 52 484 42 441 q 78 568 62 527 q 120 640 95 608 q 178 690 144 671 q 258 709 212 709 q 331 693 299 709 q 386 650 362 677 q 424 587 409 623 q 449 514 439 552 q 463 439 458 477 q 467 369 467 401 m 359 373 q 358 410 359 387 q 353 457 357 432 q 342 507 349 482 q 325 553 336 532 q 298 586 314 573 q 260 598 282 598 q 215 582 234 598 q 183 541 197 566 q 162 485 170 516 q 150 424 154 454 q 144 366 145 393 q 142 321 142 338 q 144 285 142 307 q 149 238 145 263 q 160 188 153 213 q 178 143 168 163 q 205 110 189 123 q 241 98 220 98 q 286 113 267 98 q 318 154 304 129 q 339 209 331 178 q 352 270 347 239 q 358 328 356 301 q 359 373 359 355 m 438 911 l 288 754 l 224 774 l 312 945 l 438 911 z "},"ò":{"ha":500,"x_min":34,"x_max":467,"o":"m 467 369 q 463 294 467 335 q 448 210 458 252 q 421 127 438 168 q 380 56 405 87 q 321 5 355 24 q 243 -14 288 -14 q 169 2 201 -14 q 114 44 137 18 q 75 105 91 71 q 51 177 60 140 q 38 252 41 214 q 34 323 34 290 q 38 399 34 357 q 52 484 42 441 q 78 568 62 527 q 120 640 95 608 q 178 690 144 671 q 258 709 212 709 q 331 693 299 709 q 386 650 362 677 q 424 587 409 623 q 449 514 439 552 q 463 439 458 477 q 467 369 467 401 m 359 373 q 358 410 359 387 q 353 457 357 432 q 342 507 349 482 q 325 553 336 532 q 298 586 314 573 q 260 598 282 598 q 215 582 234 598 q 183 541 197 566 q 162 485 170 516 q 150 424 154 454 q 144 366 145 393 q 142 321 142 338 q 144 285 142 307 q 149 238 145 263 q 160 188 153 213 q 178 143 168 163 q 205 110 189 123 q 241 98 220 98 q 286 113 267 98 q 318 154 304 129 q 339 209 331 178 q 352 270 347 239 q 358 328 356 301 q 359 373 359 355 m 289 774 l 227 754 l 75 911 l 201 945 l 289 774 z "},"ô":{"ha":500,"x_min":34,"x_max":467,"o":"m 467 369 q 463 294 467 335 q 448 210 458 252 q 421 127 438 168 q 380 56 405 87 q 321 5 355 24 q 243 -14 288 -14 q 169 2 201 -14 q 114 44 137 18 q 75 105 91 71 q 51 177 60 140 q 38 252 41 214 q 34 323 34 290 q 38 399 34 357 q 52 484 42 441 q 78 568 62 527 q 120 640 95 608 q 178 690 144 671 q 258 709 212 709 q 331 693 299 709 q 386 650 362 677 q 424 587 409 623 q 449 514 439 552 q 463 439 458 477 q 467 369 467 401 m 359 373 q 358 410 359 387 q 353 457 357 432 q 342 507 349 482 q 325 553 336 532 q 298 586 314 573 q 260 598 282 598 q 215 582 234 598 q 183 541 197 566 q 162 485 170 516 q 150 424 154 454 q 144 366 145 393 q 142 321 142 338 q 144 285 142 307 q 149 238 145 263 q 160 188 153 213 q 178 143 168 163 q 205 110 189 123 q 241 98 220 98 q 286 113 267 98 q 318 154 304 129 q 339 209 331 178 q 352 270 347 239 q 358 328 356 301 q 359 373 359 355 m 420 762 l 324 741 l 262 859 l 202 741 l 107 762 l 217 926 l 309 932 l 420 762 z "},"ö":{"ha":500,"x_min":34,"x_max":467,"o":"m 467 369 q 463 294 467 335 q 448 210 458 252 q 421 127 438 168 q 380 56 405 87 q 321 5 355 24 q 243 -14 288 -14 q 169 2 201 -14 q 114 44 137 18 q 75 105 91 71 q 51 177 60 140 q 38 252 41 214 q 34 323 34 290 q 38 399 34 357 q 52 484 42 441 q 78 568 62 527 q 120 640 95 608 q 178 690 144 671 q 258 709 212 709 q 331 693 299 709 q 386 650 362 677 q 424 587 409 623 q 449 514 439 552 q 463 439 458 477 q 467 369 467 401 m 359 373 q 358 410 359 387 q 353 457 357 432 q 342 507 349 482 q 325 553 336 532 q 298 586 314 573 q 260 598 282 598 q 215 582 234 598 q 183 541 197 566 q 162 485 170 516 q 150 424 154 454 q 144 366 145 393 q 142 321 142 338 q 144 285 142 307 q 149 238 145 263 q 160 188 153 213 q 178 143 168 163 q 205 110 189 123 q 241 98 220 98 q 286 113 267 98 q 318 154 304 129 q 339 209 331 178 q 352 270 347 239 q 358 328 356 301 q 359 373 359 355 m 414 816 q 396 771 414 789 q 351 753 378 753 q 308 772 325 753 q 290 816 290 790 q 308 861 290 842 q 353 880 326 880 q 396 861 379 880 q 414 816 414 842 m 224 816 q 204 766 224 786 q 155 745 184 745 q 128 751 140 745 q 106 767 115 757 q 92 789 97 777 q 87 816 87 802 q 107 866 87 846 q 157 886 127 886 q 184 881 172 886 q 205 865 197 875 q 219 843 214 856 q 224 816 224 830 z "},"õ":{"ha":500,"x_min":34,"x_max":467,"o":"m 467 369 q 463 294 467 335 q 448 210 458 252 q 421 127 438 168 q 380 56 405 87 q 321 5 355 24 q 243 -14 288 -14 q 169 2 201 -14 q 114 44 137 18 q 75 105 91 71 q 51 177 60 140 q 38 252 41 214 q 34 323 34 290 q 38 399 34 357 q 52 484 42 441 q 78 568 62 527 q 120 640 95 608 q 178 690 144 671 q 258 709 212 709 q 331 693 299 709 q 386 650 362 677 q 424 587 409 623 q 449 514 439 552 q 463 439 458 477 q 467 369 467 401 m 359 373 q 358 410 359 387 q 353 457 357 432 q 342 507 349 482 q 325 553 336 532 q 298 586 314 573 q 260 598 282 598 q 215 582 234 598 q 183 541 197 566 q 162 485 170 516 q 150 424 154 454 q 144 366 145 393 q 142 321 142 338 q 144 285 142 307 q 149 238 145 263 q 160 188 153 213 q 178 143 168 163 q 205 110 189 123 q 241 98 220 98 q 286 113 267 98 q 318 154 304 129 q 339 209 331 178 q 352 270 347 239 q 358 328 356 301 q 359 373 359 355 m 415 797 q 394 781 406 789 q 369 766 382 772 q 341 755 355 759 q 315 751 328 751 q 280 760 297 751 q 248 779 264 768 q 217 798 233 789 q 187 806 202 806 q 168 799 179 806 q 146 782 157 792 q 126 762 136 772 q 113 747 117 752 l 85 828 q 105 849 94 838 q 131 870 117 861 q 160 887 145 880 q 189 893 175 893 q 221 885 206 893 q 251 866 236 876 q 280 847 265 856 q 315 839 296 839 q 355 852 335 839 q 388 880 376 865 l 415 797 z "},"ú":{"ha":585,"x_min":16,"x_max":585,"o":"m 585 109 l 582 -7 l 387 -14 l 382 96 q 350 57 369 76 q 310 24 332 39 q 263 2 288 10 q 213 -7 238 -7 q 160 3 182 -7 q 123 31 138 14 q 100 72 109 49 q 86 120 91 94 q 80 171 81 145 q 79 221 79 197 q 81 405 79 313 q 85 590 83 497 l 16 597 l 30 705 l 205 696 q 198 454 201 574 q 195 213 195 335 q 199 180 195 197 q 210 150 202 163 q 231 127 218 136 q 263 118 243 118 q 314 135 293 118 q 347 176 334 151 q 366 229 360 200 q 373 281 372 257 q 378 430 377 355 q 380 579 378 505 l 320 579 l 313 689 l 496 692 l 486 115 l 585 109 m 461 899 l 311 741 l 247 762 l 335 932 l 461 899 z "},"ù":{"ha":585,"x_min":16,"x_max":585,"o":"m 585 109 l 582 -7 l 387 -14 l 382 96 q 350 57 369 76 q 310 24 332 39 q 263 2 288 10 q 213 -7 238 -7 q 160 3 182 -7 q 123 31 138 14 q 100 72 109 49 q 86 120 91 94 q 80 171 81 145 q 79 221 79 197 q 81 405 79 313 q 85 590 83 497 l 16 597 l 30 705 l 205 696 q 198 454 201 574 q 195 213 195 335 q 199 180 195 197 q 210 150 202 163 q 231 127 218 136 q 263 118 243 118 q 314 135 293 118 q 347 176 334 151 q 366 229 360 200 q 373 281 372 257 q 378 430 377 355 q 380 579 378 505 l 320 579 l 313 689 l 496 692 l 486 115 l 585 109 m 339 762 l 277 741 l 125 899 l 251 932 l 339 762 z "},"û":{"ha":585,"x_min":16,"x_max":585,"o":"m 585 109 l 582 -7 l 387 -14 l 382 96 q 350 57 369 76 q 310 24 332 39 q 263 2 288 10 q 213 -7 238 -7 q 160 3 182 -7 q 123 31 138 14 q 100 72 109 49 q 86 120 91 94 q 80 171 81 145 q 79 221 79 197 q 81 405 79 313 q 85 590 83 497 l 16 597 l 30 705 l 205 696 q 198 454 201 574 q 195 213 195 335 q 199 180 195 197 q 210 150 202 163 q 231 127 218 136 q 263 118 243 118 q 314 135 293 118 q 347 176 334 151 q 366 229 360 200 q 373 281 372 257 q 378 430 377 355 q 380 579 378 505 l 320 579 l 313 689 l 496 692 l 486 115 l 585 109 m 444 762 l 347 741 l 285 859 l 225 741 l 130 762 l 240 926 l 332 932 l 444 762 z "},"ü":{"ha":585,"x_min":16,"x_max":585,"o":"m 585 109 l 582 -7 l 387 -14 l 382 96 q 350 57 369 76 q 310 24 332 39 q 263 2 288 10 q 213 -7 238 -7 q 160 3 182 -7 q 123 31 138 14 q 100 72 109 49 q 86 120 91 94 q 80 171 81 145 q 79 221 79 197 q 81 405 79 313 q 85 590 83 497 l 16 597 l 30 705 l 205 696 q 198 454 201 574 q 195 213 195 335 q 199 180 195 197 q 210 150 202 163 q 231 127 218 136 q 263 118 243 118 q 314 135 293 118 q 347 176 334 151 q 366 229 360 200 q 373 281 372 257 q 378 430 377 355 q 380 579 378 505 l 320 579 l 313 689 l 496 692 l 486 115 l 585 109 m 437 816 q 419 771 437 789 q 374 753 401 753 q 331 772 348 753 q 313 816 313 790 q 331 861 313 842 q 376 880 349 880 q 419 861 402 880 q 437 816 437 842 m 247 816 q 227 766 247 786 q 178 745 208 745 q 151 751 163 745 q 129 767 138 757 q 115 789 120 777 q 110 816 110 802 q 130 866 110 846 q 180 886 151 886 q 208 881 195 886 q 229 865 220 875 q 242 843 237 856 q 247 816 247 830 z "},"ÿ":{"ha":536,"x_min":-5,"x_max":534,"o":"m 534 575 l 469 571 l 307 -161 l 363 -164 l 363 -277 l 130 -279 l 125 -174 l 191 -167 l 229 -4 l 58 591 l -5 591 l 2 707 l 230 704 l 233 594 l 173 589 l 280 179 l 359 582 l 306 589 l 299 697 l 534 700 l 534 575 m 428 829 q 410 785 428 803 q 366 767 392 767 q 322 785 339 767 q 304 829 304 804 q 322 874 304 856 q 367 893 340 893 q 411 874 393 893 q 428 829 428 856 m 238 829 q 218 779 238 800 q 169 759 199 759 q 142 765 155 759 q 120 780 130 770 q 106 803 111 790 q 101 829 101 816 q 121 880 101 859 q 172 900 142 900 q 199 894 186 900 q 220 879 211 888 q 233 857 229 869 q 238 829 238 844 z "},"Ÿ":{"ha":650,"x_min":-7,"x_max":658,"o":"m 658 838 l 574 831 l 378 355 l 376 132 l 471 134 l 464 12 l 184 5 l 180 132 l 260 132 l 259 358 l 77 831 l -7 829 l 0 960 l 275 960 l 286 838 l 208 831 l 323 465 l 450 831 l 366 829 l 373 960 l 648 967 l 658 838 m 488 1080 q 470 1035 488 1053 q 426 1017 452 1017 q 382 1036 399 1017 q 365 1080 365 1054 q 383 1125 365 1106 q 427 1143 401 1143 q 471 1125 454 1143 q 488 1080 488 1106 m 298 1080 q 279 1029 298 1050 q 229 1009 259 1009 q 202 1015 215 1009 q 181 1030 190 1021 q 166 1053 172 1040 q 161 1080 161 1066 q 182 1130 161 1109 q 232 1150 202 1150 q 259 1144 247 1150 q 280 1129 271 1139 q 294 1107 289 1120 q 298 1080 298 1094 z "},"ﬁ":{"ha":720,"x_min":26,"x_max":703,"o":"m 703 95 l 699 -18 l 451 -7 l 451 111 l 508 115 l 508 572 l 248 567 l 248 113 l 326 115 l 322 3 l 36 3 l 36 122 l 125 125 l 125 575 l 26 575 l 29 694 l 124 694 q 138 826 125 768 q 183 925 151 884 q 268 987 214 966 q 402 1009 321 1009 q 430 1008 416 1009 q 458 1006 444 1008 l 455 887 q 358 882 397 888 q 295 854 319 875 q 259 794 271 833 q 246 694 248 756 l 646 690 l 630 102 l 703 95 m 646 853 q 640 820 646 836 q 621 793 633 804 q 594 774 610 781 q 561 768 578 768 q 528 774 543 768 q 500 793 512 781 q 482 820 489 804 q 475 853 475 836 q 482 886 475 871 q 500 913 489 902 q 528 932 512 925 q 561 939 543 939 q 594 932 578 939 q 621 913 610 925 q 640 886 633 902 q 646 853 646 871 z "},"ﬂ":{"ha":713,"x_min":26,"x_max":698,"o":"m 698 107 l 694 -5 l 446 5 l 446 123 l 503 127 l 503 884 l 455 888 q 358 882 397 889 q 295 854 319 876 q 259 794 271 833 q 246 694 248 756 l 391 694 l 385 566 l 248 571 l 248 113 l 326 115 l 322 3 l 36 3 l 36 122 l 125 125 l 125 575 l 26 575 l 29 694 l 124 694 q 138 826 125 768 q 183 925 151 884 q 268 987 214 966 q 402 1009 321 1009 l 641 993 l 625 114 l 698 107 z "},"…":{"ha":802,"x_min":34,"x_max":768,"o":"m 206 77 q 199 44 206 60 q 181 17 193 28 q 153 -1 169 5 q 119 -8 137 -8 q 86 -1 102 -8 q 59 17 71 5 q 41 44 47 28 q 34 77 34 60 q 41 111 34 95 q 59 139 47 127 q 86 157 71 151 q 119 164 102 164 q 153 157 137 164 q 181 139 169 151 q 199 111 193 127 q 206 77 206 95 m 487 77 q 480 44 487 60 q 461 17 473 28 q 434 -1 450 5 q 400 -8 418 -8 q 367 -1 382 -8 q 340 17 351 5 q 321 44 328 28 q 315 77 315 60 q 321 111 315 95 q 340 139 328 127 q 367 157 351 151 q 400 164 382 164 q 434 157 418 164 q 461 139 450 151 q 480 111 473 127 q 487 77 487 95 m 768 77 q 761 44 768 60 q 742 17 754 28 q 714 -1 730 5 q 681 -8 699 -8 q 648 -1 663 -8 q 621 17 632 5 q 602 44 609 28 q 595 77 595 60 q 602 111 595 95 q 621 139 609 127 q 648 157 632 151 q 681 164 663 164 q 714 157 699 164 q 742 139 730 151 q 761 111 754 127 q 768 77 768 95 z "},"­":{"ha":520,"x_min":48,"x_max":474,"o":"m 474 568 l 467 446 l 52 439 l 48 566 l 474 568 z "},"¤":{"ha":398,"x_min":0,"x_max":398,"o":"m 198 553 q 164 546 179 553 q 139 526 149 538 q 123 497 129 513 q 118 463 118 480 q 142 405 118 426 q 202 384 166 384 q 237 391 222 384 q 262 410 252 398 q 278 439 273 422 q 283 473 283 455 q 259 532 283 511 q 198 553 235 553 m 398 357 l 307 276 l 267 319 q 205 307 239 307 q 140 319 170 307 l 94 270 l 3 357 l 51 406 q 39 465 39 434 q 51 528 39 498 l 0 578 l 87 669 l 138 617 q 168 626 153 623 q 199 629 183 629 q 230 627 215 629 q 260 618 245 624 l 309 669 l 392 578 l 349 534 q 362 468 362 503 q 359 437 362 452 q 351 408 357 422 l 398 357 z "}," ":{"ha":244,"x_min":0,"x_max":0,"o":""},"̒":{"ha":172,"x_min":18,"x_max":156,"o":"m 156 796 q 151 769 156 782 q 136 748 145 757 q 114 733 126 739 q 87 728 101 728 q 60 733 73 728 q 38 748 47 739 q 24 769 29 757 q 18 796 18 782 q 37 871 18 837 q 90 928 56 905 l 119 905 q 112 897 116 901 q 103 886 107 892 q 97 875 100 881 q 94 865 94 869 q 138 843 119 862 q 156 796 156 823 z "},"̕":{"ha":167,"x_min":13,"x_max":151,"o":"m 151 858 q 132 783 151 817 q 78 728 113 749 l 50 751 q 65 769 56 758 q 76 789 75 780 q 31 811 49 792 q 13 858 13 831 q 18 885 13 872 q 33 907 24 897 q 55 922 42 917 q 81 928 67 928 q 108 922 96 928 q 130 907 121 917 q 145 885 140 897 q 151 858 151 872 z "},"̦":{"ha":193,"x_min":27,"x_max":165,"o":"m 165 -106 q 146 -181 165 -147 q 92 -237 127 -215 l 64 -214 q 71 -205 67 -210 q 79 -196 75 -201 q 86 -185 83 -191 q 90 -175 90 -180 q 45 -153 63 -172 q 27 -106 27 -134 q 33 -80 27 -92 q 47 -57 38 -67 q 69 -42 56 -47 q 96 -37 81 -37 q 122 -42 110 -37 q 144 -57 135 -47 q 159 -80 154 -67 q 165 -106 165 -92 z "},"ȷ":{"ha":272,"x_min":-124,"x_max":214,"o":"m 214 693 l 210 35 q 196 -96 209 -37 q 150 -195 182 -154 q 64 -257 118 -235 q -70 -279 11 -279 q -97 -279 -83 -279 q -124 -277 -111 -278 l -121 -157 q -24 -152 -64 -159 q 40 -125 16 -146 q 75 -66 64 -104 q 86 35 86 -27 l 86 583 l 7 579 l 12 692 l 214 693 z "},"Ǽ":{"ha":960,"x_min":-26,"x_max":926,"o":"m 444 315 l 263 307 l 205 130 l 281 123 l 277 1 l -26 1 l -23 133 l 75 130 l 347 854 l 279 852 l 279 967 l 920 967 l 926 704 l 826 697 l 812 837 l 566 831 l 563 529 l 769 529 l 769 431 l 562 419 l 559 117 l 812 126 l 812 275 l 913 275 l 920 5 l 368 -8 l 363 117 l 444 117 l 444 315 m 442 831 l 441 831 l 302 420 l 444 420 q 444 563 444 508 q 444 652 444 618 q 444 705 444 686 q 443 741 444 725 q 443 777 443 758 q 442 831 442 797 m 726 1162 l 575 1005 l 511 1025 l 600 1196 l 726 1162 z "},"ǽ":{"ha":778,"x_min":42,"x_max":743,"o":"m 743 411 q 739 302 743 355 l 448 297 q 449 263 448 283 q 453 221 450 243 q 462 177 456 199 q 477 139 468 156 q 501 111 487 121 q 534 100 515 100 q 571 112 555 100 q 596 139 586 123 q 611 176 606 156 q 618 213 616 195 l 736 213 q 716 135 730 174 q 678 64 702 96 q 621 12 654 32 q 541 -8 587 -8 q 450 14 487 -8 q 389 73 414 37 q 354 46 374 60 q 309 20 334 32 q 254 1 283 8 q 191 -7 224 -7 q 120 10 149 -7 q 74 54 92 26 q 50 117 57 81 q 42 189 42 152 q 57 273 42 235 q 100 337 73 311 q 166 379 127 364 q 251 393 205 393 q 287 391 269 393 q 323 382 305 389 q 324 404 324 394 q 324 426 324 414 q 323 446 324 432 q 321 477 323 460 q 316 513 319 494 q 307 547 313 532 q 293 572 301 562 q 274 582 286 582 q 249 573 261 582 q 226 550 237 564 q 206 519 215 536 q 189 485 197 502 q 176 453 182 468 q 168 430 171 439 l 53 435 l 49 688 l 161 690 l 161 591 q 180 628 168 609 q 207 662 191 647 q 240 687 222 677 q 281 697 259 697 q 357 685 328 697 q 406 648 387 672 q 460 690 428 675 q 534 705 492 705 q 648 683 606 705 q 710 620 689 660 q 738 527 732 581 q 743 411 743 473 m 625 450 q 623 496 625 471 q 612 545 621 522 q 587 584 604 568 q 544 600 571 600 q 504 589 520 600 q 477 562 488 578 q 460 523 466 545 q 451 478 454 500 q 447 433 448 455 q 446 395 446 412 l 621 395 q 625 450 625 423 m 327 161 l 327 260 q 299 278 317 274 q 264 282 280 282 q 185 258 216 282 q 155 182 155 234 q 172 128 155 150 q 222 106 189 106 q 251 109 233 106 q 286 119 269 112 q 315 136 302 125 q 327 161 327 146 m 577 878 l 427 721 l 363 741 l 451 912 l 577 878 z "},"Ā":{"ha":651,"x_min":-5,"x_max":660,"o":"m 660 110 l 650 -19 l 375 -12 l 368 119 l 452 117 l 417 315 l 238 307 l 210 130 l 288 123 l 277 1 l 2 1 l -5 133 l 79 130 l 227 854 l 158 852 l 151 967 l 497 974 l 490 865 l 422 863 l 576 117 l 660 110 m 398 420 l 325 837 l 257 420 l 398 420 m 465 1020 l 186 1027 l 193 1111 l 458 1111 l 465 1020 z "},"ā":{"ha":519,"x_min":42,"x_max":502,"o":"m 502 115 l 499 7 l 359 -7 l 353 72 q 320 42 338 56 q 280 17 301 28 q 236 0 258 6 q 191 -7 213 -7 q 120 10 149 -7 q 74 54 92 26 q 50 117 57 81 q 42 189 42 152 q 57 273 42 235 q 100 337 73 311 q 166 379 127 364 q 251 393 205 393 q 287 391 269 393 q 323 382 305 389 q 324 404 324 394 q 324 426 324 414 q 323 446 324 432 q 321 477 323 460 q 316 513 319 494 q 307 547 313 532 q 293 572 301 562 q 274 582 286 582 q 249 573 261 582 q 226 550 237 564 q 206 519 215 536 q 189 485 197 502 q 176 453 182 468 q 168 430 171 439 l 53 435 l 49 688 l 161 690 l 161 591 q 180 628 168 609 q 207 662 191 647 q 240 687 222 677 q 281 697 259 697 q 364 682 332 697 q 412 638 395 666 q 434 570 429 610 q 439 483 439 530 q 438 299 439 391 q 429 115 437 208 l 502 115 m 327 161 l 327 260 q 299 278 317 274 q 264 282 280 282 q 185 258 216 282 q 155 182 155 234 q 172 128 155 150 q 222 106 189 106 q 251 109 233 106 q 286 119 269 112 q 315 136 302 125 q 327 161 327 146 m 399 732 l 120 739 l 127 823 l 393 823 l 399 732 z "},"Ă":{"ha":651,"x_min":-5,"x_max":660,"o":"m 660 110 l 650 -19 l 375 -12 l 368 119 l 452 117 l 417 315 l 238 307 l 210 130 l 288 123 l 277 1 l 2 1 l -5 133 l 79 130 l 227 854 l 158 852 l 151 967 l 497 974 l 490 865 l 422 863 l 576 117 l 660 110 m 398 420 l 325 837 l 257 420 l 398 420 m 479 1180 q 462 1122 475 1150 q 430 1073 450 1095 q 383 1039 410 1052 q 325 1025 357 1025 q 266 1037 293 1025 q 219 1068 239 1048 q 186 1115 199 1088 q 172 1173 174 1142 l 243 1188 q 272 1133 249 1150 q 332 1115 295 1115 q 360 1122 347 1115 q 383 1141 373 1129 q 399 1166 393 1152 q 408 1195 405 1181 l 479 1180 z "},"ă":{"ha":519,"x_min":42,"x_max":502,"o":"m 502 115 l 499 7 l 359 -7 l 353 72 q 320 42 338 56 q 280 17 301 28 q 236 0 258 6 q 191 -7 213 -7 q 120 10 149 -7 q 74 54 92 26 q 50 117 57 81 q 42 189 42 152 q 57 273 42 235 q 100 337 73 311 q 166 379 127 364 q 251 393 205 393 q 287 391 269 393 q 323 382 305 389 q 324 404 324 394 q 324 426 324 414 q 323 446 324 432 q 321 477 323 460 q 316 513 319 494 q 307 547 313 532 q 293 572 301 562 q 274 582 286 582 q 249 573 261 582 q 226 550 237 564 q 206 519 215 536 q 189 485 197 502 q 176 453 182 468 q 168 430 171 439 l 53 435 l 49 688 l 161 690 l 161 591 q 180 628 168 609 q 207 662 191 647 q 240 687 222 677 q 281 697 259 697 q 364 682 332 697 q 412 638 395 666 q 434 570 429 610 q 439 483 439 530 q 438 299 439 391 q 429 115 437 208 l 502 115 m 327 161 l 327 260 q 299 278 317 274 q 264 282 280 282 q 185 258 216 282 q 155 182 155 234 q 172 128 155 150 q 222 106 189 106 q 251 109 233 106 q 286 119 269 112 q 315 136 302 125 q 327 161 327 146 m 414 892 q 396 835 409 863 q 364 786 384 807 q 317 751 344 764 q 259 738 291 738 q 200 749 227 738 q 153 781 173 761 q 121 828 133 801 q 106 886 109 854 l 178 901 q 206 845 183 863 q 266 827 229 827 q 294 834 281 827 q 317 853 307 842 q 333 879 327 865 q 342 907 339 893 l 414 892 z "},"Ą":{"ha":651,"x_min":-5,"x_max":660,"o":"m 614 -209 q 586 -216 600 -213 q 556 -218 572 -218 q 509 -211 530 -218 q 472 -188 487 -203 q 448 -152 456 -173 q 439 -104 439 -131 q 447 -59 439 -81 q 467 -14 454 -36 l 375 -12 l 368 119 l 452 117 l 417 315 l 238 307 l 210 130 l 288 123 l 277 1 l 2 1 l -5 133 l 79 130 l 227 854 l 158 852 l 151 967 l 497 974 l 490 865 l 422 863 l 576 117 l 660 110 l 650 -19 l 543 -16 q 526 -53 532 -34 q 519 -90 519 -73 q 529 -125 519 -113 q 563 -137 539 -137 q 598 -129 582 -137 l 614 -209 m 398 420 l 325 837 l 257 420 l 398 420 z "},"ą":{"ha":519,"x_min":42,"x_max":502,"o":"m 502 -209 q 473 -216 488 -213 q 444 -218 459 -218 q 396 -211 418 -218 q 359 -188 374 -203 q 335 -152 344 -173 q 327 -104 327 -131 q 336 -54 327 -79 q 359 -7 345 -29 l 353 72 q 320 42 338 56 q 280 17 301 28 q 236 0 258 6 q 191 -7 213 -7 q 120 10 149 -7 q 74 54 92 26 q 50 117 57 81 q 42 189 42 152 q 57 273 42 235 q 100 337 73 311 q 166 379 127 364 q 251 393 205 393 q 287 391 269 393 q 323 382 305 389 q 324 404 324 394 q 324 426 324 414 q 323 446 324 432 q 321 477 323 460 q 316 513 319 494 q 307 547 313 532 q 293 572 301 562 q 274 582 286 582 q 249 573 261 582 q 226 550 237 564 q 206 519 215 536 q 189 485 197 502 q 176 453 182 468 q 168 430 171 439 l 53 435 l 49 688 l 161 690 l 161 591 q 180 628 168 609 q 207 662 191 647 q 240 687 222 677 q 281 697 259 697 q 364 682 332 697 q 412 638 395 666 q 434 570 429 610 q 439 483 439 530 q 438 299 439 391 q 429 115 437 208 l 502 115 l 499 7 l 440 1 q 417 -44 427 -20 q 407 -90 407 -68 q 417 -125 407 -113 q 450 -137 427 -137 q 486 -129 469 -137 l 502 -209 m 327 161 l 327 260 q 299 278 317 274 q 264 282 280 282 q 185 258 216 282 q 155 182 155 234 q 172 128 155 150 q 222 106 189 106 q 251 109 233 106 q 286 119 269 112 q 315 136 302 125 q 327 161 327 146 z "},"Ć":{"ha":701,"x_min":40,"x_max":667,"o":"m 667 979 l 652 633 l 545 637 q 534 687 541 661 q 518 737 528 713 q 494 784 508 762 q 463 822 481 806 q 421 849 444 839 q 370 859 398 859 q 295 840 327 859 q 241 791 264 822 q 204 722 219 761 q 182 642 190 683 q 171 562 174 602 q 168 491 168 522 q 170 423 168 462 q 181 342 173 384 q 202 261 189 301 q 237 189 216 220 q 288 138 258 157 q 359 118 318 118 q 442 140 408 118 q 496 196 475 161 q 527 272 517 230 q 541 357 537 315 l 648 357 q 630 221 648 287 q 577 104 613 155 q 486 23 541 54 q 355 -8 431 -8 q 250 16 296 -8 q 169 79 204 39 q 110 170 134 119 q 70 276 85 221 q 47 386 54 331 q 40 486 40 440 q 46 594 40 537 q 67 706 53 651 q 106 812 82 762 q 166 900 130 862 q 251 961 202 938 q 363 983 300 983 q 470 954 427 983 q 546 871 513 924 l 547 982 l 667 979 m 552 1176 l 401 1019 l 338 1039 l 426 1210 l 552 1176 z "},"ć":{"ha":500,"x_min":35,"x_max":466,"o":"m 466 693 l 459 415 l 349 418 q 344 466 349 437 q 330 522 340 494 q 302 569 319 549 q 257 589 284 589 q 220 574 235 589 q 195 538 205 560 q 178 488 184 515 q 169 433 172 460 q 165 382 166 406 q 165 345 165 359 q 165 306 165 329 q 168 256 165 282 q 175 204 170 230 q 191 157 180 178 q 217 123 201 136 q 257 110 233 110 q 303 129 285 110 q 333 175 321 148 q 348 231 344 201 q 353 281 353 260 l 462 281 q 450 184 461 235 q 413 92 438 134 q 350 22 389 50 q 257 -5 311 -5 q 175 10 210 -5 q 115 53 140 26 q 75 115 90 79 q 50 190 59 151 q 38 269 41 229 q 35 347 35 310 q 39 419 35 380 q 53 497 43 458 q 79 574 62 536 q 119 640 95 611 q 175 685 143 668 q 250 703 208 703 q 315 685 284 703 q 367 642 345 667 l 380 700 l 466 693 m 443 911 l 292 754 l 229 774 l 317 945 l 443 911 z "},"Ĉ":{"ha":701,"x_min":40,"x_max":667,"o":"m 667 979 l 652 633 l 545 637 q 534 687 541 661 q 518 737 528 713 q 494 784 508 762 q 463 822 481 806 q 421 849 444 839 q 370 859 398 859 q 295 840 327 859 q 241 791 264 822 q 204 722 219 761 q 182 642 190 683 q 171 562 174 602 q 168 491 168 522 q 170 423 168 462 q 181 342 173 384 q 202 261 189 301 q 237 189 216 220 q 288 138 258 157 q 359 118 318 118 q 442 140 408 118 q 496 196 475 161 q 527 272 517 230 q 541 357 537 315 l 648 357 q 630 221 648 287 q 577 104 613 155 q 486 23 541 54 q 355 -8 431 -8 q 250 16 296 -8 q 169 79 204 39 q 110 170 134 119 q 70 276 85 221 q 47 386 54 331 q 40 486 40 440 q 46 594 40 537 q 67 706 53 651 q 106 812 82 762 q 166 900 130 862 q 251 961 202 938 q 363 983 300 983 q 470 954 427 983 q 546 871 513 924 l 547 982 l 667 979 m 507 1043 l 410 1023 l 348 1141 l 288 1023 l 193 1043 l 303 1207 l 395 1214 l 507 1043 z "},"ĉ":{"ha":500,"x_min":35,"x_max":466,"o":"m 466 693 l 459 415 l 349 418 q 344 466 349 437 q 330 522 340 494 q 302 569 319 549 q 257 589 284 589 q 220 574 235 589 q 195 538 205 560 q 178 488 184 515 q 169 433 172 460 q 165 382 166 406 q 165 345 165 359 q 165 306 165 329 q 168 256 165 282 q 175 204 170 230 q 191 157 180 178 q 217 123 201 136 q 257 110 233 110 q 303 129 285 110 q 333 175 321 148 q 348 231 344 201 q 353 281 353 260 l 462 281 q 450 184 461 235 q 413 92 438 134 q 350 22 389 50 q 257 -5 311 -5 q 175 10 210 -5 q 115 53 140 26 q 75 115 90 79 q 50 190 59 151 q 38 269 41 229 q 35 347 35 310 q 39 419 35 380 q 53 497 43 458 q 79 574 62 536 q 119 640 95 611 q 175 685 143 668 q 250 703 208 703 q 315 685 284 703 q 367 642 345 667 l 380 700 l 466 693 m 407 749 l 311 729 l 248 847 l 189 729 l 94 749 l 203 913 l 296 920 l 407 749 z "},"Č":{"ha":701,"x_min":40,"x_max":667,"o":"m 667 979 l 652 633 l 545 637 q 534 687 541 661 q 518 737 528 713 q 494 784 508 762 q 463 822 481 806 q 421 849 444 839 q 370 859 398 859 q 295 840 327 859 q 241 791 264 822 q 204 722 219 761 q 182 642 190 683 q 171 562 174 602 q 168 491 168 522 q 170 423 168 462 q 181 342 173 384 q 202 261 189 301 q 237 189 216 220 q 288 138 258 157 q 359 118 318 118 q 442 140 408 118 q 496 196 475 161 q 527 272 517 230 q 541 357 537 315 l 648 357 q 630 221 648 287 q 577 104 613 155 q 486 23 541 54 q 355 -8 431 -8 q 250 16 296 -8 q 169 79 204 39 q 110 170 134 119 q 70 276 85 221 q 47 386 54 331 q 40 486 40 440 q 46 594 40 537 q 67 706 53 651 q 106 812 82 762 q 166 900 130 862 q 251 961 202 938 q 363 983 300 983 q 470 954 427 983 q 546 871 513 924 l 547 982 l 667 979 m 507 1197 l 397 1033 l 306 1026 l 193 1197 l 290 1217 l 352 1099 l 412 1217 l 507 1197 z "},"č":{"ha":500,"x_min":35,"x_max":466,"o":"m 466 693 l 459 415 l 349 418 q 344 466 349 437 q 330 522 340 494 q 302 569 319 549 q 257 589 284 589 q 220 574 235 589 q 195 538 205 560 q 178 488 184 515 q 169 433 172 460 q 165 382 166 406 q 165 345 165 359 q 165 306 165 329 q 168 256 165 282 q 175 204 170 230 q 191 157 180 178 q 217 123 201 136 q 257 110 233 110 q 303 129 285 110 q 333 175 321 148 q 348 231 344 201 q 353 281 353 260 l 462 281 q 450 184 461 235 q 413 92 438 134 q 350 22 389 50 q 257 -5 311 -5 q 175 10 210 -5 q 115 53 140 26 q 75 115 90 79 q 50 190 59 151 q 38 269 41 229 q 35 347 35 310 q 39 419 35 380 q 53 497 43 458 q 79 574 62 536 q 119 640 95 611 q 175 685 143 668 q 250 703 208 703 q 315 685 284 703 q 367 642 345 667 l 380 700 l 466 693 m 407 912 l 297 748 l 206 741 l 94 912 l 190 932 l 252 814 l 312 932 l 407 912 z "},"Ď":{"ha":698,"x_min":45,"x_max":655,"o":"m 655 477 q 647 354 655 418 q 620 230 640 290 q 565 119 600 170 q 477 33 531 67 q 407 -1 445 11 q 331 -12 370 -12 l 327 -12 l 54 -8 l 50 117 l 130 117 l 129 831 l 52 829 l 45 960 q 163 966 104 964 q 282 967 222 967 l 359 967 q 467 944 421 967 q 546 882 513 921 q 600 793 579 844 q 633 689 621 743 q 650 579 646 634 q 655 477 655 525 m 530 494 l 530 506 q 527 563 530 529 q 517 633 524 596 q 498 707 511 671 q 469 773 486 744 q 426 821 451 803 q 369 840 401 840 l 326 840 q 289 840 307 840 q 252 838 271 840 l 245 110 q 272 108 259 109 q 298 107 285 107 q 369 111 334 107 q 434 140 407 117 q 478 196 460 163 q 507 269 496 229 q 522 349 517 309 q 529 427 528 389 q 530 494 530 465 m 505 1176 l 395 1012 l 304 1005 l 192 1176 l 288 1196 l 351 1078 l 410 1196 l 505 1176 z "},"ď":{"ha":732,"x_min":35,"x_max":698,"o":"m 557 -1 l 375 -7 l 366 72 q 306 14 343 35 q 226 -7 269 -7 q 154 11 184 -7 q 102 58 123 28 q 67 124 81 87 q 47 201 54 161 q 37 278 40 240 q 35 347 35 316 q 39 417 35 378 q 53 496 43 456 q 78 574 62 536 q 118 642 94 612 q 173 690 141 672 q 246 708 205 708 q 307 691 278 708 q 352 648 336 675 l 352 869 l 230 869 l 230 986 l 478 982 l 467 109 l 557 111 l 557 -1 m 348 499 q 336 526 344 511 q 318 554 329 541 q 295 577 308 568 q 267 586 281 586 q 228 573 244 586 q 199 540 211 560 q 180 494 188 519 q 168 443 172 469 q 162 395 164 418 q 161 357 161 372 q 161 319 161 342 q 163 270 161 296 q 170 215 165 243 q 184 165 175 188 q 209 129 194 143 q 246 115 224 115 q 279 125 263 115 q 307 150 294 135 q 330 180 320 164 q 345 210 340 197 l 348 499 m 698 878 q 674 784 698 827 q 607 715 650 741 l 572 743 q 591 766 580 751 q 604 792 602 780 q 573 801 587 793 q 548 820 559 808 q 532 846 538 831 q 526 878 526 861 q 532 911 526 895 q 551 939 539 927 q 578 958 562 951 q 611 964 593 964 q 645 958 629 964 q 672 939 661 951 q 691 911 684 927 q 698 878 698 895 z "},"Ċ":{"ha":701,"x_min":40,"x_max":667,"o":"m 667 979 l 652 633 l 545 637 q 534 687 541 661 q 518 737 528 713 q 494 784 508 762 q 463 822 481 806 q 421 849 444 839 q 370 859 398 859 q 295 840 327 859 q 241 791 264 822 q 204 722 219 761 q 182 642 190 683 q 171 562 174 602 q 168 491 168 522 q 170 423 168 462 q 181 342 173 384 q 202 261 189 301 q 237 189 216 220 q 288 138 258 157 q 359 118 318 118 q 442 140 408 118 q 496 196 475 161 q 527 272 517 230 q 541 357 537 315 l 648 357 q 630 221 648 287 q 577 104 613 155 q 486 23 541 54 q 355 -8 431 -8 q 250 16 296 -8 q 169 79 204 39 q 110 170 134 119 q 70 276 85 221 q 47 386 54 331 q 40 486 40 440 q 46 594 40 537 q 67 706 53 651 q 106 812 82 762 q 166 900 130 862 q 251 961 202 938 q 363 983 300 983 q 470 954 427 983 q 546 871 513 924 l 547 982 l 667 979 m 418 1093 q 399 1043 418 1063 q 349 1023 379 1023 q 322 1028 335 1023 q 301 1044 310 1034 q 287 1067 292 1054 q 281 1093 281 1080 q 302 1143 281 1123 q 352 1164 322 1164 q 379 1158 367 1164 q 400 1143 391 1152 q 414 1120 409 1133 q 418 1093 418 1107 z "},"ċ":{"ha":500,"x_min":35,"x_max":466,"o":"m 466 693 l 459 415 l 349 418 q 344 466 349 437 q 330 522 340 494 q 302 569 319 549 q 257 589 284 589 q 220 574 235 589 q 195 538 205 560 q 178 488 184 515 q 169 433 172 460 q 165 382 166 406 q 165 345 165 359 q 165 306 165 329 q 168 256 165 282 q 175 204 170 230 q 191 157 180 178 q 217 123 201 136 q 257 110 233 110 q 303 129 285 110 q 333 175 321 148 q 348 231 344 201 q 353 281 353 260 l 462 281 q 450 184 461 235 q 413 92 438 134 q 350 22 389 50 q 257 -5 311 -5 q 175 10 210 -5 q 115 53 140 26 q 75 115 90 79 q 50 190 59 151 q 38 269 41 229 q 35 347 35 310 q 39 419 35 380 q 53 497 43 458 q 79 574 62 536 q 119 640 95 611 q 175 685 143 668 q 250 703 208 703 q 315 685 284 703 q 367 642 345 667 l 380 700 l 466 693 m 319 813 q 299 763 319 783 q 250 743 279 743 q 223 748 235 743 q 201 764 210 754 q 187 787 192 774 q 182 813 182 800 q 202 863 182 843 q 252 884 222 884 q 279 878 267 884 q 300 863 292 872 q 314 840 309 853 q 319 813 319 827 z "},"Đ":{"ha":698,"x_min":45,"x_max":655,"o":"m 129 387 l 54 385 l 50 511 l 129 511 l 129 831 l 52 829 l 45 960 q 163 966 104 964 q 282 967 222 967 l 359 967 q 467 944 421 967 q 546 882 513 921 q 600 793 579 844 q 633 689 621 743 q 650 579 646 634 q 655 477 655 525 q 647 354 655 418 q 620 230 640 290 q 565 119 600 170 q 477 33 531 67 q 407 -1 445 11 q 331 -12 370 -12 l 327 -12 l 54 -8 l 50 117 l 130 117 l 129 387 m 368 514 l 361 392 l 248 389 l 245 110 q 272 108 259 109 q 298 107 285 107 q 369 111 334 107 q 434 140 407 117 q 478 196 460 163 q 507 269 496 229 q 522 349 517 309 q 529 427 528 389 q 530 494 530 465 l 530 506 q 527 563 530 529 q 517 633 524 596 q 498 707 511 671 q 469 773 486 744 q 426 821 451 803 q 369 840 401 840 l 326 840 q 289 840 307 840 q 252 838 271 840 l 250 513 l 368 514 z "},"đ":{"ha":564,"x_min":35,"x_max":557,"o":"m 548 847 l 543 747 l 475 745 l 467 109 l 557 111 l 557 -1 l 375 -7 l 366 72 q 306 14 343 35 q 226 -7 269 -7 q 154 11 184 -7 q 102 58 123 28 q 67 124 81 87 q 47 201 54 161 q 37 278 40 240 q 35 347 35 316 q 39 417 35 378 q 53 496 43 456 q 78 574 62 536 q 118 642 94 612 q 173 690 141 672 q 246 708 205 708 q 307 691 278 708 q 352 648 336 675 l 352 743 l 205 741 l 201 845 l 352 846 l 352 869 l 293 869 l 293 986 l 478 982 l 476 846 l 548 847 m 348 499 q 336 526 344 511 q 318 554 329 541 q 295 577 308 568 q 267 586 281 586 q 228 573 244 586 q 199 540 211 560 q 180 494 188 519 q 168 443 172 469 q 162 395 164 418 q 161 357 161 372 q 161 319 161 342 q 163 270 161 296 q 170 215 165 243 q 184 165 175 188 q 209 129 194 143 q 246 115 224 115 q 279 125 263 115 q 307 150 294 135 q 330 180 320 164 q 345 210 340 197 l 348 499 z "},"Ē":{"ha":646,"x_min":44,"x_max":612,"o":"m 612 704 l 512 697 l 498 837 l 252 831 l 249 529 l 455 529 l 455 431 l 248 419 l 245 117 l 498 126 l 498 275 l 599 275 l 606 5 l 54 -8 l 50 117 l 130 117 l 128 831 l 44 829 l 51 960 l 606 967 l 612 704 m 463 1014 l 183 1021 l 190 1105 l 456 1105 l 463 1014 z "},"ē":{"ha":487,"x_min":36,"x_max":452,"o":"m 452 411 q 448 302 452 355 l 157 297 q 158 263 157 283 q 162 221 159 243 q 171 177 165 199 q 186 139 177 156 q 210 111 196 121 q 243 100 224 100 q 280 112 264 100 q 305 139 295 123 q 320 176 315 156 q 328 213 326 195 l 446 213 q 425 135 439 174 q 387 64 411 96 q 330 12 363 32 q 250 -8 296 -8 q 169 10 203 -8 q 111 58 134 28 q 72 126 87 87 q 49 207 57 165 q 39 291 41 249 q 36 369 36 333 q 40 439 36 401 q 52 515 43 477 q 76 587 61 552 q 115 647 92 621 q 170 689 138 673 q 243 705 201 705 q 357 683 315 705 q 419 620 398 660 q 447 527 441 581 q 452 411 452 473 m 334 450 q 332 496 334 471 q 321 545 330 522 q 296 584 313 568 q 253 600 280 600 q 213 589 229 600 q 186 562 197 578 q 169 523 175 545 q 160 478 163 500 q 156 433 157 455 q 155 395 155 412 l 330 395 q 334 450 334 423 m 383 744 l 104 751 l 111 835 l 376 835 l 383 744 z "},"Ĕ":{"ha":646,"x_min":44,"x_max":612,"o":"m 612 704 l 512 697 l 498 837 l 252 831 l 249 529 l 455 529 l 455 431 l 248 419 l 245 117 l 498 126 l 498 275 l 599 275 l 606 5 l 54 -8 l 50 117 l 130 117 l 128 831 l 44 829 l 51 960 l 606 967 l 612 704 m 477 1159 q 459 1101 472 1129 q 427 1052 447 1074 q 380 1018 407 1031 q 322 1004 354 1004 q 263 1016 290 1004 q 216 1047 236 1027 q 184 1094 196 1067 q 169 1152 172 1121 l 241 1167 q 269 1112 246 1129 q 329 1094 292 1094 q 357 1101 345 1094 q 380 1120 370 1108 q 396 1145 390 1131 q 405 1174 402 1160 l 477 1159 z "},"ĕ":{"ha":487,"x_min":36,"x_max":452,"o":"m 452 411 q 448 302 452 355 l 157 297 q 158 263 157 283 q 162 221 159 243 q 171 177 165 199 q 186 139 177 156 q 210 111 196 121 q 243 100 224 100 q 280 112 264 100 q 305 139 295 123 q 320 176 315 156 q 328 213 326 195 l 446 213 q 425 135 439 174 q 387 64 411 96 q 330 12 363 32 q 250 -8 296 -8 q 169 10 203 -8 q 111 58 134 28 q 72 126 87 87 q 49 207 57 165 q 39 291 41 249 q 36 369 36 333 q 40 439 36 401 q 52 515 43 477 q 76 587 61 552 q 115 647 92 621 q 170 689 138 673 q 243 705 201 705 q 357 683 315 705 q 419 620 398 660 q 447 527 441 581 q 452 411 452 473 m 334 450 q 332 496 334 471 q 321 545 330 522 q 296 584 313 568 q 253 600 280 600 q 213 589 229 600 q 186 562 197 578 q 169 523 175 545 q 160 478 163 500 q 156 433 157 455 q 155 395 155 412 l 330 395 q 334 450 334 423 m 397 901 q 380 844 393 871 q 348 794 368 816 q 301 760 328 773 q 243 747 275 747 q 184 758 211 747 q 137 790 157 770 q 104 837 117 810 q 90 895 92 863 l 161 909 q 190 854 167 871 q 250 836 213 836 q 278 843 265 836 q 301 862 291 850 q 317 888 311 873 q 326 916 323 902 l 397 901 z "},"Ė":{"ha":646,"x_min":44,"x_max":612,"o":"m 612 704 l 512 697 l 498 837 l 252 831 l 249 529 l 455 529 l 455 431 l 248 419 l 245 117 l 498 126 l 498 275 l 599 275 l 606 5 l 54 -8 l 50 117 l 130 117 l 128 831 l 44 829 l 51 960 l 606 967 l 612 704 m 391 1080 q 372 1029 391 1050 q 322 1009 352 1009 q 295 1015 308 1009 q 274 1030 283 1021 q 259 1053 264 1040 q 254 1080 254 1066 q 275 1130 254 1109 q 325 1150 295 1150 q 352 1144 340 1150 q 373 1129 364 1139 q 387 1107 382 1120 q 391 1080 391 1094 z "},"ė":{"ha":487,"x_min":36,"x_max":452,"o":"m 452 411 q 448 302 452 355 l 157 297 q 158 263 157 283 q 162 221 159 243 q 171 177 165 199 q 186 139 177 156 q 210 111 196 121 q 243 100 224 100 q 280 112 264 100 q 305 139 295 123 q 320 176 315 156 q 328 213 326 195 l 446 213 q 425 135 439 174 q 387 64 411 96 q 330 12 363 32 q 250 -8 296 -8 q 169 10 203 -8 q 111 58 134 28 q 72 126 87 87 q 49 207 57 165 q 39 291 41 249 q 36 369 36 333 q 40 439 36 401 q 52 515 43 477 q 76 587 61 552 q 115 647 92 621 q 170 689 138 673 q 243 705 201 705 q 357 683 315 705 q 419 620 398 660 q 447 527 441 581 q 452 411 452 473 m 334 450 q 332 496 334 471 q 321 545 330 522 q 296 584 313 568 q 253 600 280 600 q 213 589 229 600 q 186 562 197 578 q 169 523 175 545 q 160 478 163 500 q 156 433 157 455 q 155 395 155 412 l 330 395 q 334 450 334 423 m 312 813 q 292 763 312 783 q 243 743 273 743 q 216 748 229 743 q 194 764 203 754 q 180 787 185 774 q 175 813 175 800 q 195 863 175 843 q 245 884 216 884 q 273 878 260 884 q 294 863 285 872 q 307 840 302 853 q 312 813 312 827 z "},"Ę":{"ha":646,"x_min":44,"x_max":612,"o":"m 612 -209 q 584 -216 598 -213 q 554 -218 570 -218 q 507 -211 528 -218 q 470 -188 485 -203 q 446 -152 454 -173 q 437 -104 437 -131 q 448 -49 437 -77 q 476 2 459 -22 l 54 -8 l 50 117 l 130 117 l 128 831 l 44 829 l 51 960 l 606 967 l 612 704 l 512 697 l 498 837 l 252 831 l 249 529 l 455 529 l 455 431 l 248 419 l 245 117 l 498 126 l 498 275 l 599 275 l 606 5 l 553 4 q 528 -43 538 -18 q 517 -90 517 -68 q 527 -125 517 -113 q 561 -137 537 -137 q 596 -129 580 -137 l 612 -209 z "},"ę":{"ha":487,"x_min":36,"x_max":452,"o":"m 332 -209 q 303 -216 317 -213 q 273 -218 289 -218 q 226 -211 248 -218 q 189 -188 204 -203 q 165 -152 174 -173 q 157 -104 157 -131 q 167 -51 157 -77 q 194 0 177 -24 q 134 33 159 10 q 91 85 109 55 q 63 152 74 116 q 46 225 52 188 q 38 300 40 263 q 36 369 36 337 q 40 439 36 401 q 52 515 43 477 q 76 587 61 552 q 115 647 92 621 q 170 689 138 673 q 243 705 201 705 q 357 683 315 705 q 419 620 398 660 q 447 527 441 581 q 452 411 452 473 q 448 302 452 355 l 157 297 q 158 263 157 283 q 162 221 159 243 q 171 177 165 199 q 186 139 177 156 q 210 111 196 121 q 243 100 224 100 q 280 112 264 100 q 305 139 295 123 q 320 176 315 156 q 328 213 326 195 l 446 213 q 426 138 439 176 q 391 69 413 100 q 337 17 369 38 q 264 -7 306 -4 q 245 -49 253 -27 q 237 -90 237 -71 q 247 -125 237 -113 q 280 -137 256 -137 q 315 -129 299 -137 l 332 -209 m 334 450 q 332 496 334 471 q 321 545 330 522 q 296 584 313 568 q 253 600 280 600 q 213 589 229 600 q 186 562 197 578 q 169 523 175 545 q 160 478 163 500 q 156 433 157 455 q 155 395 155 412 l 330 395 q 334 450 334 423 z "},"Ě":{"ha":646,"x_min":44,"x_max":612,"o":"m 612 704 l 512 697 l 498 837 l 252 831 l 249 529 l 455 529 l 455 431 l 248 419 l 245 117 l 498 126 l 498 275 l 599 275 l 606 5 l 54 -8 l 50 117 l 130 117 l 128 831 l 44 829 l 51 960 l 606 967 l 612 704 m 479 1176 l 370 1012 l 279 1005 l 166 1176 l 262 1196 l 325 1078 l 385 1196 l 479 1176 z "},"ě":{"ha":487,"x_min":36,"x_max":452,"o":"m 452 411 q 448 302 452 355 l 157 297 q 158 263 157 283 q 162 221 159 243 q 171 177 165 199 q 186 139 177 156 q 210 111 196 121 q 243 100 224 100 q 280 112 264 100 q 305 139 295 123 q 320 176 315 156 q 328 213 326 195 l 446 213 q 425 135 439 174 q 387 64 411 96 q 330 12 363 32 q 250 -8 296 -8 q 169 10 203 -8 q 111 58 134 28 q 72 126 87 87 q 49 207 57 165 q 39 291 41 249 q 36 369 36 333 q 40 439 36 401 q 52 515 43 477 q 76 587 61 552 q 115 647 92 621 q 170 689 138 673 q 243 705 201 705 q 357 683 315 705 q 419 620 398 660 q 447 527 441 581 q 452 411 452 473 m 334 450 q 332 496 334 471 q 321 545 330 522 q 296 584 313 568 q 253 600 280 600 q 213 589 229 600 q 186 562 197 578 q 169 523 175 545 q 160 478 163 500 q 156 433 157 455 q 155 395 155 412 l 330 395 q 334 450 334 423 m 400 909 l 290 745 l 199 739 l 87 909 l 183 930 l 245 812 l 305 930 l 400 909 z "},"Ĝ":{"ha":697,"x_min":41,"x_max":651,"o":"m 651 359 q 632 228 651 293 q 576 110 614 162 q 484 24 539 57 q 355 -8 429 -8 q 251 16 297 -8 q 170 79 205 39 q 111 170 135 119 q 71 276 86 221 q 48 386 55 331 q 41 486 41 440 q 46 591 41 535 q 65 703 52 648 q 101 809 78 758 q 158 898 123 859 q 239 960 192 937 q 350 983 287 983 q 407 976 382 983 q 451 953 431 968 q 487 918 471 939 q 519 871 503 897 l 521 982 l 640 979 l 625 633 l 518 637 q 502 710 513 671 q 473 782 492 749 q 426 837 455 814 q 355 859 397 859 q 283 840 313 859 q 232 790 253 821 q 199 721 212 760 q 179 641 186 682 q 170 561 172 600 q 168 491 168 522 q 171 423 168 462 q 181 342 174 384 q 203 261 189 301 q 238 189 216 220 q 289 138 259 157 q 359 118 319 118 q 418 131 392 118 q 463 165 444 144 q 495 214 482 186 q 517 272 509 242 q 529 332 525 302 q 532 388 532 362 l 532 401 l 340 407 l 340 500 l 643 507 q 649 433 646 471 q 651 359 651 396 m 505 1046 l 409 1025 l 347 1143 l 287 1025 l 192 1046 l 302 1210 l 394 1217 l 505 1046 z "},"ĝ":{"ha":489,"x_min":31,"x_max":515,"o":"m 515 718 l 410 624 q 428 545 423 588 q 433 464 433 502 q 421 371 433 414 q 384 297 409 329 q 321 244 359 264 q 231 218 283 224 q 219 210 225 215 q 207 200 212 205 q 198 187 201 194 q 194 174 194 180 q 198 159 194 168 q 208 142 202 151 q 219 127 213 134 q 228 115 224 119 q 318 106 273 115 q 397 76 362 98 q 453 20 432 55 q 475 -69 475 -16 q 453 -152 475 -115 q 398 -217 432 -190 q 321 -260 363 -245 q 236 -275 278 -275 q 154 -262 192 -275 q 89 -224 117 -249 q 46 -164 62 -199 q 31 -83 31 -128 q 52 11 31 -33 q 115 83 73 55 q 94 124 103 102 q 84 168 84 146 q 96 214 84 192 q 129 248 109 237 q 89 292 106 265 q 61 348 73 318 q 45 410 50 378 q 39 469 39 441 q 52 569 39 524 q 90 646 64 614 q 156 697 115 679 q 252 715 196 715 q 279 713 267 715 q 302 709 291 712 q 323 702 313 706 q 347 690 334 697 l 433 799 l 515 718 m 320 472 q 316 514 320 491 q 301 556 311 536 q 275 588 291 575 q 235 601 258 601 q 191 590 207 601 q 166 561 174 578 q 155 520 157 543 q 152 476 152 498 q 156 433 152 458 q 169 385 159 408 q 194 346 178 361 q 235 330 210 330 q 275 345 258 330 q 301 382 291 360 q 316 429 311 404 q 320 472 320 453 m 366 -66 q 353 -26 366 -43 q 321 0 340 -10 q 279 15 302 10 q 237 19 256 19 q 170 -9 193 19 q 148 -80 148 -37 q 159 -117 148 -102 q 186 -141 170 -132 q 222 -154 202 -150 q 260 -159 242 -159 q 298 -152 279 -159 q 333 -134 317 -146 q 357 -104 348 -121 q 366 -66 366 -87 m 389 768 l 292 747 l 230 865 l 170 747 l 75 768 l 185 932 l 277 939 l 389 768 z "},"Ğ":{"ha":697,"x_min":41,"x_max":651,"o":"m 651 359 q 632 228 651 293 q 576 110 614 162 q 484 24 539 57 q 355 -8 429 -8 q 251 16 297 -8 q 170 79 205 39 q 111 170 135 119 q 71 276 86 221 q 48 386 55 331 q 41 486 41 440 q 46 591 41 535 q 65 703 52 648 q 101 809 78 758 q 158 898 123 859 q 239 960 192 937 q 350 983 287 983 q 407 976 382 983 q 451 953 431 968 q 487 918 471 939 q 519 871 503 897 l 521 982 l 640 979 l 625 633 l 518 637 q 502 710 513 671 q 473 782 492 749 q 426 837 455 814 q 355 859 397 859 q 283 840 313 859 q 232 790 253 821 q 199 721 212 760 q 179 641 186 682 q 170 561 172 600 q 168 491 168 522 q 171 423 168 462 q 181 342 174 384 q 203 261 189 301 q 238 189 216 220 q 289 138 259 157 q 359 118 319 118 q 418 131 392 118 q 463 165 444 144 q 495 214 482 186 q 517 272 509 242 q 529 332 525 302 q 532 388 532 362 l 532 401 l 340 407 l 340 500 l 643 507 q 649 433 646 471 q 651 359 651 396 m 503 1180 q 485 1122 498 1150 q 453 1073 473 1095 q 406 1039 433 1052 q 348 1025 380 1025 q 289 1037 316 1025 q 242 1068 262 1048 q 210 1115 222 1088 q 195 1173 197 1142 l 267 1188 q 295 1133 272 1150 q 355 1115 318 1115 q 383 1122 370 1115 q 406 1141 396 1129 q 422 1166 416 1152 q 431 1195 428 1181 l 503 1180 z "},"ğ":{"ha":489,"x_min":31,"x_max":515,"o":"m 515 718 l 410 624 q 428 545 423 588 q 433 464 433 502 q 421 371 433 414 q 384 297 409 329 q 321 244 359 264 q 231 218 283 224 q 219 210 225 215 q 207 200 212 205 q 198 187 201 194 q 194 174 194 180 q 198 159 194 168 q 208 142 202 151 q 219 127 213 134 q 228 115 224 119 q 318 106 273 115 q 397 76 362 98 q 453 20 432 55 q 475 -69 475 -16 q 453 -152 475 -115 q 398 -217 432 -190 q 321 -260 363 -245 q 236 -275 278 -275 q 154 -262 192 -275 q 89 -224 117 -249 q 46 -164 62 -199 q 31 -83 31 -128 q 52 11 31 -33 q 115 83 73 55 q 94 124 103 102 q 84 168 84 146 q 96 214 84 192 q 129 248 109 237 q 89 292 106 265 q 61 348 73 318 q 45 410 50 378 q 39 469 39 441 q 52 569 39 524 q 90 646 64 614 q 156 697 115 679 q 252 715 196 715 q 279 713 267 715 q 302 709 291 712 q 323 702 313 706 q 347 690 334 697 l 433 799 l 515 718 m 320 472 q 316 514 320 491 q 301 556 311 536 q 275 588 291 575 q 235 601 258 601 q 191 590 207 601 q 166 561 174 578 q 155 520 157 543 q 152 476 152 498 q 156 433 152 458 q 169 385 159 408 q 194 346 178 361 q 235 330 210 330 q 275 345 258 330 q 301 382 291 360 q 316 429 311 404 q 320 472 320 453 m 366 -66 q 353 -26 366 -43 q 321 0 340 -10 q 279 15 302 10 q 237 19 256 19 q 170 -9 193 19 q 148 -80 148 -37 q 159 -117 148 -102 q 186 -141 170 -132 q 222 -154 202 -150 q 260 -159 242 -159 q 298 -152 279 -159 q 333 -134 317 -146 q 357 -104 348 -121 q 366 -66 366 -87 m 380 907 q 362 850 375 878 q 330 801 350 822 q 283 766 310 779 q 225 753 257 753 q 166 764 193 753 q 119 796 139 776 q 87 843 99 816 q 72 901 75 869 l 144 916 q 172 860 149 878 q 232 842 195 842 q 260 849 248 842 q 283 868 273 857 q 299 894 293 880 q 308 922 305 908 l 380 907 z "},"Ġ":{"ha":697,"x_min":41,"x_max":651,"o":"m 651 359 q 632 228 651 293 q 576 110 614 162 q 484 24 539 57 q 355 -8 429 -8 q 251 16 297 -8 q 170 79 205 39 q 111 170 135 119 q 71 276 86 221 q 48 386 55 331 q 41 486 41 440 q 46 591 41 535 q 65 703 52 648 q 101 809 78 758 q 158 898 123 859 q 239 960 192 937 q 350 983 287 983 q 407 976 382 983 q 451 953 431 968 q 487 918 471 939 q 519 871 503 897 l 521 982 l 640 979 l 625 633 l 518 637 q 502 710 513 671 q 473 782 492 749 q 426 837 455 814 q 355 859 397 859 q 283 840 313 859 q 232 790 253 821 q 199 721 212 760 q 179 641 186 682 q 170 561 172 600 q 168 491 168 522 q 171 423 168 462 q 181 342 174 384 q 203 261 189 301 q 238 189 216 220 q 289 138 259 157 q 359 118 319 118 q 418 131 392 118 q 463 165 444 144 q 495 214 482 186 q 517 272 509 242 q 529 332 525 302 q 532 388 532 362 l 532 401 l 340 407 l 340 500 l 643 507 q 649 433 646 471 q 651 359 651 396 m 417 1100 q 397 1050 417 1070 q 348 1029 378 1029 q 321 1035 334 1029 q 299 1051 309 1041 q 285 1074 290 1061 q 280 1100 280 1086 q 300 1150 280 1130 q 351 1171 321 1171 q 378 1165 366 1171 q 399 1149 390 1159 q 412 1127 408 1140 q 417 1100 417 1114 z "},"ġ":{"ha":489,"x_min":31,"x_max":515,"o":"m 515 718 l 410 624 q 428 545 423 588 q 433 464 433 502 q 421 371 433 414 q 384 297 409 329 q 321 244 359 264 q 231 218 283 224 q 219 210 225 215 q 207 200 212 205 q 198 187 201 194 q 194 174 194 180 q 198 159 194 168 q 208 142 202 151 q 219 127 213 134 q 228 115 224 119 q 318 106 273 115 q 397 76 362 98 q 453 20 432 55 q 475 -69 475 -16 q 453 -152 475 -115 q 398 -217 432 -190 q 321 -260 363 -245 q 236 -275 278 -275 q 154 -262 192 -275 q 89 -224 117 -249 q 46 -164 62 -199 q 31 -83 31 -128 q 52 11 31 -33 q 115 83 73 55 q 94 124 103 102 q 84 168 84 146 q 96 214 84 192 q 129 248 109 237 q 89 292 106 265 q 61 348 73 318 q 45 410 50 378 q 39 469 39 441 q 52 569 39 524 q 90 646 64 614 q 156 697 115 679 q 252 715 196 715 q 279 713 267 715 q 302 709 291 712 q 323 702 313 706 q 347 690 334 697 l 433 799 l 515 718 m 320 472 q 316 514 320 491 q 301 556 311 536 q 275 588 291 575 q 235 601 258 601 q 191 590 207 601 q 166 561 174 578 q 155 520 157 543 q 152 476 152 498 q 156 433 152 458 q 169 385 159 408 q 194 346 178 361 q 235 330 210 330 q 275 345 258 330 q 301 382 291 360 q 316 429 311 404 q 320 472 320 453 m 366 -66 q 353 -26 366 -43 q 321 0 340 -10 q 279 15 302 10 q 237 19 256 19 q 170 -9 193 19 q 148 -80 148 -37 q 159 -117 148 -102 q 186 -141 170 -132 q 222 -154 202 -150 q 260 -159 242 -159 q 298 -152 279 -159 q 333 -134 317 -146 q 357 -104 348 -121 q 366 -66 366 -87 m 313 823 q 293 772 313 793 q 243 752 273 752 q 217 758 229 752 q 195 773 204 764 q 181 796 186 783 q 176 823 176 809 q 196 873 176 852 q 246 893 216 893 q 273 887 261 893 q 294 872 286 882 q 308 850 303 863 q 313 823 313 837 z "},"Ģ":{"ha":697,"x_min":41,"x_max":651,"o":"m 651 359 q 632 228 651 293 q 576 110 614 162 q 484 24 539 57 q 355 -8 429 -8 q 251 16 297 -8 q 170 79 205 39 q 111 170 135 119 q 71 276 86 221 q 48 386 55 331 q 41 486 41 440 q 46 591 41 535 q 65 703 52 648 q 101 809 78 758 q 158 898 123 859 q 239 960 192 937 q 350 983 287 983 q 407 976 382 983 q 451 953 431 968 q 487 918 471 939 q 519 871 503 897 l 521 982 l 640 979 l 625 633 l 518 637 q 502 710 513 671 q 473 782 492 749 q 426 837 455 814 q 355 859 397 859 q 283 840 313 859 q 232 790 253 821 q 199 721 212 760 q 179 641 186 682 q 170 561 172 600 q 168 491 168 522 q 171 423 168 462 q 181 342 174 384 q 203 261 189 301 q 238 189 216 220 q 289 138 259 157 q 359 118 319 118 q 418 131 392 118 q 463 165 444 144 q 495 214 482 186 q 517 272 509 242 q 529 332 525 302 q 532 388 532 362 l 532 401 l 340 407 l 340 500 l 643 507 q 649 433 646 471 q 651 359 651 396 m 415 -111 q 396 -185 415 -151 q 342 -241 377 -219 l 314 -218 q 321 -210 317 -214 q 330 -200 326 -205 q 337 -189 334 -195 q 340 -179 340 -184 q 295 -157 313 -176 q 277 -111 277 -138 q 283 -84 277 -96 q 297 -61 288 -71 q 319 -46 307 -52 q 346 -41 332 -41 q 373 -46 360 -41 q 395 -61 385 -52 q 410 -84 404 -71 q 415 -111 415 -96 z "},"ģ":{"ha":489,"x_min":31,"x_max":515,"o":"m 515 718 l 410 624 q 428 545 423 588 q 433 464 433 502 q 421 371 433 414 q 384 297 409 329 q 321 244 359 264 q 231 218 283 224 q 219 210 225 215 q 207 200 212 205 q 198 187 201 194 q 194 174 194 180 q 198 159 194 168 q 208 142 202 151 q 219 127 213 134 q 228 115 224 119 q 318 106 273 115 q 397 76 362 98 q 453 20 432 55 q 475 -69 475 -16 q 453 -152 475 -115 q 398 -217 432 -190 q 321 -260 363 -245 q 236 -275 278 -275 q 154 -262 192 -275 q 89 -224 117 -249 q 46 -164 62 -199 q 31 -83 31 -128 q 52 11 31 -33 q 115 83 73 55 q 94 124 103 102 q 84 168 84 146 q 96 214 84 192 q 129 248 109 237 q 89 292 106 265 q 61 348 73 318 q 45 410 50 378 q 39 469 39 441 q 52 569 39 524 q 90 646 64 614 q 156 697 115 679 q 252 715 196 715 q 279 713 267 715 q 302 709 291 712 q 323 702 313 706 q 347 690 334 697 l 433 799 l 515 718 m 320 472 q 316 514 320 491 q 301 556 311 536 q 275 588 291 575 q 235 601 258 601 q 191 590 207 601 q 166 561 174 578 q 155 520 157 543 q 152 476 152 498 q 156 433 152 458 q 169 385 159 408 q 194 346 178 361 q 235 330 210 330 q 275 345 258 330 q 301 382 291 360 q 316 429 311 404 q 320 472 320 453 m 366 -66 q 353 -26 366 -43 q 321 0 340 -10 q 279 15 302 10 q 237 19 256 19 q 170 -9 193 19 q 148 -80 148 -37 q 159 -117 148 -102 q 186 -141 170 -132 q 222 -154 202 -150 q 260 -159 242 -159 q 298 -152 279 -159 q 333 -134 317 -146 q 357 -104 348 -121 q 366 -66 366 -87 m 300 823 q 294 796 300 808 q 279 774 289 783 q 257 760 270 765 q 231 754 245 754 q 204 760 216 754 q 182 774 191 765 q 168 796 173 783 q 162 823 162 808 q 181 898 162 863 q 234 954 199 932 l 263 931 q 255 923 260 928 q 247 913 251 918 q 241 902 243 907 q 237 891 238 896 q 281 869 263 888 q 300 823 300 850 z "},"Ĥ":{"ha":810,"x_min":33,"x_max":758,"o":"m 758 836 l 688 838 l 674 117 l 753 117 l 757 -8 l 456 -1 l 456 121 l 552 117 l 556 373 l 247 373 l 247 132 l 327 132 l 330 5 l 35 12 l 35 134 l 132 132 l 125 818 l 33 825 l 35 947 l 319 947 l 319 815 l 247 818 l 247 479 l 555 490 l 557 838 l 467 845 l 469 967 l 758 967 l 758 836 m 562 1025 l 465 1005 l 403 1123 l 343 1005 l 248 1025 l 358 1190 l 450 1196 l 562 1025 z "},"ĥ":{"ha":567,"x_min":-18,"x_max":551,"o":"m 505 761 l 409 741 l 371 859 l 311 741 l 227 761 l 326 925 l 414 932 l 505 761 m 551 92 l 537 -18 l 309 -7 l 307 102 l 366 109 q 370 296 368 203 q 372 483 372 389 q 369 517 372 500 q 358 550 366 535 q 337 574 351 564 q 304 583 324 583 q 268 573 283 583 q 240 548 252 564 q 219 512 228 532 q 205 471 211 492 q 197 430 200 450 q 194 395 195 410 q 190 252 191 323 q 187 109 189 180 l 247 109 l 254 -1 l 19 -4 l 19 122 l 85 125 l 81 873 l -18 880 l -15 996 l 195 1002 l 199 617 q 228 654 211 637 q 265 683 245 671 q 309 702 286 695 q 355 709 332 709 q 408 699 386 709 q 444 671 429 688 q 468 630 459 654 q 481 582 476 607 q 487 530 486 556 q 488 480 488 504 q 486 289 488 384 q 481 98 484 194 l 551 92 z "},"Ħ":{"ha":810,"x_min":33,"x_max":774,"o":"m 774 546 l 682 547 l 674 117 l 753 117 l 757 -8 l 456 -1 l 456 121 l 552 117 l 556 373 l 247 373 l 247 132 l 327 132 l 330 5 l 35 12 l 35 134 l 132 132 l 127 553 l 48 553 l 66 646 l 126 646 l 125 818 l 33 825 l 35 947 l 319 947 l 319 815 l 247 818 l 247 646 l 555 646 l 557 838 l 467 845 l 469 967 l 758 967 l 758 836 l 688 838 l 684 646 l 757 646 l 774 546 m 555 490 l 555 548 l 247 551 l 247 479 l 555 490 z "},"ħ":{"ha":567,"x_min":-18,"x_max":551,"o":"m 272 725 l 198 726 l 199 617 q 228 654 211 637 q 265 683 245 671 q 309 702 286 695 q 355 709 332 709 q 408 699 386 709 q 444 671 429 688 q 468 630 459 654 q 481 582 476 607 q 487 530 486 556 q 488 480 488 504 q 486 289 488 384 q 481 98 484 194 l 551 92 l 537 -18 l 309 -7 l 307 102 l 366 109 q 370 296 368 203 q 372 483 372 389 q 369 517 372 500 q 358 550 366 535 q 337 574 351 564 q 304 583 324 583 q 268 573 283 583 q 240 548 252 564 q 219 512 228 532 q 205 471 211 492 q 197 430 200 450 q 194 395 195 410 q 190 252 191 323 q 187 109 189 180 l 247 109 l 254 -1 l 19 -4 l 19 122 l 85 125 l 82 730 l -7 732 l -1 816 l 81 816 l 81 873 l -18 880 l -15 996 l 195 1002 l 197 816 l 265 816 l 272 725 z "},"Ĩ":{"ha":376,"x_min":23,"x_max":353,"o":"m 340 134 l 333 12 l 54 5 l 50 132 l 130 132 l 128 825 l 44 822 l 51 954 l 319 954 l 330 831 l 252 825 l 245 132 l 340 134 m 353 1036 q 331 1020 343 1028 q 306 1005 319 1012 q 279 994 293 998 q 252 990 265 990 q 218 999 235 990 q 186 1018 201 1008 q 155 1037 170 1028 q 125 1046 140 1046 q 106 1039 117 1046 q 84 1022 95 1031 q 64 1002 73 1012 q 50 986 55 991 l 23 1067 q 43 1088 31 1077 q 69 1110 55 1100 q 98 1126 83 1120 q 126 1133 113 1133 q 159 1124 144 1133 q 188 1105 174 1116 q 218 1087 203 1095 q 252 1078 233 1078 q 293 1092 273 1078 q 326 1119 313 1105 l 353 1036 z "},"ĩ":{"ha":310,"x_min":-9,"x_max":321,"o":"m 294 95 l 290 -18 l 41 -7 l 41 111 l 98 115 l 98 572 l 16 572 l 18 690 l 237 690 l 220 102 l 294 95 m 321 783 q 299 767 311 775 q 274 752 288 759 q 247 741 261 745 q 220 737 233 737 q 186 746 203 737 q 154 765 170 755 q 123 784 138 775 q 93 793 108 793 q 74 786 85 793 q 52 769 63 779 q 32 749 41 759 q 18 733 23 739 l -9 814 q 11 836 -1 824 q 37 857 23 847 q 66 873 51 867 q 94 880 81 880 q 127 871 112 880 q 156 852 142 863 q 186 834 171 842 q 220 825 201 825 q 261 839 241 825 q 294 866 281 852 l 321 783 z "},"Ī":{"ha":376,"x_min":44,"x_max":340,"o":"m 340 134 l 333 12 l 54 5 l 50 132 l 130 132 l 128 825 l 44 822 l 51 954 l 319 954 l 330 831 l 252 825 l 245 132 l 340 134 m 328 1002 l 48 1008 l 55 1093 l 321 1093 l 328 1002 z "},"ī":{"ha":310,"x_min":15,"x_max":294,"o":"m 294 95 l 290 -18 l 41 -7 l 41 111 l 98 115 l 98 572 l 16 572 l 18 690 l 237 690 l 220 102 l 294 95 m 294 739 l 15 746 l 22 830 l 288 830 l 294 739 z "},"Ĭ":{"ha":376,"x_min":34,"x_max":342,"o":"m 340 134 l 333 12 l 54 5 l 50 132 l 130 132 l 128 825 l 44 822 l 51 954 l 319 954 l 330 831 l 252 825 l 245 132 l 340 134 m 342 1141 q 325 1084 337 1112 q 292 1035 312 1056 q 245 1000 272 1013 q 187 987 219 987 q 128 998 155 987 q 81 1030 101 1010 q 49 1077 61 1050 q 34 1135 37 1103 l 106 1149 q 134 1094 111 1112 q 194 1076 157 1076 q 222 1083 210 1076 q 245 1102 235 1090 q 261 1128 255 1114 q 270 1156 267 1142 l 342 1141 z "},"ĭ":{"ha":310,"x_min":1,"x_max":309,"o":"m 294 95 l 290 -18 l 41 -7 l 41 111 l 98 115 l 98 572 l 16 572 l 18 690 l 237 690 l 220 102 l 294 95 m 309 892 q 291 834 304 862 q 259 785 279 806 q 212 750 239 764 q 154 737 186 737 q 95 749 122 737 q 48 780 68 760 q 16 827 28 800 q 1 885 3 854 l 73 900 q 101 844 78 862 q 161 827 124 827 q 189 834 176 827 q 212 852 202 841 q 228 878 222 864 q 237 907 234 892 l 309 892 z "},"Į":{"ha":376,"x_min":44,"x_max":340,"o":"m 278 -209 q 250 -216 264 -213 q 220 -218 235 -218 q 172 -211 194 -218 q 135 -188 151 -203 q 112 -152 120 -173 q 103 -104 103 -131 q 115 -46 103 -75 q 146 7 127 -16 l 54 5 l 50 132 l 130 132 l 128 825 l 44 822 l 51 954 l 319 954 l 330 831 l 252 825 l 245 132 l 340 134 l 333 12 l 222 9 q 195 -39 206 -12 q 183 -90 183 -66 q 193 -125 183 -113 q 227 -137 203 -137 q 262 -129 245 -137 l 278 -209 z "},"į":{"ha":310,"x_min":16,"x_max":294,"o":"m 242 -209 q 214 -216 228 -213 q 184 -218 199 -218 q 136 -211 158 -218 q 99 -188 115 -203 q 76 -152 84 -173 q 67 -104 67 -131 q 76 -55 67 -80 q 98 -9 84 -31 l 41 -7 l 41 111 l 98 115 l 98 572 l 16 572 l 18 690 l 237 690 l 220 102 l 294 95 l 290 -18 l 172 -12 q 154 -52 161 -31 q 147 -90 147 -72 q 157 -125 147 -113 q 191 -137 167 -137 q 226 -129 210 -137 l 242 -209 m 237 853 q 230 820 237 836 q 212 793 223 804 q 184 774 200 781 q 151 768 169 768 q 118 774 134 768 q 91 793 102 781 q 73 820 79 804 q 66 853 66 836 q 73 886 66 871 q 91 913 79 902 q 118 932 102 925 q 151 939 134 939 q 184 932 169 939 q 212 913 200 925 q 230 886 223 902 q 237 853 237 871 z "},"İ":{"ha":376,"x_min":44,"x_max":340,"o":"m 340 134 l 333 12 l 54 5 l 50 132 l 130 132 l 128 825 l 44 822 l 51 954 l 319 954 l 330 831 l 252 825 l 245 132 l 340 134 m 256 1080 q 237 1029 256 1050 q 187 1009 217 1009 q 160 1015 173 1009 q 139 1030 148 1021 q 124 1053 130 1040 q 119 1080 119 1066 q 140 1130 119 1109 q 190 1150 160 1150 q 217 1144 205 1150 q 238 1129 229 1139 q 252 1107 247 1120 q 256 1080 256 1094 z "},"Ĳ":{"ha":924,"x_min":44,"x_max":904,"o":"m 340 134 l 333 12 l 54 5 l 50 132 l 130 132 l 128 825 l 44 822 l 51 954 l 319 954 l 330 831 l 252 825 l 245 132 l 340 134 m 904 842 l 804 842 l 804 232 q 791 130 804 176 q 750 53 778 85 q 681 3 723 20 q 578 -15 638 -15 q 497 3 532 -15 q 439 52 462 21 q 404 121 416 82 q 393 203 393 161 q 393 286 393 244 q 398 368 394 327 l 524 368 q 518 288 521 328 q 516 209 516 249 q 520 174 516 193 q 532 139 524 155 q 554 112 541 123 q 588 102 568 102 q 635 114 617 102 q 663 145 653 125 q 677 189 673 164 q 680 237 680 213 l 680 842 l 558 834 l 551 964 l 904 972 l 904 842 z "},"ĳ":{"ha":582,"x_min":16,"x_max":533,"o":"m 237 853 q 230 820 237 836 q 212 793 223 804 q 184 774 200 781 q 151 768 169 768 q 118 774 134 768 q 91 793 102 781 q 73 820 79 804 q 66 853 66 836 q 73 886 66 871 q 91 913 79 902 q 118 932 102 925 q 151 939 134 939 q 184 932 169 939 q 212 913 200 925 q 230 886 223 902 q 237 853 237 871 m 294 95 l 290 -18 l 41 -7 l 41 111 l 98 115 l 98 572 l 16 572 l 18 690 l 237 690 l 220 102 l 294 95 m 533 853 q 526 820 533 836 q 508 793 519 804 q 480 774 496 781 q 446 768 464 768 q 413 774 429 768 q 386 793 397 781 q 368 820 374 804 q 361 853 361 836 q 368 887 361 871 q 386 915 374 903 q 413 933 397 926 q 446 940 429 940 q 480 933 464 940 q 508 915 496 926 q 526 887 519 903 q 533 853 533 871 m 524 693 l 519 35 q 506 -96 519 -37 q 460 -195 492 -154 q 374 -257 428 -235 q 240 -279 321 -279 q 213 -279 227 -279 q 186 -277 199 -278 l 189 -157 q 286 -152 246 -159 q 350 -125 326 -146 q 385 -66 374 -104 q 396 35 396 -27 l 396 583 l 317 579 l 321 692 l 524 693 z "},"Ĵ":{"ha":547,"x_min":16,"x_max":528,"o":"m 528 842 l 427 842 l 427 232 q 414 130 427 176 q 374 53 401 85 q 304 3 347 20 q 202 -15 262 -15 q 120 3 155 -15 q 62 52 85 21 q 28 121 39 82 q 16 203 16 161 q 17 286 16 244 q 22 368 18 327 l 148 368 q 142 288 144 328 q 140 209 140 249 q 143 174 140 193 q 156 139 147 155 q 178 112 164 123 q 212 102 192 102 q 259 114 241 102 q 287 145 277 125 q 300 189 297 164 q 304 237 304 213 l 304 842 l 182 834 l 175 964 l 528 972 l 528 842 m 520 1025 l 424 1005 l 361 1123 l 302 1005 l 207 1025 l 317 1190 l 409 1196 l 520 1025 z "},"ĵ":{"ha":272,"x_min":-124,"x_max":294,"o":"m 214 693 l 210 35 q 196 -96 209 -37 q 150 -195 182 -154 q 64 -257 118 -235 q -70 -279 11 -279 q -97 -279 -83 -279 q -124 -277 -111 -278 l -121 -157 q -24 -152 -64 -159 q 40 -125 16 -146 q 75 -66 64 -104 q 86 35 86 -27 l 86 583 l 7 579 l 12 692 l 214 693 m 294 768 l 197 747 l 135 865 l 75 747 l -20 768 l 90 932 l 182 939 l 294 768 z "},"Ķ":{"ha":700,"x_min":44,"x_max":705,"o":"m 705 967 l 694 838 l 623 838 l 353 499 l 611 117 l 686 121 l 692 -1 l 413 -15 l 402 110 l 482 110 l 248 467 l 245 132 l 340 134 l 333 12 l 54 5 l 50 132 l 130 132 l 128 825 l 44 822 l 51 954 l 319 954 l 330 831 l 252 825 l 249 533 l 493 845 l 408 856 l 416 974 l 705 967 m 415 -111 q 396 -185 415 -151 q 342 -241 377 -219 l 314 -218 q 321 -210 317 -214 q 330 -200 326 -205 q 337 -189 334 -195 q 340 -179 340 -184 q 295 -157 313 -176 q 277 -111 277 -138 q 283 -84 277 -96 q 297 -61 288 -71 q 319 -46 307 -52 q 346 -41 332 -41 q 373 -46 360 -41 q 395 -61 385 -52 q 410 -84 404 -71 q 415 -111 415 -96 z "},"ķ":{"ha":564,"x_min":-2,"x_max":553,"o":"m 553 111 l 550 0 l 321 0 l 321 109 l 368 109 l 234 286 l 199 239 l 196 114 l 276 107 l 272 -5 l 24 5 l 24 123 l 81 127 l 81 864 l -2 864 l 1 983 l 205 983 l 201 397 l 348 591 l 292 591 l 283 693 l 543 704 l 547 591 l 467 589 l 299 368 l 496 115 l 553 111 m 351 -106 q 332 -181 351 -147 q 278 -237 313 -215 l 250 -214 q 257 -205 253 -210 q 265 -196 261 -201 q 272 -185 269 -191 q 276 -175 275 -180 q 231 -153 249 -172 q 213 -106 213 -134 q 218 -80 213 -92 q 233 -57 224 -67 q 255 -42 242 -47 q 281 -37 267 -37 q 308 -42 296 -37 q 330 -57 321 -47 q 345 -80 340 -67 q 351 -106 351 -92 z "},"ĸ":{"ha":564,"x_min":-2,"x_max":553,"o":"m 553 111 l 550 0 l 321 0 l 321 109 l 368 109 l 234 286 l 199 239 l 196 114 l 276 107 l 272 -5 l 24 5 l 24 123 l 81 127 l 81 579 l -2 579 l 1 699 l 250 699 l 255 583 l 204 581 l 201 397 l 348 591 l 292 591 l 283 693 l 543 704 l 547 591 l 467 589 l 299 368 l 496 115 l 553 111 z "},"Ĺ":{"ha":607,"x_min":44,"x_max":592,"o":"m 592 275 l 585 -1 l 51 5 l 44 137 l 128 134 l 130 829 l 50 829 l 54 954 l 348 954 l 348 833 l 252 829 l 245 134 l 471 129 l 478 282 l 592 275 m 410 1149 l 260 991 l 196 1012 l 284 1183 l 410 1149 z "},"ĺ":{"ha":291,"x_min":-2,"x_max":331,"o":"m 276 107 l 272 -5 l 24 5 l 24 123 l 81 127 l 81 857 l -2 857 l 1 977 l 219 977 l 203 114 l 276 107 m 331 1171 l 180 1013 l 117 1034 l 205 1204 l 331 1171 z "},"Ļ":{"ha":607,"x_min":44,"x_max":592,"o":"m 592 275 l 585 -1 l 51 5 l 44 137 l 128 134 l 130 829 l 50 829 l 54 954 l 348 954 l 348 833 l 252 829 l 245 134 l 471 129 l 478 282 l 592 275 m 381 -111 q 362 -185 381 -151 q 309 -241 343 -219 l 280 -218 q 288 -210 283 -214 q 296 -200 292 -205 q 303 -189 300 -195 q 307 -179 306 -184 q 261 -157 279 -176 q 243 -111 243 -138 q 249 -84 243 -96 q 263 -61 254 -71 q 285 -46 273 -52 q 312 -41 298 -41 q 339 -46 326 -41 q 361 -61 351 -52 q 376 -84 370 -71 q 381 -111 381 -96 z "},"ļ":{"ha":291,"x_min":-2,"x_max":276,"o":"m 276 107 l 272 -5 l 24 5 l 24 123 l 81 127 l 81 857 l -2 857 l 1 977 l 219 977 l 203 114 l 276 107 m 218 -111 q 199 -185 218 -151 q 146 -241 180 -219 l 117 -218 q 125 -210 121 -214 q 133 -200 129 -205 q 140 -189 137 -195 q 144 -179 143 -184 q 99 -157 117 -176 q 81 -111 81 -138 q 86 -84 81 -96 q 101 -61 92 -71 q 122 -46 110 -52 q 149 -41 135 -41 q 176 -46 163 -41 q 198 -61 189 -52 q 213 -84 208 -71 q 218 -111 218 -96 z "},"Ľ":{"ha":607,"x_min":44,"x_max":592,"o":"m 592 275 l 585 -1 l 51 5 l 44 137 l 128 134 l 130 829 l 50 829 l 54 954 l 348 954 l 348 833 l 252 829 l 245 134 l 471 129 l 478 282 l 592 275 m 562 866 q 537 772 562 815 q 471 703 513 730 l 435 732 q 455 754 444 740 q 468 781 466 768 q 437 789 451 782 q 412 808 422 797 q 395 834 401 819 q 389 866 389 849 q 396 900 389 884 q 414 927 403 916 q 441 946 426 939 q 475 953 457 953 q 508 946 492 953 q 536 927 524 939 q 555 900 548 916 q 562 866 562 884 z "},"ľ":{"ha":475,"x_min":-2,"x_max":441,"o":"m 276 107 l 272 -5 l 24 5 l 24 123 l 81 127 l 81 857 l -2 857 l 1 977 l 219 977 l 203 114 l 276 107 m 441 866 q 417 772 441 815 q 350 703 393 730 l 315 732 q 334 754 323 740 q 347 781 345 768 q 316 789 330 782 q 291 808 302 797 q 275 834 281 819 q 269 866 269 849 q 275 900 269 884 q 294 927 282 916 q 321 946 305 939 q 354 953 336 953 q 388 946 372 953 q 415 927 404 939 q 434 900 427 916 q 441 866 441 884 z "},"Ŀ":{"ha":607,"x_min":44,"x_max":592,"o":"m 592 275 l 585 -1 l 51 5 l 44 137 l 128 134 l 130 829 l 50 829 l 54 954 l 348 954 l 348 833 l 252 829 l 245 134 l 471 129 l 478 282 l 592 275 m 504 484 q 497 451 504 467 q 478 424 490 435 q 451 406 467 412 q 417 399 435 399 q 384 406 399 399 q 357 424 368 412 q 338 451 345 435 q 332 484 332 467 q 338 518 332 502 q 357 546 345 534 q 384 564 368 557 q 417 571 399 571 q 451 564 435 571 q 478 546 467 557 q 497 518 490 534 q 504 484 504 502 z "},"ŀ":{"ha":477,"x_min":-2,"x_max":443,"o":"m 276 107 l 272 -5 l 24 5 l 24 123 l 81 127 l 81 857 l -2 857 l 1 977 l 219 977 l 203 114 l 276 107 m 443 484 q 436 451 443 467 q 417 424 429 435 q 390 406 406 412 q 356 399 374 399 q 323 406 338 399 q 296 424 307 412 q 277 451 284 435 q 271 484 271 467 q 277 518 271 502 q 296 546 284 534 q 323 564 307 557 q 356 571 338 571 q 390 564 374 571 q 417 546 406 557 q 436 518 429 534 q 443 484 443 502 z "},"Ń":{"ha":791,"x_min":39,"x_max":768,"o":"m 768 845 l 690 838 l 669 -5 l 551 -8 l 246 730 l 253 132 l 345 134 l 345 12 l 55 5 l 51 132 l 131 132 l 123 825 l 39 822 l 45 954 l 273 954 l 561 233 l 561 838 l 475 836 l 482 967 l 759 967 l 768 845 m 594 1149 l 444 991 l 380 1012 l 468 1183 l 594 1149 z "},"ń":{"ha":601,"x_min":16,"x_max":584,"o":"m 584 96 l 570 -12 l 342 -3 l 340 107 l 399 114 q 403 298 401 206 q 405 481 405 389 q 402 515 405 498 q 391 548 399 533 q 371 572 384 563 q 337 582 357 582 q 287 565 307 582 q 253 524 266 549 q 234 471 240 500 q 227 419 228 443 q 223 267 224 342 q 220 114 222 191 l 280 114 l 287 4 l 52 1 l 52 126 l 119 130 l 115 571 l 16 578 l 18 693 l 214 700 l 218 604 q 250 643 231 624 q 291 675 269 661 q 338 698 313 690 q 389 707 363 707 q 441 696 419 707 q 477 669 463 686 q 501 628 492 651 q 514 580 509 606 q 520 529 519 555 q 522 479 522 503 q 519 291 522 385 q 515 103 517 197 l 584 96 m 501 897 l 351 739 l 287 760 l 375 930 l 501 897 z "},"Ņ":{"ha":791,"x_min":39,"x_max":768,"o":"m 768 845 l 690 838 l 669 -5 l 551 -8 l 246 730 l 253 132 l 345 134 l 345 12 l 55 5 l 51 132 l 131 132 l 123 825 l 39 822 l 45 954 l 273 954 l 561 233 l 561 838 l 475 836 l 482 967 l 759 967 l 768 845 m 449 -111 q 430 -185 449 -151 q 376 -241 411 -219 l 348 -218 q 355 -210 351 -214 q 363 -200 359 -205 q 371 -189 368 -195 q 374 -179 374 -184 q 329 -157 347 -176 q 311 -111 311 -138 q 317 -84 311 -96 q 331 -61 322 -71 q 353 -46 340 -52 q 380 -41 366 -41 q 407 -46 394 -41 q 429 -61 419 -52 q 444 -84 438 -71 q 449 -111 449 -96 z "},"ņ":{"ha":601,"x_min":16,"x_max":584,"o":"m 584 96 l 570 -12 l 342 -3 l 340 107 l 399 114 q 403 298 401 206 q 405 481 405 389 q 402 515 405 498 q 391 548 399 533 q 371 572 384 563 q 337 582 357 582 q 287 565 307 582 q 253 524 266 549 q 234 471 240 500 q 227 419 228 443 q 223 267 224 342 q 220 114 222 191 l 280 114 l 287 4 l 52 1 l 52 126 l 119 130 l 115 571 l 16 578 l 18 693 l 214 700 l 218 604 q 250 643 231 624 q 291 675 269 661 q 338 698 313 690 q 389 707 363 707 q 441 696 419 707 q 477 669 463 686 q 501 628 492 651 q 514 580 509 606 q 520 529 519 555 q 522 479 522 503 q 519 291 522 385 q 515 103 517 197 l 584 96 m 381 -111 q 362 -185 381 -151 q 309 -241 343 -219 l 280 -218 q 288 -210 283 -214 q 296 -200 292 -205 q 303 -189 300 -195 q 307 -179 306 -184 q 261 -157 279 -176 q 243 -111 243 -138 q 249 -84 243 -96 q 263 -61 254 -71 q 285 -46 273 -52 q 312 -41 298 -41 q 339 -46 326 -41 q 361 -61 351 -52 q 376 -84 370 -71 q 381 -111 381 -96 z "},"Ň":{"ha":791,"x_min":39,"x_max":768,"o":"m 768 845 l 690 838 l 669 -5 l 551 -8 l 246 730 l 253 132 l 345 134 l 345 12 l 55 5 l 51 132 l 131 132 l 123 825 l 39 822 l 45 954 l 273 954 l 561 233 l 561 838 l 475 836 l 482 967 l 759 967 l 768 845 m 552 1176 l 442 1012 l 351 1005 l 239 1176 l 335 1196 l 397 1078 l 457 1196 l 552 1176 z "},"ň":{"ha":601,"x_min":16,"x_max":584,"o":"m 584 96 l 570 -12 l 342 -3 l 340 107 l 399 114 q 403 298 401 206 q 405 481 405 389 q 402 515 405 498 q 391 548 399 533 q 371 572 384 563 q 337 582 357 582 q 287 565 307 582 q 253 524 266 549 q 234 471 240 500 q 227 419 228 443 q 223 267 224 342 q 220 114 222 191 l 280 114 l 287 4 l 52 1 l 52 126 l 119 130 l 115 571 l 16 578 l 18 693 l 214 700 l 218 604 q 250 643 231 624 q 291 675 269 661 q 338 698 313 690 q 389 707 363 707 q 441 696 419 707 q 477 669 463 686 q 501 628 492 651 q 514 580 509 606 q 520 529 519 555 q 522 479 522 503 q 519 291 522 385 q 515 103 517 197 l 584 96 m 457 912 l 347 748 l 256 741 l 144 912 l 240 932 l 302 814 l 362 932 l 457 912 z "},"ŉ":{"ha":779,"x_min":34,"x_max":762,"o":"m 762 96 l 749 -12 l 521 -3 l 518 107 l 578 114 q 582 298 580 206 q 583 481 583 389 q 580 515 583 498 q 570 548 577 533 q 549 572 562 563 q 515 582 536 582 q 465 565 486 582 q 431 524 444 549 q 412 471 418 500 q 406 419 406 443 q 401 267 402 342 q 399 114 400 191 l 458 114 l 465 4 l 231 1 l 231 126 l 297 130 l 293 571 l 194 578 l 197 693 l 392 700 l 396 604 q 428 643 410 624 q 469 675 447 661 q 516 698 492 690 q 567 707 541 707 q 619 696 597 707 q 656 669 641 686 q 679 628 671 651 q 692 580 688 606 q 699 529 697 555 q 700 479 700 503 q 697 291 700 385 q 693 103 695 197 l 762 96 m 206 866 q 182 772 206 815 q 115 703 158 730 l 80 732 q 99 754 88 740 q 113 781 111 768 q 81 789 96 782 q 57 808 67 797 q 40 834 46 819 q 34 866 34 849 q 41 900 34 884 q 59 927 47 916 q 86 946 71 939 q 119 953 102 953 q 153 946 137 953 q 181 927 169 939 q 199 900 193 916 q 206 866 206 884 z "},"Ŋ":{"ha":791,"x_min":39,"x_max":768,"o":"m 768 845 l 690 838 l 669 -5 l 668 -5 l 668 -184 q 655 -286 668 -240 q 615 -363 642 -331 q 545 -413 587 -395 q 443 -431 503 -431 q 361 -413 396 -431 q 303 -364 326 -395 q 269 -294 280 -334 q 257 -212 257 -255 q 258 -189 257 -205 q 260 -157 258 -173 q 262 -116 261 -138 l 389 -116 q 385 -157 387 -139 q 382 -188 383 -174 q 380 -207 380 -203 q 384 -242 380 -223 q 396 -277 388 -260 q 419 -303 405 -293 q 452 -314 433 -314 q 499 -302 481 -314 q 528 -271 517 -290 q 541 -227 538 -252 q 545 -178 545 -203 l 545 8 l 246 730 l 253 132 l 345 134 l 345 12 l 55 5 l 51 132 l 131 132 l 123 825 l 39 822 l 45 954 l 273 954 l 561 233 l 561 838 l 475 836 l 482 967 l 759 967 l 768 845 z "},"ŋ":{"ha":580,"x_min":16,"x_max":522,"o":"m 520 35 q 506 -96 519 -37 q 460 -195 492 -154 q 374 -257 428 -235 q 240 -279 321 -279 q 213 -279 227 -279 q 186 -277 199 -278 l 189 -157 q 286 -152 246 -159 q 352 -125 326 -146 q 389 -66 377 -104 q 403 35 401 -27 q 404 173 404 111 q 405 288 404 235 q 405 388 405 341 q 405 481 405 435 q 402 515 405 498 q 391 548 399 533 q 371 572 384 563 q 337 582 357 582 q 287 565 307 582 q 253 524 266 549 q 234 471 240 500 q 227 419 228 443 q 223 267 224 342 q 220 114 222 191 l 280 114 l 287 4 l 52 1 l 52 126 l 119 130 l 115 571 l 16 578 l 18 693 l 214 700 l 218 604 q 250 643 231 624 q 291 675 269 661 q 338 698 313 690 q 389 707 363 707 q 441 696 419 707 q 477 669 463 686 q 501 628 492 651 q 514 580 509 606 q 520 529 519 555 q 522 479 522 503 l 520 35 z "},"Ǿ":{"ha":681,"x_min":43,"x_max":636,"o":"m 183 266 l 423 834 q 392 853 409 846 q 354 860 376 860 q 278 836 309 860 q 227 772 248 812 q 195 684 207 733 q 178 585 184 635 q 172 488 173 534 q 171 408 171 441 q 173 342 171 380 q 183 266 176 304 m 488 696 l 241 138 q 277 114 257 123 q 323 106 297 106 q 397 128 367 106 q 448 187 428 151 q 479 269 468 223 q 496 360 490 314 q 502 448 501 406 q 503 519 503 490 q 503 555 503 534 q 501 598 503 575 q 496 646 499 621 q 488 696 493 671 m 613 977 l 566 869 q 601 788 587 832 q 622 700 614 745 q 633 610 630 654 q 636 528 636 566 q 633 410 636 473 q 618 287 629 348 q 586 169 607 226 q 529 70 564 113 q 441 1 493 27 q 316 -24 389 -24 q 245 -14 277 -24 q 186 14 212 -4 l 174 -14 l 71 0 l 111 98 q 78 174 92 133 q 57 256 65 214 q 46 340 50 298 q 43 419 43 382 q 47 538 43 474 q 64 665 52 602 q 98 786 76 728 q 156 889 120 844 q 245 961 193 934 q 369 987 297 987 q 427 981 401 987 q 476 962 454 974 l 488 990 l 613 977 m 555 1190 l 404 1032 l 340 1053 l 429 1223 l 555 1190 z "},"ǿ":{"ha":506,"x_min":37,"x_max":469,"o":"m 151 248 l 290 591 q 263 598 277 598 q 218 582 237 598 q 186 541 199 566 q 165 485 173 516 q 152 424 157 454 q 146 366 148 393 q 145 321 145 338 q 146 290 145 309 q 151 248 147 270 m 357 453 l 208 110 q 224 101 216 104 q 244 98 233 98 q 289 113 270 98 q 320 154 307 129 q 342 209 334 178 q 354 270 350 239 q 360 328 359 301 q 362 373 362 355 q 361 408 362 387 q 357 453 360 429 m 461 694 l 420 601 q 444 544 434 574 q 459 484 453 514 q 467 424 465 453 q 469 369 469 394 q 465 294 469 335 q 451 210 461 252 q 424 127 441 168 q 382 56 408 87 q 323 5 357 24 q 245 -14 290 -14 q 163 7 197 -14 l 153 -14 l 50 0 l 87 88 q 63 145 73 115 q 47 205 54 175 q 39 266 41 236 q 37 323 37 296 q 41 399 37 357 q 55 484 45 441 q 81 568 64 527 q 122 640 98 608 q 181 690 147 671 q 260 709 216 709 q 331 693 300 709 l 338 708 l 461 694 m 438 911 l 288 754 l 224 774 l 312 945 l 438 911 z "},"Ō":{"ha":681,"x_min":43,"x_max":636,"o":"m 636 528 q 633 410 636 473 q 618 287 629 348 q 586 169 607 226 q 529 70 564 113 q 441 1 493 27 q 316 -24 389 -24 q 217 -4 259 -24 q 145 52 175 17 q 95 132 115 86 q 64 226 75 177 q 48 326 52 275 q 43 419 43 376 q 47 538 43 474 q 64 665 52 602 q 98 786 76 728 q 156 889 120 844 q 245 961 193 934 q 369 987 297 987 q 468 965 426 987 q 540 906 511 943 q 588 822 570 869 q 618 723 607 774 q 632 622 629 672 q 636 528 636 571 m 503 519 q 502 577 503 543 q 496 649 500 611 q 481 724 491 686 q 455 792 472 762 q 414 841 439 823 q 354 860 389 860 q 278 836 309 860 q 227 772 248 812 q 195 684 207 733 q 178 585 184 635 q 172 488 173 534 q 171 408 171 441 q 172 351 171 383 q 179 285 174 319 q 194 219 184 252 q 221 162 204 187 q 262 121 237 137 q 323 106 288 106 q 397 128 367 106 q 448 187 428 151 q 479 269 468 223 q 496 360 490 314 q 502 448 501 406 q 503 519 503 490 m 480 1030 l 201 1037 l 208 1121 l 473 1121 l 480 1030 z "},"ō":{"ha":500,"x_min":34,"x_max":467,"o":"m 467 369 q 463 294 467 335 q 448 210 458 252 q 421 127 438 168 q 380 56 405 87 q 321 5 355 24 q 243 -14 288 -14 q 169 2 201 -14 q 114 44 137 18 q 75 105 91 71 q 51 177 60 140 q 38 252 41 214 q 34 323 34 290 q 38 399 34 357 q 52 484 42 441 q 78 568 62 527 q 120 640 95 608 q 178 690 144 671 q 258 709 212 709 q 331 693 299 709 q 386 650 362 677 q 424 587 409 623 q 449 514 439 552 q 463 439 458 477 q 467 369 467 401 m 359 373 q 358 410 359 387 q 353 457 357 432 q 342 507 349 482 q 325 553 336 532 q 298 586 314 573 q 260 598 282 598 q 215 582 234 598 q 183 541 197 566 q 162 485 170 516 q 150 424 154 454 q 144 366 145 393 q 142 321 142 338 q 144 285 142 307 q 149 238 145 263 q 160 188 153 213 q 178 143 168 163 q 205 110 189 123 q 241 98 220 98 q 286 113 267 98 q 318 154 304 129 q 339 209 331 178 q 352 270 347 239 q 358 328 356 301 q 359 373 359 355 m 389 744 l 110 751 l 117 835 l 382 835 l 389 744 z "}}}
